<?xml version="1.0" standalone="no" ?>
<!DOCTYPE svg PUBLIC "-//W3C//DTD SVG 1.1//EN" "http://www.w3.org/Graphics/SVG/1.1/DTD/svg11.dtd">
<svg width="15px" height="27px" xmlns="http://www.w3.org/2000/svg" version="1.1" >
	<rect x="1" y="26" width="1" height="1" fill="rgb(169,169,169)" stroke-width="0.05" stroke="rgb(0,0,0)" />
	<rect x="1" y="25" width="1" height="1" fill="rgb(169,169,169)" stroke-width="0.05" stroke="rgb(0,0,0)" />
	<rect x="1" y="24" width="1" height="1" fill="rgb(169,169,169)" stroke-width="0.05" stroke="rgb(0,0,0)" />
	<rect x="1" y="23" width="1" height="1" fill="rgb(169,169,169)" stroke-width="0.05" stroke="rgb(0,0,0)" />
	<rect x="1" y="22" width="1" height="1" fill="rgb(169,169,169)" stroke-width="0.05" stroke="rgb(0,0,0)" />
	<rect x="1" y="17" width="1" height="1" fill="rgb(169,169,169)" stroke-width="0.05" stroke="rgb(0,0,0)" />
	<rect x="1" y="16" width="1" height="1" fill="rgb(169,169,169)" stroke-width="0.05" stroke="rgb(0,0,0)" />
	<rect x="2" y="26" width="1" height="1" fill="rgb(169,169,169)" stroke-width="0.05" stroke="rgb(0,0,0)" />
	<rect x="2" y="25" width="1" height="1" fill="rgb(169,169,169)" stroke-width="0.05" stroke="rgb(0,0,0)" />
	<rect x="2" y="24" width="1" height="1" fill="rgb(169,169,169)" stroke-width="0.05" stroke="rgb(0,0,0)" />
	<rect x="2" y="23" width="1" height="1" fill="rgb(169,169,169)" stroke-width="0.05" stroke="rgb(0,0,0)" />
	<rect x="2" y="22" width="1" height="1" fill="rgb(169,169,169)" stroke-width="0.05" stroke="rgb(0,0,0)" />
	<rect x="2" y="17" width="1" height="1" fill="rgb(169,169,169)" stroke-width="0.05" stroke="rgb(0,0,0)" />
	<rect x="2" y="16" width="1" height="1" fill="rgb(169,169,169)" stroke-width="0.05" stroke="rgb(0,0,0)" />
	<rect x="2" y="12" width="1" height="1" fill="rgb(169,169,169)" stroke-width="0.05" stroke="rgb(0,0,0)" />
	<rect x="2" y="11" width="1" height="1" fill="rgb(169,169,169)" stroke-width="0.05" stroke="rgb(0,0,0)" />
	<rect x="2" y="10" width="1" height="1" fill="rgb(169,169,169)" stroke-width="0.05" stroke="rgb(0,0,0)" />
	<rect x="2" y="9" width="1" height="1" fill="rgb(169,169,169)" stroke-width="0.05" stroke="rgb(0,0,0)" />
	<rect x="2" y="8" width="1" height="1" fill="rgb(169,169,169)" stroke-width="0.05" stroke="rgb(0,0,0)" />
	<rect x="2" y="7" width="1" height="1" fill="rgb(169,169,169)" stroke-width="0.05" stroke="rgb(0,0,0)" />
	<rect x="2" y="3" width="1" height="1" fill="rgb(169,169,169)" stroke-width="0.05" stroke="rgb(0,0,0)" />
	<rect x="3" y="26" width="1" height="1" fill="rgb(169,169,169)" stroke-width="0.05" stroke="rgb(0,0,0)" />
	<rect x="3" y="25" width="1" height="1" fill="rgb(169,169,169)" stroke-width="0.05" stroke="rgb(0,0,0)" />
	<rect x="3" y="24" width="1" height="1" fill="rgb(169,169,169)" stroke-width="0.05" stroke="rgb(0,0,0)" />
	<rect x="3" y="23" width="1" height="1" fill="rgb(169,169,169)" stroke-width="0.05" stroke="rgb(0,0,0)" />
	<rect x="3" y="22" width="1" height="1" fill="rgb(169,169,169)" stroke-width="0.05" stroke="rgb(0,0,0)" />
	<rect x="3" y="18" width="1" height="1" fill="rgb(169,169,169)" stroke-width="0.05" stroke="rgb(0,0,0)" />
	<rect x="3" y="17" width="1" height="1" fill="rgb(169,169,169)" stroke-width="0.05" stroke="rgb(0,0,0)" />
	<rect x="3" y="16" width="1" height="1" fill="rgb(169,169,169)" stroke-width="0.05" stroke="rgb(0,0,0)" />
	<rect x="3" y="15" width="1" height="1" fill="rgb(169,169,169)" stroke-width="0.05" stroke="rgb(0,0,0)" />
	<rect x="3" y="14" width="1" height="1" fill="rgb(169,169,169)" stroke-width="0.05" stroke="rgb(0,0,0)" />
	<rect x="3" y="13" width="1" height="1" fill="rgb(169,169,169)" stroke-width="0.05" stroke="rgb(0,0,0)" />
	<rect x="3" y="12" width="1" height="1" fill="rgb(169,169,169)" stroke-width="0.05" stroke="rgb(0,0,0)" />
	<rect x="3" y="11" width="1" height="1" fill="rgb(169,169,169)" stroke-width="0.05" stroke="rgb(0,0,0)" />
	<rect x="3" y="10" width="1" height="1" fill="rgb(169,169,169)" stroke-width="0.05" stroke="rgb(0,0,0)" />
	<rect x="3" y="9" width="1" height="1" fill="rgb(169,169,169)" stroke-width="0.05" stroke="rgb(0,0,0)" />
	<rect x="3" y="8" width="1" height="1" fill="rgb(169,169,169)" stroke-width="0.05" stroke="rgb(0,0,0)" />
	<rect x="3" y="7" width="1" height="1" fill="rgb(169,169,169)" stroke-width="0.05" stroke="rgb(0,0,0)" />
	<rect x="3" y="6" width="1" height="1" fill="rgb(169,169,169)" stroke-width="0.05" stroke="rgb(0,0,0)" />
	<rect x="3" y="5" width="1" height="1" fill="rgb(169,169,169)" stroke-width="0.05" stroke="rgb(0,0,0)" />
	<rect x="3" y="4" width="1" height="1" fill="rgb(169,169,169)" stroke-width="0.05" stroke="rgb(0,0,0)" />
	<rect x="3" y="3" width="1" height="1" fill="rgb(169,169,169)" stroke-width="0.05" stroke="rgb(0,0,0)" />
	<rect x="3" y="2" width="1" height="1" fill="rgb(169,169,169)" stroke-width="0.05" stroke="rgb(0,0,0)" />
	<rect x="3" y="1" width="1" height="1" fill="rgb(169,169,169)" stroke-width="0.05" stroke="rgb(0,0,0)" />
	<rect x="4" y="26" width="1" height="1" fill="rgb(169,169,169)" stroke-width="0.05" stroke="rgb(0,0,0)" />
	<rect x="4" y="25" width="1" height="1" fill="rgb(169,169,169)" stroke-width="0.05" stroke="rgb(0,0,0)" />
	<rect x="4" y="24" width="1" height="1" fill="rgb(169,169,169)" stroke-width="0.05" stroke="rgb(0,0,0)" />
	<rect x="4" y="23" width="1" height="1" fill="rgb(169,169,169)" stroke-width="0.05" stroke="rgb(0,0,0)" />
	<rect x="4" y="22" width="1" height="1" fill="rgb(169,169,169)" stroke-width="0.05" stroke="rgb(0,0,0)" />
	<rect x="4" y="20" width="1" height="1" fill="rgb(169,169,169)" stroke-width="0.05" stroke="rgb(0,0,0)" />
	<rect x="4" y="19" width="1" height="1" fill="rgb(169,169,169)" stroke-width="0.05" stroke="rgb(0,0,0)" />
	<rect x="4" y="18" width="1" height="1" fill="rgb(169,169,169)" stroke-width="0.05" stroke="rgb(0,0,0)" />
	<rect x="4" y="17" width="1" height="1" fill="rgb(169,169,169)" stroke-width="0.05" stroke="rgb(0,0,0)" />
	<rect x="4" y="16" width="1" height="1" fill="rgb(169,169,169)" stroke-width="0.05" stroke="rgb(0,0,0)" />
	<rect x="4" y="15" width="1" height="1" fill="rgb(169,169,169)" stroke-width="0.05" stroke="rgb(0,0,0)" />
	<rect x="4" y="14" width="1" height="1" fill="rgb(169,169,169)" stroke-width="0.05" stroke="rgb(0,0,0)" />
	<rect x="4" y="13" width="1" height="1" fill="rgb(169,169,169)" stroke-width="0.05" stroke="rgb(0,0,0)" />
	<rect x="4" y="12" width="1" height="1" fill="rgb(169,169,169)" stroke-width="0.05" stroke="rgb(0,0,0)" />
	<rect x="4" y="11" width="1" height="1" fill="rgb(169,169,169)" stroke-width="0.05" stroke="rgb(0,0,0)" />
	<rect x="4" y="10" width="1" height="1" fill="rgb(169,169,169)" stroke-width="0.05" stroke="rgb(0,0,0)" />
	<rect x="4" y="9" width="1" height="1" fill="rgb(169,169,169)" stroke-width="0.05" stroke="rgb(0,0,0)" />
	<rect x="4" y="8" width="1" height="1" fill="rgb(169,169,169)" stroke-width="0.05" stroke="rgb(0,0,0)" />
	<rect x="4" y="7" width="1" height="1" fill="rgb(169,169,169)" stroke-width="0.05" stroke="rgb(0,0,0)" />
	<rect x="5" y="26" width="1" height="1" fill="rgb(169,169,169)" stroke-width="0.05" stroke="rgb(0,0,0)" />
	<rect x="5" y="25" width="1" height="1" fill="rgb(169,169,169)" stroke-width="0.05" stroke="rgb(0,0,0)" />
	<rect x="5" y="24" width="1" height="1" fill="rgb(169,169,169)" stroke-width="0.05" stroke="rgb(0,0,0)" />
	<rect x="5" y="23" width="1" height="1" fill="rgb(169,169,169)" stroke-width="0.05" stroke="rgb(0,0,0)" />
	<rect x="5" y="22" width="1" height="1" fill="rgb(169,169,169)" stroke-width="0.05" stroke="rgb(0,0,0)" />
	<rect x="5" y="20" width="1" height="1" fill="rgb(169,169,169)" stroke-width="0.05" stroke="rgb(0,0,0)" />
	<rect x="5" y="19" width="1" height="1" fill="rgb(169,169,169)" stroke-width="0.05" stroke="rgb(0,0,0)" />
	<rect x="5" y="18" width="1" height="1" fill="rgb(169,169,169)" stroke-width="0.05" stroke="rgb(0,0,0)" />
	<rect x="5" y="17" width="1" height="1" fill="rgb(169,169,169)" stroke-width="0.05" stroke="rgb(0,0,0)" />
	<rect x="5" y="16" width="1" height="1" fill="rgb(169,169,169)" stroke-width="0.05" stroke="rgb(0,0,0)" />
	<rect x="5" y="15" width="1" height="1" fill="rgb(169,169,169)" stroke-width="0.05" stroke="rgb(0,0,0)" />
	<rect x="5" y="14" width="1" height="1" fill="rgb(169,169,169)" stroke-width="0.05" stroke="rgb(0,0,0)" />
	<rect x="5" y="13" width="1" height="1" fill="rgb(169,169,169)" stroke-width="0.05" stroke="rgb(0,0,0)" />
	<rect x="5" y="12" width="1" height="1" fill="rgb(169,169,169)" stroke-width="0.05" stroke="rgb(0,0,0)" />
	<rect x="5" y="11" width="1" height="1" fill="rgb(169,169,169)" stroke-width="0.05" stroke="rgb(0,0,0)" />
	<rect x="5" y="10" width="1" height="1" fill="rgb(169,169,169)" stroke-width="0.05" stroke="rgb(0,0,0)" />
	<rect x="5" y="9" width="1" height="1" fill="rgb(169,169,169)" stroke-width="0.05" stroke="rgb(0,0,0)" />
	<rect x="6" y="26" width="1" height="1" fill="rgb(169,169,169)" stroke-width="0.05" stroke="rgb(0,0,0)" />
	<rect x="6" y="25" width="1" height="1" fill="rgb(169,169,169)" stroke-width="0.05" stroke="rgb(0,0,0)" />
	<rect x="6" y="24" width="1" height="1" fill="rgb(169,169,169)" stroke-width="0.05" stroke="rgb(0,0,0)" />
	<rect x="6" y="23" width="1" height="1" fill="rgb(169,169,169)" stroke-width="0.05" stroke="rgb(0,0,0)" />
	<rect x="6" y="22" width="1" height="1" fill="rgb(169,169,169)" stroke-width="0.05" stroke="rgb(0,0,0)" />
	<rect x="6" y="21" width="1" height="1" fill="rgb(169,169,169)" stroke-width="0.05" stroke="rgb(0,0,0)" />
	<rect x="6" y="20" width="1" height="1" fill="rgb(169,169,169)" stroke-width="0.05" stroke="rgb(0,0,0)" />
	<rect x="6" y="19" width="1" height="1" fill="rgb(169,169,169)" stroke-width="0.05" stroke="rgb(0,0,0)" />
	<rect x="6" y="18" width="1" height="1" fill="rgb(169,169,169)" stroke-width="0.05" stroke="rgb(0,0,0)" />
	<rect x="6" y="17" width="1" height="1" fill="rgb(169,169,169)" stroke-width="0.05" stroke="rgb(0,0,0)" />
	<rect x="6" y="16" width="1" height="1" fill="rgb(169,169,169)" stroke-width="0.05" stroke="rgb(0,0,0)" />
	<rect x="6" y="15" width="1" height="1" fill="rgb(169,169,169)" stroke-width="0.05" stroke="rgb(0,0,0)" />
	<rect x="6" y="14" width="1" height="1" fill="rgb(169,169,169)" stroke-width="0.05" stroke="rgb(0,0,0)" />
	<rect x="6" y="13" width="1" height="1" fill="rgb(169,169,169)" stroke-width="0.05" stroke="rgb(0,0,0)" />
	<rect x="6" y="12" width="1" height="1" fill="rgb(169,169,169)" stroke-width="0.05" stroke="rgb(0,0,0)" />
	<rect x="6" y="11" width="1" height="1" fill="rgb(169,169,169)" stroke-width="0.05" stroke="rgb(0,0,0)" />
	<rect x="6" y="10" width="1" height="1" fill="rgb(169,169,169)" stroke-width="0.05" stroke="rgb(0,0,0)" />
	<rect x="6" y="9" width="1" height="1" fill="rgb(169,169,169)" stroke-width="0.05" stroke="rgb(0,0,0)" />
	<rect x="6" y="8" width="1" height="1" fill="rgb(169,169,169)" stroke-width="0.05" stroke="rgb(0,0,0)" />
	<rect x="6" y="7" width="1" height="1" fill="rgb(169,169,169)" stroke-width="0.05" stroke="rgb(0,0,0)" />
	<rect x="7" y="26" width="1" height="1" fill="rgb(169,169,169)" stroke-width="0.05" stroke="rgb(0,0,0)" />
	<rect x="7" y="25" width="1" height="1" fill="rgb(169,169,169)" stroke-width="0.05" stroke="rgb(0,0,0)" />
	<rect x="7" y="24" width="1" height="1" fill="rgb(169,169,169)" stroke-width="0.05" stroke="rgb(0,0,0)" />
	<rect x="7" y="23" width="1" height="1" fill="rgb(169,169,169)" stroke-width="0.05" stroke="rgb(0,0,0)" />
	<rect x="7" y="22" width="1" height="1" fill="rgb(169,169,169)" stroke-width="0.05" stroke="rgb(0,0,0)" />
	<rect x="7" y="21" width="1" height="1" fill="rgb(169,169,169)" stroke-width="0.05" stroke="rgb(0,0,0)" />
	<rect x="7" y="20" width="1" height="1" fill="rgb(169,169,169)" stroke-width="0.05" stroke="rgb(0,0,0)" />
	<rect x="7" y="19" width="1" height="1" fill="rgb(169,169,169)" stroke-width="0.05" stroke="rgb(0,0,0)" />
	<rect x="7" y="18" width="1" height="1" fill="rgb(169,169,169)" stroke-width="0.05" stroke="rgb(0,0,0)" />
	<rect x="7" y="17" width="1" height="1" fill="rgb(169,169,169)" stroke-width="0.05" stroke="rgb(0,0,0)" />
	<rect x="7" y="16" width="1" height="1" fill="rgb(169,169,169)" stroke-width="0.05" stroke="rgb(0,0,0)" />
	<rect x="7" y="15" width="1" height="1" fill="rgb(169,169,169)" stroke-width="0.05" stroke="rgb(0,0,0)" />
	<rect x="7" y="14" width="1" height="1" fill="rgb(169,169,169)" stroke-width="0.05" stroke="rgb(0,0,0)" />
	<rect x="7" y="13" width="1" height="1" fill="rgb(169,169,169)" stroke-width="0.05" stroke="rgb(0,0,0)" />
	<rect x="7" y="10" width="1" height="1" fill="rgb(169,169,169)" stroke-width="0.05" stroke="rgb(0,0,0)" />
	<rect x="7" y="9" width="1" height="1" fill="rgb(169,169,169)" stroke-width="0.05" stroke="rgb(0,0,0)" />
	<rect x="7" y="8" width="1" height="1" fill="rgb(169,169,169)" stroke-width="0.05" stroke="rgb(0,0,0)" />
	<rect x="7" y="7" width="1" height="1" fill="rgb(169,169,169)" stroke-width="0.05" stroke="rgb(0,0,0)" />
	<rect x="8" y="26" width="1" height="1" fill="rgb(169,169,169)" stroke-width="0.05" stroke="rgb(0,0,0)" />
	<rect x="8" y="25" width="1" height="1" fill="rgb(169,169,169)" stroke-width="0.05" stroke="rgb(0,0,0)" />
	<rect x="8" y="24" width="1" height="1" fill="rgb(169,169,169)" stroke-width="0.05" stroke="rgb(0,0,0)" />
	<rect x="8" y="23" width="1" height="1" fill="rgb(169,169,169)" stroke-width="0.05" stroke="rgb(0,0,0)" />
	<rect x="8" y="22" width="1" height="1" fill="rgb(169,169,169)" stroke-width="0.05" stroke="rgb(0,0,0)" />
	<rect x="8" y="21" width="1" height="1" fill="rgb(169,169,169)" stroke-width="0.05" stroke="rgb(0,0,0)" />
	<rect x="8" y="20" width="1" height="1" fill="rgb(169,169,169)" stroke-width="0.05" stroke="rgb(0,0,0)" />
	<rect x="8" y="19" width="1" height="1" fill="rgb(169,169,169)" stroke-width="0.05" stroke="rgb(0,0,0)" />
	<rect x="8" y="18" width="1" height="1" fill="rgb(169,169,169)" stroke-width="0.05" stroke="rgb(0,0,0)" />
	<rect x="8" y="17" width="1" height="1" fill="rgb(169,169,169)" stroke-width="0.05" stroke="rgb(0,0,0)" />
	<rect x="8" y="16" width="1" height="1" fill="rgb(169,169,169)" stroke-width="0.05" stroke="rgb(0,0,0)" />
	<rect x="8" y="10" width="1" height="1" fill="rgb(169,169,169)" stroke-width="0.05" stroke="rgb(0,0,0)" />
	<rect x="8" y="9" width="1" height="1" fill="rgb(169,169,169)" stroke-width="0.05" stroke="rgb(0,0,0)" />
	<rect x="8" y="8" width="1" height="1" fill="rgb(169,169,169)" stroke-width="0.05" stroke="rgb(0,0,0)" />
	<rect x="8" y="7" width="1" height="1" fill="rgb(169,169,169)" stroke-width="0.05" stroke="rgb(0,0,0)" />
	<rect x="9" y="26" width="1" height="1" fill="rgb(169,169,169)" stroke-width="0.05" stroke="rgb(0,0,0)" />
	<rect x="9" y="25" width="1" height="1" fill="rgb(169,169,169)" stroke-width="0.05" stroke="rgb(0,0,0)" />
	<rect x="9" y="24" width="1" height="1" fill="rgb(169,169,169)" stroke-width="0.05" stroke="rgb(0,0,0)" />
	<rect x="9" y="23" width="1" height="1" fill="rgb(169,169,169)" stroke-width="0.05" stroke="rgb(0,0,0)" />
	<rect x="9" y="22" width="1" height="1" fill="rgb(169,169,169)" stroke-width="0.05" stroke="rgb(0,0,0)" />
	<rect x="9" y="21" width="1" height="1" fill="rgb(169,169,169)" stroke-width="0.05" stroke="rgb(0,0,0)" />
	<rect x="9" y="20" width="1" height="1" fill="rgb(169,169,169)" stroke-width="0.05" stroke="rgb(0,0,0)" />
	<rect x="9" y="19" width="1" height="1" fill="rgb(169,169,169)" stroke-width="0.05" stroke="rgb(0,0,0)" />
	<rect x="9" y="18" width="1" height="1" fill="rgb(169,169,169)" stroke-width="0.05" stroke="rgb(0,0,0)" />
	<rect x="9" y="17" width="1" height="1" fill="rgb(169,169,169)" stroke-width="0.05" stroke="rgb(0,0,0)" />
	<rect x="9" y="16" width="1" height="1" fill="rgb(169,169,169)" stroke-width="0.05" stroke="rgb(0,0,0)" />
	<rect x="9" y="10" width="1" height="1" fill="rgb(169,169,169)" stroke-width="0.05" stroke="rgb(0,0,0)" />
	<rect x="9" y="9" width="1" height="1" fill="rgb(169,169,169)" stroke-width="0.05" stroke="rgb(0,0,0)" />
	<rect x="9" y="8" width="1" height="1" fill="rgb(169,169,169)" stroke-width="0.05" stroke="rgb(0,0,0)" />
	<rect x="9" y="7" width="1" height="1" fill="rgb(169,169,169)" stroke-width="0.05" stroke="rgb(0,0,0)" />
	<rect x="10" y="22" width="1" height="1" fill="rgb(169,169,169)" stroke-width="0.05" stroke="rgb(0,0,0)" />
	<rect x="10" y="21" width="1" height="1" fill="rgb(169,169,169)" stroke-width="0.05" stroke="rgb(0,0,0)" />
	<rect x="10" y="20" width="1" height="1" fill="rgb(169,169,169)" stroke-width="0.05" stroke="rgb(0,0,0)" />
	<rect x="10" y="19" width="1" height="1" fill="rgb(169,169,169)" stroke-width="0.05" stroke="rgb(0,0,0)" />
	<rect x="10" y="18" width="1" height="1" fill="rgb(169,169,169)" stroke-width="0.05" stroke="rgb(0,0,0)" />
	<rect x="10" y="17" width="1" height="1" fill="rgb(169,169,169)" stroke-width="0.05" stroke="rgb(0,0,0)" />
	<rect x="10" y="16" width="1" height="1" fill="rgb(169,169,169)" stroke-width="0.05" stroke="rgb(0,0,0)" />
	<rect x="10" y="15" width="1" height="1" fill="rgb(169,169,169)" stroke-width="0.05" stroke="rgb(0,0,0)" />
	<rect x="10" y="14" width="1" height="1" fill="rgb(169,169,169)" stroke-width="0.05" stroke="rgb(0,0,0)" />
	<rect x="11" y="21" width="1" height="1" fill="rgb(169,169,169)" stroke-width="0.05" stroke="rgb(0,0,0)" />
	<rect x="11" y="20" width="1" height="1" fill="rgb(169,169,169)" stroke-width="0.05" stroke="rgb(0,0,0)" />
	<rect x="11" y="19" width="1" height="1" fill="rgb(169,169,169)" stroke-width="0.05" stroke="rgb(0,0,0)" />
	<rect x="11" y="18" width="1" height="1" fill="rgb(169,169,169)" stroke-width="0.05" stroke="rgb(0,0,0)" />
	<rect x="11" y="17" width="1" height="1" fill="rgb(169,169,169)" stroke-width="0.05" stroke="rgb(0,0,0)" />
	<rect x="11" y="16" width="1" height="1" fill="rgb(169,169,169)" stroke-width="0.05" stroke="rgb(0,0,0)" />
	<rect x="11" y="15" width="1" height="1" fill="rgb(169,169,169)" stroke-width="0.05" stroke="rgb(0,0,0)" />
	<rect x="11" y="14" width="1" height="1" fill="rgb(169,169,169)" stroke-width="0.05" stroke="rgb(0,0,0)" />
	<rect x="11" y="13" width="1" height="1" fill="rgb(169,169,169)" stroke-width="0.05" stroke="rgb(0,0,0)" />
	<rect x="12" y="21" width="1" height="1" fill="rgb(169,169,169)" stroke-width="0.05" stroke="rgb(0,0,0)" />
	<rect x="12" y="20" width="1" height="1" fill="rgb(169,169,169)" stroke-width="0.05" stroke="rgb(0,0,0)" />
	<rect x="12" y="19" width="1" height="1" fill="rgb(169,169,169)" stroke-width="0.05" stroke="rgb(0,0,0)" />
	<rect x="12" y="18" width="1" height="1" fill="rgb(169,169,169)" stroke-width="0.05" stroke="rgb(0,0,0)" />
	<rect x="12" y="17" width="1" height="1" fill="rgb(169,169,169)" stroke-width="0.05" stroke="rgb(0,0,0)" />
	<rect x="12" y="16" width="1" height="1" fill="rgb(169,169,169)" stroke-width="0.05" stroke="rgb(0,0,0)" />
	<rect x="12" y="15" width="1" height="1" fill="rgb(169,169,169)" stroke-width="0.05" stroke="rgb(0,0,0)" />
	<rect x="12" y="14" width="1" height="1" fill="rgb(169,169,169)" stroke-width="0.05" stroke="rgb(0,0,0)" />
	<rect x="12" y="13" width="1" height="1" fill="rgb(169,169,169)" stroke-width="0.05" stroke="rgb(0,0,0)" />
	<rect x="12" y="12" width="1" height="1" fill="rgb(169,169,169)" stroke-width="0.05" stroke="rgb(0,0,0)" />
	<rect x="12" y="11" width="1" height="1" fill="rgb(169,169,169)" stroke-width="0.05" stroke="rgb(0,0,0)" />
	<rect x="12" y="10" width="1" height="1" fill="rgb(169,169,169)" stroke-width="0.05" stroke="rgb(0,0,0)" />
	<rect x="13" y="21" width="1" height="1" fill="rgb(169,169,169)" stroke-width="0.05" stroke="rgb(0,0,0)" />
	<rect x="13" y="20" width="1" height="1" fill="rgb(169,169,169)" stroke-width="0.05" stroke="rgb(0,0,0)" />
	<rect x="13" y="19" width="1" height="1" fill="rgb(169,169,169)" stroke-width="0.05" stroke="rgb(0,0,0)" />
	<rect x="13" y="18" width="1" height="1" fill="rgb(169,169,169)" stroke-width="0.05" stroke="rgb(0,0,0)" />
	<rect x="13" y="17" width="1" height="1" fill="rgb(169,169,169)" stroke-width="0.05" stroke="rgb(0,0,0)" />
	<rect x="13" y="16" width="1" height="1" fill="rgb(169,169,169)" stroke-width="0.05" stroke="rgb(0,0,0)" />
	<rect x="13" y="15" width="1" height="1" fill="rgb(169,169,169)" stroke-width="0.05" stroke="rgb(0,0,0)" />
	<rect x="13" y="14" width="1" height="1" fill="rgb(169,169,169)" stroke-width="0.05" stroke="rgb(0,0,0)" />
	<rect x="13" y="13" width="1" height="1" fill="rgb(169,169,169)" stroke-width="0.05" stroke="rgb(0,0,0)" />
	<rect x="13" y="12" width="1" height="1" fill="rgb(169,169,169)" stroke-width="0.05" stroke="rgb(0,0,0)" />
	<rect x="13" y="11" width="1" height="1" fill="rgb(169,169,169)" stroke-width="0.05" stroke="rgb(0,0,0)" />
	<rect x="13" y="10" width="1" height="1" fill="rgb(169,169,169)" stroke-width="0.05" stroke="rgb(0,0,0)" />
	<rect x="14" y="21" width="1" height="1" fill="rgb(169,169,169)" stroke-width="0.05" stroke="rgb(0,0,0)" />
	<rect x="14" y="20" width="1" height="1" fill="rgb(169,169,169)" stroke-width="0.05" stroke="rgb(0,0,0)" />
	<rect x="14" y="19" width="1" height="1" fill="rgb(169,169,169)" stroke-width="0.05" stroke="rgb(0,0,0)" />
	<rect x="14" y="18" width="1" height="1" fill="rgb(169,169,169)" stroke-width="0.05" stroke="rgb(0,0,0)" />
	<rect x="14" y="17" width="1" height="1" fill="rgb(169,169,169)" stroke-width="0.05" stroke="rgb(0,0,0)" />
	<rect x="14" y="15" width="1" height="1" fill="rgb(169,169,169)" stroke-width="0.05" stroke="rgb(0,0,0)" />
	<rect x="14" y="14" width="1" height="1" fill="rgb(169,169,169)" stroke-width="0.05" stroke="rgb(0,0,0)" />
	<rect x="14" y="13" width="1" height="1" fill="rgb(169,169,169)" stroke-width="0.05" stroke="rgb(0,0,0)" />
	<rect x="14" y="12" width="1" height="1" fill="rgb(169,169,169)" stroke-width="0.05" stroke="rgb(0,0,0)" />
	<rect x="14" y="11" width="1" height="1" fill="rgb(169,169,169)" stroke-width="0.05" stroke="rgb(0,0,0)" />
	<rect x="14" y="10" width="1" height="1" fill="rgb(169,169,169)" stroke-width="0.05" stroke="rgb(0,0,0)" />
</svg>
