<?xml version="1.0" standalone="no" ?>
<!DOCTYPE svg PUBLIC "-//W3C//DTD SVG 1.1//EN" "http://www.w3.org/Graphics/SVG/1.1/DTD/svg11.dtd">
<svg width="92px" height="21px" xmlns="http://www.w3.org/2000/svg" version="1.1" >
	<rect x="1" y="12" width="1" height="1" fill="rgb(169,169,169)" stroke-width="0.05" stroke="rgb(0,0,0)" />
	<rect x="2" y="12" width="1" height="1" fill="rgb(169,169,169)" stroke-width="0.05" stroke="rgb(0,0,0)" />
	<rect x="3" y="12" width="1" height="1" fill="rgb(169,169,169)" stroke-width="0.05" stroke="rgb(0,0,0)" />
	<rect x="4" y="12" width="1" height="1" fill="rgb(169,169,169)" stroke-width="0.05" stroke="rgb(0,0,0)" />
	<rect x="5" y="12" width="1" height="1" fill="rgb(169,169,169)" stroke-width="0.05" stroke="rgb(0,0,0)" />
	<rect x="6" y="12" width="1" height="1" fill="rgb(169,169,169)" stroke-width="0.05" stroke="rgb(0,0,0)" />
	<rect x="7" y="12" width="1" height="1" fill="rgb(169,169,169)" stroke-width="0.05" stroke="rgb(0,0,0)" />
	<rect x="8" y="12" width="1" height="1" fill="rgb(169,169,169)" stroke-width="0.05" stroke="rgb(0,0,0)" />
	<rect x="9" y="12" width="1" height="1" fill="rgb(169,169,169)" stroke-width="0.05" stroke="rgb(0,0,0)" />
	<rect x="10" y="19" width="1" height="1" fill="rgb(169,169,169)" stroke-width="0.05" stroke="rgb(0,0,0)" />
	<rect x="10" y="18" width="1" height="1" fill="rgb(169,169,169)" stroke-width="0.05" stroke="rgb(0,0,0)" />
	<rect x="10" y="17" width="1" height="1" fill="rgb(169,169,169)" stroke-width="0.05" stroke="rgb(0,0,0)" />
	<rect x="10" y="16" width="1" height="1" fill="rgb(169,169,169)" stroke-width="0.05" stroke="rgb(0,0,0)" />
	<rect x="10" y="15" width="1" height="1" fill="rgb(169,169,169)" stroke-width="0.05" stroke="rgb(0,0,0)" />
	<rect x="10" y="14" width="1" height="1" fill="rgb(169,169,169)" stroke-width="0.05" stroke="rgb(0,0,0)" />
	<rect x="10" y="13" width="1" height="1" fill="rgb(169,169,169)" stroke-width="0.05" stroke="rgb(0,0,0)" />
	<rect x="10" y="12" width="1" height="1" fill="rgb(169,169,169)" stroke-width="0.05" stroke="rgb(0,0,0)" />
	<rect x="10" y="11" width="1" height="1" fill="rgb(169,169,169)" stroke-width="0.05" stroke="rgb(0,0,0)" />
	<rect x="10" y="10" width="1" height="1" fill="rgb(169,169,169)" stroke-width="0.05" stroke="rgb(0,0,0)" />
	<rect x="10" y="9" width="1" height="1" fill="rgb(169,169,169)" stroke-width="0.05" stroke="rgb(0,0,0)" />
	<rect x="10" y="8" width="1" height="1" fill="rgb(169,169,169)" stroke-width="0.05" stroke="rgb(0,0,0)" />
	<rect x="10" y="7" width="1" height="1" fill="rgb(169,169,169)" stroke-width="0.05" stroke="rgb(0,0,0)" />
	<rect x="10" y="6" width="1" height="1" fill="rgb(169,169,169)" stroke-width="0.05" stroke="rgb(0,0,0)" />
	<rect x="10" y="5" width="1" height="1" fill="rgb(169,169,169)" stroke-width="0.05" stroke="rgb(0,0,0)" />
	<rect x="11" y="19" width="1" height="1" fill="rgb(169,169,169)" stroke-width="0.05" stroke="rgb(0,0,0)" />
	<rect x="11" y="18" width="1" height="1" fill="rgb(169,169,169)" stroke-width="0.05" stroke="rgb(0,0,0)" />
	<rect x="11" y="17" width="1" height="1" fill="rgb(169,169,169)" stroke-width="0.05" stroke="rgb(0,0,0)" />
	<rect x="11" y="16" width="1" height="1" fill="rgb(169,169,169)" stroke-width="0.05" stroke="rgb(0,0,0)" />
	<rect x="11" y="15" width="1" height="1" fill="rgb(169,169,169)" stroke-width="0.05" stroke="rgb(0,0,0)" />
	<rect x="11" y="14" width="1" height="1" fill="rgb(169,169,169)" stroke-width="0.05" stroke="rgb(0,0,0)" />
	<rect x="11" y="13" width="1" height="1" fill="rgb(169,169,169)" stroke-width="0.05" stroke="rgb(0,0,0)" />
	<rect x="11" y="12" width="1" height="1" fill="rgb(169,169,169)" stroke-width="0.05" stroke="rgb(0,0,0)" />
	<rect x="11" y="11" width="1" height="1" fill="rgb(169,169,169)" stroke-width="0.05" stroke="rgb(0,0,0)" />
	<rect x="11" y="10" width="1" height="1" fill="rgb(169,169,169)" stroke-width="0.05" stroke="rgb(0,0,0)" />
	<rect x="11" y="9" width="1" height="1" fill="rgb(169,169,169)" stroke-width="0.05" stroke="rgb(0,0,0)" />
	<rect x="11" y="8" width="1" height="1" fill="rgb(169,169,169)" stroke-width="0.05" stroke="rgb(0,0,0)" />
	<rect x="11" y="7" width="1" height="1" fill="rgb(169,169,169)" stroke-width="0.05" stroke="rgb(0,0,0)" />
	<rect x="11" y="6" width="1" height="1" fill="rgb(169,169,169)" stroke-width="0.05" stroke="rgb(0,0,0)" />
	<rect x="11" y="5" width="1" height="1" fill="rgb(169,169,169)" stroke-width="0.05" stroke="rgb(0,0,0)" />
	<rect x="12" y="19" width="1" height="1" fill="rgb(169,169,169)" stroke-width="0.05" stroke="rgb(0,0,0)" />
	<rect x="12" y="18" width="1" height="1" fill="rgb(169,169,169)" stroke-width="0.05" stroke="rgb(0,0,0)" />
	<rect x="12" y="17" width="1" height="1" fill="rgb(169,169,169)" stroke-width="0.05" stroke="rgb(0,0,0)" />
	<rect x="12" y="16" width="1" height="1" fill="rgb(169,169,169)" stroke-width="0.05" stroke="rgb(0,0,0)" />
	<rect x="12" y="15" width="1" height="1" fill="rgb(169,169,169)" stroke-width="0.05" stroke="rgb(0,0,0)" />
	<rect x="12" y="14" width="1" height="1" fill="rgb(169,169,169)" stroke-width="0.05" stroke="rgb(0,0,0)" />
	<rect x="12" y="13" width="1" height="1" fill="rgb(169,169,169)" stroke-width="0.05" stroke="rgb(0,0,0)" />
	<rect x="12" y="12" width="1" height="1" fill="rgb(169,169,169)" stroke-width="0.05" stroke="rgb(0,0,0)" />
	<rect x="12" y="11" width="1" height="1" fill="rgb(169,169,169)" stroke-width="0.05" stroke="rgb(0,0,0)" />
	<rect x="12" y="10" width="1" height="1" fill="rgb(169,169,169)" stroke-width="0.05" stroke="rgb(0,0,0)" />
	<rect x="12" y="9" width="1" height="1" fill="rgb(169,169,169)" stroke-width="0.05" stroke="rgb(0,0,0)" />
	<rect x="12" y="8" width="1" height="1" fill="rgb(169,169,169)" stroke-width="0.05" stroke="rgb(0,0,0)" />
	<rect x="12" y="7" width="1" height="1" fill="rgb(169,169,169)" stroke-width="0.05" stroke="rgb(0,0,0)" />
	<rect x="12" y="6" width="1" height="1" fill="rgb(169,169,169)" stroke-width="0.05" stroke="rgb(0,0,0)" />
	<rect x="12" y="5" width="1" height="1" fill="rgb(169,169,169)" stroke-width="0.05" stroke="rgb(0,0,0)" />
	<rect x="13" y="12" width="1" height="1" fill="rgb(169,169,169)" stroke-width="0.05" stroke="rgb(0,0,0)" />
	<rect x="14" y="12" width="1" height="1" fill="rgb(169,169,169)" stroke-width="0.05" stroke="rgb(0,0,0)" />
	<rect x="14" y="8" width="1" height="1" fill="rgb(169,169,169)" stroke-width="0.05" stroke="rgb(0,0,0)" />
	<rect x="14" y="7" width="1" height="1" fill="rgb(169,169,169)" stroke-width="0.05" stroke="rgb(0,0,0)" />
	<rect x="14" y="6" width="1" height="1" fill="rgb(169,169,169)" stroke-width="0.05" stroke="rgb(0,0,0)" />
	<rect x="14" y="5" width="1" height="1" fill="rgb(169,169,169)" stroke-width="0.05" stroke="rgb(0,0,0)" />
	<rect x="14" y="4" width="1" height="1" fill="rgb(169,169,169)" stroke-width="0.05" stroke="rgb(0,0,0)" />
	<rect x="14" y="3" width="1" height="1" fill="rgb(169,169,169)" stroke-width="0.05" stroke="rgb(0,0,0)" />
	<rect x="14" y="2" width="1" height="1" fill="rgb(169,169,169)" stroke-width="0.05" stroke="rgb(0,0,0)" />
	<rect x="14" y="1" width="1" height="1" fill="rgb(169,169,169)" stroke-width="0.05" stroke="rgb(0,0,0)" />
	<rect x="15" y="12" width="1" height="1" fill="rgb(169,169,169)" stroke-width="0.05" stroke="rgb(0,0,0)" />
	<rect x="15" y="8" width="1" height="1" fill="rgb(169,169,169)" stroke-width="0.05" stroke="rgb(0,0,0)" />
	<rect x="15" y="7" width="1" height="1" fill="rgb(169,169,169)" stroke-width="0.05" stroke="rgb(0,0,0)" />
	<rect x="15" y="6" width="1" height="1" fill="rgb(169,169,169)" stroke-width="0.05" stroke="rgb(0,0,0)" />
	<rect x="15" y="5" width="1" height="1" fill="rgb(169,169,169)" stroke-width="0.05" stroke="rgb(0,0,0)" />
	<rect x="15" y="4" width="1" height="1" fill="rgb(169,169,169)" stroke-width="0.05" stroke="rgb(0,0,0)" />
	<rect x="15" y="3" width="1" height="1" fill="rgb(169,169,169)" stroke-width="0.05" stroke="rgb(0,0,0)" />
	<rect x="15" y="2" width="1" height="1" fill="rgb(169,169,169)" stroke-width="0.05" stroke="rgb(0,0,0)" />
	<rect x="15" y="1" width="1" height="1" fill="rgb(169,169,169)" stroke-width="0.05" stroke="rgb(0,0,0)" />
	<rect x="16" y="12" width="1" height="1" fill="rgb(169,169,169)" stroke-width="0.05" stroke="rgb(0,0,0)" />
	<rect x="16" y="8" width="1" height="1" fill="rgb(169,169,169)" stroke-width="0.05" stroke="rgb(0,0,0)" />
	<rect x="16" y="7" width="1" height="1" fill="rgb(169,169,169)" stroke-width="0.05" stroke="rgb(0,0,0)" />
	<rect x="16" y="6" width="1" height="1" fill="rgb(169,169,169)" stroke-width="0.05" stroke="rgb(0,0,0)" />
	<rect x="16" y="5" width="1" height="1" fill="rgb(169,169,169)" stroke-width="0.05" stroke="rgb(0,0,0)" />
	<rect x="16" y="4" width="1" height="1" fill="rgb(169,169,169)" stroke-width="0.05" stroke="rgb(0,0,0)" />
	<rect x="16" y="3" width="1" height="1" fill="rgb(169,169,169)" stroke-width="0.05" stroke="rgb(0,0,0)" />
	<rect x="16" y="2" width="1" height="1" fill="rgb(169,169,169)" stroke-width="0.05" stroke="rgb(0,0,0)" />
	<rect x="16" y="1" width="1" height="1" fill="rgb(169,169,169)" stroke-width="0.05" stroke="rgb(0,0,0)" />
	<rect x="17" y="12" width="1" height="1" fill="rgb(169,169,169)" stroke-width="0.05" stroke="rgb(0,0,0)" />
	<rect x="17" y="8" width="1" height="1" fill="rgb(169,169,169)" stroke-width="0.05" stroke="rgb(0,0,0)" />
	<rect x="17" y="7" width="1" height="1" fill="rgb(169,169,169)" stroke-width="0.05" stroke="rgb(0,0,0)" />
	<rect x="17" y="6" width="1" height="1" fill="rgb(169,169,169)" stroke-width="0.05" stroke="rgb(0,0,0)" />
	<rect x="17" y="5" width="1" height="1" fill="rgb(169,169,169)" stroke-width="0.05" stroke="rgb(0,0,0)" />
	<rect x="17" y="4" width="1" height="1" fill="rgb(169,169,169)" stroke-width="0.05" stroke="rgb(0,0,0)" />
	<rect x="17" y="3" width="1" height="1" fill="rgb(169,169,169)" stroke-width="0.05" stroke="rgb(0,0,0)" />
	<rect x="17" y="2" width="1" height="1" fill="rgb(169,169,169)" stroke-width="0.05" stroke="rgb(0,0,0)" />
	<rect x="17" y="1" width="1" height="1" fill="rgb(169,169,169)" stroke-width="0.05" stroke="rgb(0,0,0)" />
	<rect x="18" y="20" width="1" height="1" fill="rgb(169,169,169)" stroke-width="0.05" stroke="rgb(0,0,0)" />
	<rect x="18" y="19" width="1" height="1" fill="rgb(169,169,169)" stroke-width="0.05" stroke="rgb(0,0,0)" />
	<rect x="18" y="18" width="1" height="1" fill="rgb(169,169,169)" stroke-width="0.05" stroke="rgb(0,0,0)" />
	<rect x="18" y="17" width="1" height="1" fill="rgb(169,169,169)" stroke-width="0.05" stroke="rgb(0,0,0)" />
	<rect x="18" y="16" width="1" height="1" fill="rgb(169,169,169)" stroke-width="0.05" stroke="rgb(0,0,0)" />
	<rect x="18" y="15" width="1" height="1" fill="rgb(169,169,169)" stroke-width="0.05" stroke="rgb(0,0,0)" />
	<rect x="18" y="14" width="1" height="1" fill="rgb(169,169,169)" stroke-width="0.05" stroke="rgb(0,0,0)" />
	<rect x="18" y="13" width="1" height="1" fill="rgb(169,169,169)" stroke-width="0.05" stroke="rgb(0,0,0)" />
	<rect x="18" y="12" width="1" height="1" fill="rgb(169,169,169)" stroke-width="0.05" stroke="rgb(0,0,0)" />
	<rect x="18" y="11" width="1" height="1" fill="rgb(169,169,169)" stroke-width="0.05" stroke="rgb(0,0,0)" />
	<rect x="18" y="10" width="1" height="1" fill="rgb(169,169,169)" stroke-width="0.05" stroke="rgb(0,0,0)" />
	<rect x="18" y="9" width="1" height="1" fill="rgb(169,169,169)" stroke-width="0.05" stroke="rgb(0,0,0)" />
	<rect x="18" y="8" width="1" height="1" fill="rgb(169,169,169)" stroke-width="0.05" stroke="rgb(0,0,0)" />
	<rect x="18" y="7" width="1" height="1" fill="rgb(169,169,169)" stroke-width="0.05" stroke="rgb(0,0,0)" />
	<rect x="18" y="6" width="1" height="1" fill="rgb(169,169,169)" stroke-width="0.05" stroke="rgb(0,0,0)" />
	<rect x="18" y="5" width="1" height="1" fill="rgb(169,169,169)" stroke-width="0.05" stroke="rgb(0,0,0)" />
	<rect x="18" y="4" width="1" height="1" fill="rgb(169,169,169)" stroke-width="0.05" stroke="rgb(0,0,0)" />
	<rect x="18" y="3" width="1" height="1" fill="rgb(169,169,169)" stroke-width="0.05" stroke="rgb(0,0,0)" />
	<rect x="18" y="2" width="1" height="1" fill="rgb(169,169,169)" stroke-width="0.05" stroke="rgb(0,0,0)" />
	<rect x="18" y="1" width="1" height="1" fill="rgb(169,169,169)" stroke-width="0.05" stroke="rgb(0,0,0)" />
	<rect x="19" y="20" width="1" height="1" fill="rgb(169,169,169)" stroke-width="0.05" stroke="rgb(0,0,0)" />
	<rect x="19" y="19" width="1" height="1" fill="rgb(169,169,169)" stroke-width="0.05" stroke="rgb(0,0,0)" />
	<rect x="19" y="18" width="1" height="1" fill="rgb(169,169,169)" stroke-width="0.05" stroke="rgb(0,0,0)" />
	<rect x="19" y="17" width="1" height="1" fill="rgb(169,169,169)" stroke-width="0.05" stroke="rgb(0,0,0)" />
	<rect x="19" y="16" width="1" height="1" fill="rgb(169,169,169)" stroke-width="0.05" stroke="rgb(0,0,0)" />
	<rect x="19" y="15" width="1" height="1" fill="rgb(169,169,169)" stroke-width="0.05" stroke="rgb(0,0,0)" />
	<rect x="19" y="14" width="1" height="1" fill="rgb(169,169,169)" stroke-width="0.05" stroke="rgb(0,0,0)" />
	<rect x="19" y="13" width="1" height="1" fill="rgb(169,169,169)" stroke-width="0.05" stroke="rgb(0,0,0)" />
	<rect x="19" y="12" width="1" height="1" fill="rgb(169,169,169)" stroke-width="0.05" stroke="rgb(0,0,0)" />
	<rect x="19" y="11" width="1" height="1" fill="rgb(169,169,169)" stroke-width="0.05" stroke="rgb(0,0,0)" />
	<rect x="19" y="10" width="1" height="1" fill="rgb(169,169,169)" stroke-width="0.05" stroke="rgb(0,0,0)" />
	<rect x="19" y="9" width="1" height="1" fill="rgb(169,169,169)" stroke-width="0.05" stroke="rgb(0,0,0)" />
	<rect x="19" y="8" width="1" height="1" fill="rgb(169,169,169)" stroke-width="0.05" stroke="rgb(0,0,0)" />
	<rect x="19" y="7" width="1" height="1" fill="rgb(169,169,169)" stroke-width="0.05" stroke="rgb(0,0,0)" />
	<rect x="19" y="6" width="1" height="1" fill="rgb(169,169,169)" stroke-width="0.05" stroke="rgb(0,0,0)" />
	<rect x="19" y="5" width="1" height="1" fill="rgb(169,169,169)" stroke-width="0.05" stroke="rgb(0,0,0)" />
	<rect x="19" y="4" width="1" height="1" fill="rgb(169,169,169)" stroke-width="0.05" stroke="rgb(0,0,0)" />
	<rect x="19" y="3" width="1" height="1" fill="rgb(169,169,169)" stroke-width="0.05" stroke="rgb(0,0,0)" />
	<rect x="19" y="2" width="1" height="1" fill="rgb(169,169,169)" stroke-width="0.05" stroke="rgb(0,0,0)" />
	<rect x="19" y="1" width="1" height="1" fill="rgb(169,169,169)" stroke-width="0.05" stroke="rgb(0,0,0)" />
	<rect x="20" y="20" width="1" height="1" fill="rgb(169,169,169)" stroke-width="0.05" stroke="rgb(0,0,0)" />
	<rect x="20" y="19" width="1" height="1" fill="rgb(169,169,169)" stroke-width="0.05" stroke="rgb(0,0,0)" />
	<rect x="20" y="18" width="1" height="1" fill="rgb(169,169,169)" stroke-width="0.05" stroke="rgb(0,0,0)" />
	<rect x="20" y="17" width="1" height="1" fill="rgb(169,169,169)" stroke-width="0.05" stroke="rgb(0,0,0)" />
	<rect x="20" y="16" width="1" height="1" fill="rgb(169,169,169)" stroke-width="0.05" stroke="rgb(0,0,0)" />
	<rect x="20" y="15" width="1" height="1" fill="rgb(169,169,169)" stroke-width="0.05" stroke="rgb(0,0,0)" />
	<rect x="20" y="14" width="1" height="1" fill="rgb(169,169,169)" stroke-width="0.05" stroke="rgb(0,0,0)" />
	<rect x="20" y="13" width="1" height="1" fill="rgb(169,169,169)" stroke-width="0.05" stroke="rgb(0,0,0)" />
	<rect x="20" y="12" width="1" height="1" fill="rgb(169,169,169)" stroke-width="0.05" stroke="rgb(0,0,0)" />
	<rect x="20" y="11" width="1" height="1" fill="rgb(169,169,169)" stroke-width="0.05" stroke="rgb(0,0,0)" />
	<rect x="20" y="10" width="1" height="1" fill="rgb(169,169,169)" stroke-width="0.05" stroke="rgb(0,0,0)" />
	<rect x="20" y="9" width="1" height="1" fill="rgb(169,169,169)" stroke-width="0.05" stroke="rgb(0,0,0)" />
	<rect x="20" y="8" width="1" height="1" fill="rgb(169,169,169)" stroke-width="0.05" stroke="rgb(0,0,0)" />
	<rect x="20" y="7" width="1" height="1" fill="rgb(169,169,169)" stroke-width="0.05" stroke="rgb(0,0,0)" />
	<rect x="20" y="6" width="1" height="1" fill="rgb(169,169,169)" stroke-width="0.05" stroke="rgb(0,0,0)" />
	<rect x="20" y="5" width="1" height="1" fill="rgb(169,169,169)" stroke-width="0.05" stroke="rgb(0,0,0)" />
	<rect x="20" y="4" width="1" height="1" fill="rgb(169,169,169)" stroke-width="0.05" stroke="rgb(0,0,0)" />
	<rect x="20" y="3" width="1" height="1" fill="rgb(169,169,169)" stroke-width="0.05" stroke="rgb(0,0,0)" />
	<rect x="20" y="2" width="1" height="1" fill="rgb(169,169,169)" stroke-width="0.05" stroke="rgb(0,0,0)" />
	<rect x="20" y="1" width="1" height="1" fill="rgb(169,169,169)" stroke-width="0.05" stroke="rgb(0,0,0)" />
	<rect x="21" y="20" width="1" height="1" fill="rgb(169,169,169)" stroke-width="0.05" stroke="rgb(0,0,0)" />
	<rect x="21" y="19" width="1" height="1" fill="rgb(169,169,169)" stroke-width="0.05" stroke="rgb(0,0,0)" />
	<rect x="21" y="18" width="1" height="1" fill="rgb(169,169,169)" stroke-width="0.05" stroke="rgb(0,0,0)" />
	<rect x="21" y="17" width="1" height="1" fill="rgb(169,169,169)" stroke-width="0.05" stroke="rgb(0,0,0)" />
	<rect x="21" y="16" width="1" height="1" fill="rgb(169,169,169)" stroke-width="0.05" stroke="rgb(0,0,0)" />
	<rect x="21" y="15" width="1" height="1" fill="rgb(169,169,169)" stroke-width="0.05" stroke="rgb(0,0,0)" />
	<rect x="21" y="14" width="1" height="1" fill="rgb(169,169,169)" stroke-width="0.05" stroke="rgb(0,0,0)" />
	<rect x="21" y="13" width="1" height="1" fill="rgb(169,169,169)" stroke-width="0.05" stroke="rgb(0,0,0)" />
	<rect x="21" y="12" width="1" height="1" fill="rgb(169,169,169)" stroke-width="0.05" stroke="rgb(0,0,0)" />
	<rect x="21" y="11" width="1" height="1" fill="rgb(169,169,169)" stroke-width="0.05" stroke="rgb(0,0,0)" />
	<rect x="21" y="10" width="1" height="1" fill="rgb(169,169,169)" stroke-width="0.05" stroke="rgb(0,0,0)" />
	<rect x="21" y="9" width="1" height="1" fill="rgb(169,169,169)" stroke-width="0.05" stroke="rgb(0,0,0)" />
	<rect x="21" y="8" width="1" height="1" fill="rgb(169,169,169)" stroke-width="0.05" stroke="rgb(0,0,0)" />
	<rect x="21" y="7" width="1" height="1" fill="rgb(169,169,169)" stroke-width="0.05" stroke="rgb(0,0,0)" />
	<rect x="21" y="6" width="1" height="1" fill="rgb(169,169,169)" stroke-width="0.05" stroke="rgb(0,0,0)" />
	<rect x="21" y="5" width="1" height="1" fill="rgb(169,169,169)" stroke-width="0.05" stroke="rgb(0,0,0)" />
	<rect x="21" y="4" width="1" height="1" fill="rgb(169,169,169)" stroke-width="0.05" stroke="rgb(0,0,0)" />
	<rect x="21" y="3" width="1" height="1" fill="rgb(169,169,169)" stroke-width="0.05" stroke="rgb(0,0,0)" />
	<rect x="21" y="2" width="1" height="1" fill="rgb(169,169,169)" stroke-width="0.05" stroke="rgb(0,0,0)" />
	<rect x="21" y="1" width="1" height="1" fill="rgb(169,169,169)" stroke-width="0.05" stroke="rgb(0,0,0)" />
	<rect x="22" y="12" width="1" height="1" fill="rgb(169,169,169)" stroke-width="0.05" stroke="rgb(0,0,0)" />
	<rect x="22" y="8" width="1" height="1" fill="rgb(169,169,169)" stroke-width="0.05" stroke="rgb(0,0,0)" />
	<rect x="22" y="7" width="1" height="1" fill="rgb(169,169,169)" stroke-width="0.05" stroke="rgb(0,0,0)" />
	<rect x="22" y="6" width="1" height="1" fill="rgb(169,169,169)" stroke-width="0.05" stroke="rgb(0,0,0)" />
	<rect x="22" y="5" width="1" height="1" fill="rgb(169,169,169)" stroke-width="0.05" stroke="rgb(0,0,0)" />
	<rect x="22" y="4" width="1" height="1" fill="rgb(169,169,169)" stroke-width="0.05" stroke="rgb(0,0,0)" />
	<rect x="22" y="3" width="1" height="1" fill="rgb(169,169,169)" stroke-width="0.05" stroke="rgb(0,0,0)" />
	<rect x="22" y="2" width="1" height="1" fill="rgb(169,169,169)" stroke-width="0.05" stroke="rgb(0,0,0)" />
	<rect x="22" y="1" width="1" height="1" fill="rgb(169,169,169)" stroke-width="0.05" stroke="rgb(0,0,0)" />
	<rect x="23" y="12" width="1" height="1" fill="rgb(169,169,169)" stroke-width="0.05" stroke="rgb(0,0,0)" />
	<rect x="23" y="8" width="1" height="1" fill="rgb(169,169,169)" stroke-width="0.05" stroke="rgb(0,0,0)" />
	<rect x="23" y="7" width="1" height="1" fill="rgb(169,169,169)" stroke-width="0.05" stroke="rgb(0,0,0)" />
	<rect x="23" y="6" width="1" height="1" fill="rgb(169,169,169)" stroke-width="0.05" stroke="rgb(0,0,0)" />
	<rect x="23" y="5" width="1" height="1" fill="rgb(169,169,169)" stroke-width="0.05" stroke="rgb(0,0,0)" />
	<rect x="23" y="4" width="1" height="1" fill="rgb(169,169,169)" stroke-width="0.05" stroke="rgb(0,0,0)" />
	<rect x="23" y="3" width="1" height="1" fill="rgb(169,169,169)" stroke-width="0.05" stroke="rgb(0,0,0)" />
	<rect x="23" y="2" width="1" height="1" fill="rgb(169,169,169)" stroke-width="0.05" stroke="rgb(0,0,0)" />
	<rect x="23" y="1" width="1" height="1" fill="rgb(169,169,169)" stroke-width="0.05" stroke="rgb(0,0,0)" />
	<rect x="24" y="12" width="1" height="1" fill="rgb(169,169,169)" stroke-width="0.05" stroke="rgb(0,0,0)" />
	<rect x="24" y="8" width="1" height="1" fill="rgb(169,169,169)" stroke-width="0.05" stroke="rgb(0,0,0)" />
	<rect x="24" y="7" width="1" height="1" fill="rgb(169,169,169)" stroke-width="0.05" stroke="rgb(0,0,0)" />
	<rect x="24" y="6" width="1" height="1" fill="rgb(169,169,169)" stroke-width="0.05" stroke="rgb(0,0,0)" />
	<rect x="24" y="5" width="1" height="1" fill="rgb(169,169,169)" stroke-width="0.05" stroke="rgb(0,0,0)" />
	<rect x="24" y="4" width="1" height="1" fill="rgb(169,169,169)" stroke-width="0.05" stroke="rgb(0,0,0)" />
	<rect x="24" y="3" width="1" height="1" fill="rgb(169,169,169)" stroke-width="0.05" stroke="rgb(0,0,0)" />
	<rect x="24" y="2" width="1" height="1" fill="rgb(169,169,169)" stroke-width="0.05" stroke="rgb(0,0,0)" />
	<rect x="24" y="1" width="1" height="1" fill="rgb(169,169,169)" stroke-width="0.05" stroke="rgb(0,0,0)" />
	<rect x="25" y="12" width="1" height="1" fill="rgb(169,169,169)" stroke-width="0.05" stroke="rgb(0,0,0)" />
	<rect x="26" y="12" width="1" height="1" fill="rgb(169,169,169)" stroke-width="0.05" stroke="rgb(0,0,0)" />
	<rect x="27" y="12" width="1" height="1" fill="rgb(169,169,169)" stroke-width="0.05" stroke="rgb(0,0,0)" />
	<rect x="28" y="12" width="1" height="1" fill="rgb(169,169,169)" stroke-width="0.05" stroke="rgb(0,0,0)" />
	<rect x="29" y="12" width="1" height="1" fill="rgb(169,169,169)" stroke-width="0.05" stroke="rgb(0,0,0)" />
	<rect x="30" y="12" width="1" height="1" fill="rgb(169,169,169)" stroke-width="0.05" stroke="rgb(0,0,0)" />
	<rect x="31" y="12" width="1" height="1" fill="rgb(169,169,169)" stroke-width="0.05" stroke="rgb(0,0,0)" />
	<rect x="32" y="12" width="1" height="1" fill="rgb(169,169,169)" stroke-width="0.05" stroke="rgb(0,0,0)" />
	<rect x="33" y="12" width="1" height="1" fill="rgb(169,169,169)" stroke-width="0.05" stroke="rgb(0,0,0)" />
	<rect x="34" y="12" width="1" height="1" fill="rgb(169,169,169)" stroke-width="0.05" stroke="rgb(0,0,0)" />
	<rect x="35" y="12" width="1" height="1" fill="rgb(169,169,169)" stroke-width="0.05" stroke="rgb(0,0,0)" />
	<rect x="36" y="12" width="1" height="1" fill="rgb(169,169,169)" stroke-width="0.05" stroke="rgb(0,0,0)" />
	<rect x="37" y="12" width="1" height="1" fill="rgb(169,169,169)" stroke-width="0.05" stroke="rgb(0,0,0)" />
	<rect x="38" y="12" width="1" height="1" fill="rgb(169,169,169)" stroke-width="0.05" stroke="rgb(0,0,0)" />
	<rect x="39" y="12" width="1" height="1" fill="rgb(169,169,169)" stroke-width="0.05" stroke="rgb(0,0,0)" />
	<rect x="40" y="12" width="1" height="1" fill="rgb(169,169,169)" stroke-width="0.05" stroke="rgb(0,0,0)" />
	<rect x="41" y="12" width="1" height="1" fill="rgb(169,169,169)" stroke-width="0.05" stroke="rgb(0,0,0)" />
	<rect x="42" y="12" width="1" height="1" fill="rgb(169,169,169)" stroke-width="0.05" stroke="rgb(0,0,0)" />
	<rect x="43" y="12" width="1" height="1" fill="rgb(169,169,169)" stroke-width="0.05" stroke="rgb(0,0,0)" />
	<rect x="43" y="11" width="1" height="1" fill="rgb(169,169,169)" stroke-width="0.05" stroke="rgb(0,0,0)" />
	<rect x="44" y="12" width="1" height="1" fill="rgb(169,169,169)" stroke-width="0.05" stroke="rgb(0,0,0)" />
	<rect x="45" y="14" width="1" height="1" fill="rgb(169,169,169)" stroke-width="0.05" stroke="rgb(0,0,0)" />
	<rect x="45" y="13" width="1" height="1" fill="rgb(169,169,169)" stroke-width="0.05" stroke="rgb(0,0,0)" />
	<rect x="45" y="12" width="1" height="1" fill="rgb(169,169,169)" stroke-width="0.05" stroke="rgb(0,0,0)" />
	<rect x="45" y="11" width="1" height="1" fill="rgb(169,169,169)" stroke-width="0.05" stroke="rgb(0,0,0)" />
	<rect x="45" y="10" width="1" height="1" fill="rgb(169,169,169)" stroke-width="0.05" stroke="rgb(0,0,0)" />
	<rect x="45" y="9" width="1" height="1" fill="rgb(169,169,169)" stroke-width="0.05" stroke="rgb(0,0,0)" />
	<rect x="45" y="8" width="1" height="1" fill="rgb(169,169,169)" stroke-width="0.05" stroke="rgb(0,0,0)" />
	<rect x="46" y="14" width="1" height="1" fill="rgb(169,169,169)" stroke-width="0.05" stroke="rgb(0,0,0)" />
	<rect x="46" y="13" width="1" height="1" fill="rgb(169,169,169)" stroke-width="0.05" stroke="rgb(0,0,0)" />
	<rect x="46" y="12" width="1" height="1" fill="rgb(169,169,169)" stroke-width="0.05" stroke="rgb(0,0,0)" />
	<rect x="46" y="11" width="1" height="1" fill="rgb(169,169,169)" stroke-width="0.05" stroke="rgb(0,0,0)" />
	<rect x="46" y="10" width="1" height="1" fill="rgb(169,169,169)" stroke-width="0.05" stroke="rgb(0,0,0)" />
	<rect x="46" y="9" width="1" height="1" fill="rgb(169,169,169)" stroke-width="0.05" stroke="rgb(0,0,0)" />
	<rect x="46" y="8" width="1" height="1" fill="rgb(169,169,169)" stroke-width="0.05" stroke="rgb(0,0,0)" />
	<rect x="47" y="14" width="1" height="1" fill="rgb(169,169,169)" stroke-width="0.05" stroke="rgb(0,0,0)" />
	<rect x="47" y="13" width="1" height="1" fill="rgb(169,169,169)" stroke-width="0.05" stroke="rgb(0,0,0)" />
	<rect x="47" y="12" width="1" height="1" fill="rgb(169,169,169)" stroke-width="0.05" stroke="rgb(0,0,0)" />
	<rect x="47" y="11" width="1" height="1" fill="rgb(169,169,169)" stroke-width="0.05" stroke="rgb(0,0,0)" />
	<rect x="47" y="10" width="1" height="1" fill="rgb(169,169,169)" stroke-width="0.05" stroke="rgb(0,0,0)" />
	<rect x="47" y="9" width="1" height="1" fill="rgb(169,169,169)" stroke-width="0.05" stroke="rgb(0,0,0)" />
	<rect x="47" y="8" width="1" height="1" fill="rgb(169,169,169)" stroke-width="0.05" stroke="rgb(0,0,0)" />
	<rect x="48" y="14" width="1" height="1" fill="rgb(169,169,169)" stroke-width="0.05" stroke="rgb(0,0,0)" />
	<rect x="48" y="13" width="1" height="1" fill="rgb(169,169,169)" stroke-width="0.05" stroke="rgb(0,0,0)" />
	<rect x="48" y="12" width="1" height="1" fill="rgb(169,169,169)" stroke-width="0.05" stroke="rgb(0,0,0)" />
	<rect x="48" y="11" width="1" height="1" fill="rgb(169,169,169)" stroke-width="0.05" stroke="rgb(0,0,0)" />
	<rect x="48" y="10" width="1" height="1" fill="rgb(169,169,169)" stroke-width="0.05" stroke="rgb(0,0,0)" />
	<rect x="48" y="9" width="1" height="1" fill="rgb(169,169,169)" stroke-width="0.05" stroke="rgb(0,0,0)" />
	<rect x="48" y="8" width="1" height="1" fill="rgb(169,169,169)" stroke-width="0.05" stroke="rgb(0,0,0)" />
	<rect x="49" y="14" width="1" height="1" fill="rgb(169,169,169)" stroke-width="0.05" stroke="rgb(0,0,0)" />
	<rect x="49" y="13" width="1" height="1" fill="rgb(169,169,169)" stroke-width="0.05" stroke="rgb(0,0,0)" />
	<rect x="49" y="12" width="1" height="1" fill="rgb(169,169,169)" stroke-width="0.05" stroke="rgb(0,0,0)" />
	<rect x="49" y="11" width="1" height="1" fill="rgb(169,169,169)" stroke-width="0.05" stroke="rgb(0,0,0)" />
	<rect x="49" y="10" width="1" height="1" fill="rgb(169,169,169)" stroke-width="0.05" stroke="rgb(0,0,0)" />
	<rect x="49" y="9" width="1" height="1" fill="rgb(169,169,169)" stroke-width="0.05" stroke="rgb(0,0,0)" />
	<rect x="49" y="8" width="1" height="1" fill="rgb(169,169,169)" stroke-width="0.05" stroke="rgb(0,0,0)" />
	<rect x="50" y="14" width="1" height="1" fill="rgb(169,169,169)" stroke-width="0.05" stroke="rgb(0,0,0)" />
	<rect x="50" y="13" width="1" height="1" fill="rgb(169,169,169)" stroke-width="0.05" stroke="rgb(0,0,0)" />
	<rect x="50" y="12" width="1" height="1" fill="rgb(169,169,169)" stroke-width="0.05" stroke="rgb(0,0,0)" />
	<rect x="50" y="11" width="1" height="1" fill="rgb(169,169,169)" stroke-width="0.05" stroke="rgb(0,0,0)" />
	<rect x="50" y="10" width="1" height="1" fill="rgb(169,169,169)" stroke-width="0.05" stroke="rgb(0,0,0)" />
	<rect x="50" y="9" width="1" height="1" fill="rgb(169,169,169)" stroke-width="0.05" stroke="rgb(0,0,0)" />
	<rect x="50" y="8" width="1" height="1" fill="rgb(169,169,169)" stroke-width="0.05" stroke="rgb(0,0,0)" />
	<rect x="51" y="14" width="1" height="1" fill="rgb(169,169,169)" stroke-width="0.05" stroke="rgb(0,0,0)" />
	<rect x="51" y="13" width="1" height="1" fill="rgb(169,169,169)" stroke-width="0.05" stroke="rgb(0,0,0)" />
	<rect x="51" y="12" width="1" height="1" fill="rgb(169,169,169)" stroke-width="0.05" stroke="rgb(0,0,0)" />
	<rect x="51" y="11" width="1" height="1" fill="rgb(169,169,169)" stroke-width="0.05" stroke="rgb(0,0,0)" />
	<rect x="51" y="10" width="1" height="1" fill="rgb(169,169,169)" stroke-width="0.05" stroke="rgb(0,0,0)" />
	<rect x="51" y="9" width="1" height="1" fill="rgb(169,169,169)" stroke-width="0.05" stroke="rgb(0,0,0)" />
	<rect x="51" y="8" width="1" height="1" fill="rgb(169,169,169)" stroke-width="0.05" stroke="rgb(0,0,0)" />
	<rect x="52" y="14" width="1" height="1" fill="rgb(169,169,169)" stroke-width="0.05" stroke="rgb(0,0,0)" />
	<rect x="52" y="13" width="1" height="1" fill="rgb(169,169,169)" stroke-width="0.05" stroke="rgb(0,0,0)" />
	<rect x="52" y="12" width="1" height="1" fill="rgb(169,169,169)" stroke-width="0.05" stroke="rgb(0,0,0)" />
	<rect x="52" y="11" width="1" height="1" fill="rgb(169,169,169)" stroke-width="0.05" stroke="rgb(0,0,0)" />
	<rect x="52" y="10" width="1" height="1" fill="rgb(169,169,169)" stroke-width="0.05" stroke="rgb(0,0,0)" />
	<rect x="52" y="9" width="1" height="1" fill="rgb(169,169,169)" stroke-width="0.05" stroke="rgb(0,0,0)" />
	<rect x="52" y="8" width="1" height="1" fill="rgb(169,169,169)" stroke-width="0.05" stroke="rgb(0,0,0)" />
	<rect x="53" y="14" width="1" height="1" fill="rgb(169,169,169)" stroke-width="0.05" stroke="rgb(0,0,0)" />
	<rect x="53" y="13" width="1" height="1" fill="rgb(169,169,169)" stroke-width="0.05" stroke="rgb(0,0,0)" />
	<rect x="53" y="12" width="1" height="1" fill="rgb(169,169,169)" stroke-width="0.05" stroke="rgb(0,0,0)" />
	<rect x="53" y="11" width="1" height="1" fill="rgb(169,169,169)" stroke-width="0.05" stroke="rgb(0,0,0)" />
	<rect x="53" y="10" width="1" height="1" fill="rgb(169,169,169)" stroke-width="0.05" stroke="rgb(0,0,0)" />
	<rect x="53" y="9" width="1" height="1" fill="rgb(169,169,169)" stroke-width="0.05" stroke="rgb(0,0,0)" />
	<rect x="53" y="8" width="1" height="1" fill="rgb(169,169,169)" stroke-width="0.05" stroke="rgb(0,0,0)" />
	<rect x="54" y="14" width="1" height="1" fill="rgb(169,169,169)" stroke-width="0.05" stroke="rgb(0,0,0)" />
	<rect x="54" y="13" width="1" height="1" fill="rgb(169,169,169)" stroke-width="0.05" stroke="rgb(0,0,0)" />
	<rect x="54" y="12" width="1" height="1" fill="rgb(169,169,169)" stroke-width="0.05" stroke="rgb(0,0,0)" />
	<rect x="54" y="11" width="1" height="1" fill="rgb(169,169,169)" stroke-width="0.05" stroke="rgb(0,0,0)" />
	<rect x="54" y="10" width="1" height="1" fill="rgb(169,169,169)" stroke-width="0.05" stroke="rgb(0,0,0)" />
	<rect x="54" y="9" width="1" height="1" fill="rgb(169,169,169)" stroke-width="0.05" stroke="rgb(0,0,0)" />
	<rect x="54" y="8" width="1" height="1" fill="rgb(169,169,169)" stroke-width="0.05" stroke="rgb(0,0,0)" />
	<rect x="55" y="12" width="1" height="1" fill="rgb(169,169,169)" stroke-width="0.05" stroke="rgb(0,0,0)" />
	<rect x="56" y="12" width="1" height="1" fill="rgb(169,169,169)" stroke-width="0.05" stroke="rgb(0,0,0)" />
	<rect x="57" y="12" width="1" height="1" fill="rgb(169,169,169)" stroke-width="0.05" stroke="rgb(0,0,0)" />
	<rect x="58" y="12" width="1" height="1" fill="rgb(169,169,169)" stroke-width="0.05" stroke="rgb(0,0,0)" />
	<rect x="59" y="12" width="1" height="1" fill="rgb(169,169,169)" stroke-width="0.05" stroke="rgb(0,0,0)" />
	<rect x="60" y="12" width="1" height="1" fill="rgb(169,169,169)" stroke-width="0.05" stroke="rgb(0,0,0)" />
	<rect x="61" y="12" width="1" height="1" fill="rgb(169,169,169)" stroke-width="0.05" stroke="rgb(0,0,0)" />
	<rect x="62" y="12" width="1" height="1" fill="rgb(169,169,169)" stroke-width="0.05" stroke="rgb(0,0,0)" />
	<rect x="63" y="12" width="1" height="1" fill="rgb(169,169,169)" stroke-width="0.05" stroke="rgb(0,0,0)" />
	<rect x="64" y="12" width="1" height="1" fill="rgb(169,169,169)" stroke-width="0.05" stroke="rgb(0,0,0)" />
	<rect x="65" y="12" width="1" height="1" fill="rgb(169,169,169)" stroke-width="0.05" stroke="rgb(0,0,0)" />
	<rect x="66" y="12" width="1" height="1" fill="rgb(169,169,169)" stroke-width="0.05" stroke="rgb(0,0,0)" />
	<rect x="67" y="12" width="1" height="1" fill="rgb(169,169,169)" stroke-width="0.05" stroke="rgb(0,0,0)" />
	<rect x="68" y="12" width="1" height="1" fill="rgb(169,169,169)" stroke-width="0.05" stroke="rgb(0,0,0)" />
	<rect x="69" y="12" width="1" height="1" fill="rgb(169,169,169)" stroke-width="0.05" stroke="rgb(0,0,0)" />
	<rect x="70" y="12" width="1" height="1" fill="rgb(169,169,169)" stroke-width="0.05" stroke="rgb(0,0,0)" />
	<rect x="71" y="12" width="1" height="1" fill="rgb(169,169,169)" stroke-width="0.05" stroke="rgb(0,0,0)" />
	<rect x="72" y="12" width="1" height="1" fill="rgb(169,169,169)" stroke-width="0.05" stroke="rgb(0,0,0)" />
	<rect x="73" y="12" width="1" height="1" fill="rgb(169,169,169)" stroke-width="0.05" stroke="rgb(0,0,0)" />
	<rect x="74" y="12" width="1" height="1" fill="rgb(169,169,169)" stroke-width="0.05" stroke="rgb(0,0,0)" />
	<rect x="75" y="12" width="1" height="1" fill="rgb(169,169,169)" stroke-width="0.05" stroke="rgb(0,0,0)" />
	<rect x="76" y="12" width="1" height="1" fill="rgb(169,169,169)" stroke-width="0.05" stroke="rgb(0,0,0)" />
	<rect x="77" y="12" width="1" height="1" fill="rgb(169,169,169)" stroke-width="0.05" stroke="rgb(0,0,0)" />
	<rect x="78" y="12" width="1" height="1" fill="rgb(169,169,169)" stroke-width="0.05" stroke="rgb(0,0,0)" />
	<rect x="79" y="12" width="1" height="1" fill="rgb(169,169,169)" stroke-width="0.05" stroke="rgb(0,0,0)" />
	<rect x="80" y="12" width="1" height="1" fill="rgb(169,169,169)" stroke-width="0.05" stroke="rgb(0,0,0)" />
	<rect x="81" y="12" width="1" height="1" fill="rgb(169,169,169)" stroke-width="0.05" stroke="rgb(0,0,0)" />
	<rect x="82" y="12" width="1" height="1" fill="rgb(169,169,169)" stroke-width="0.05" stroke="rgb(0,0,0)" />
	<rect x="83" y="12" width="1" height="1" fill="rgb(169,169,169)" stroke-width="0.05" stroke="rgb(0,0,0)" />
	<rect x="84" y="12" width="1" height="1" fill="rgb(169,169,169)" stroke-width="0.05" stroke="rgb(0,0,0)" />
	<rect x="85" y="12" width="1" height="1" fill="rgb(169,169,169)" stroke-width="0.05" stroke="rgb(0,0,0)" />
	<rect x="86" y="12" width="1" height="1" fill="rgb(169,169,169)" stroke-width="0.05" stroke="rgb(0,0,0)" />
	<rect x="87" y="12" width="1" height="1" fill="rgb(169,169,169)" stroke-width="0.05" stroke="rgb(0,0,0)" />
	<rect x="88" y="16" width="1" height="1" fill="rgb(169,169,169)" stroke-width="0.05" stroke="rgb(0,0,0)" />
	<rect x="88" y="15" width="1" height="1" fill="rgb(169,169,169)" stroke-width="0.05" stroke="rgb(0,0,0)" />
	<rect x="88" y="14" width="1" height="1" fill="rgb(169,169,169)" stroke-width="0.05" stroke="rgb(0,0,0)" />
	<rect x="88" y="13" width="1" height="1" fill="rgb(169,169,169)" stroke-width="0.05" stroke="rgb(0,0,0)" />
	<rect x="88" y="12" width="1" height="1" fill="rgb(169,169,169)" stroke-width="0.05" stroke="rgb(0,0,0)" />
	<rect x="88" y="11" width="1" height="1" fill="rgb(169,169,169)" stroke-width="0.05" stroke="rgb(0,0,0)" />
	<rect x="89" y="16" width="1" height="1" fill="rgb(169,169,169)" stroke-width="0.05" stroke="rgb(0,0,0)" />
	<rect x="89" y="15" width="1" height="1" fill="rgb(169,169,169)" stroke-width="0.05" stroke="rgb(0,0,0)" />
	<rect x="89" y="14" width="1" height="1" fill="rgb(169,169,169)" stroke-width="0.05" stroke="rgb(0,0,0)" />
	<rect x="89" y="13" width="1" height="1" fill="rgb(169,169,169)" stroke-width="0.05" stroke="rgb(0,0,0)" />
	<rect x="89" y="12" width="1" height="1" fill="rgb(169,169,169)" stroke-width="0.05" stroke="rgb(0,0,0)" />
	<rect x="89" y="11" width="1" height="1" fill="rgb(169,169,169)" stroke-width="0.05" stroke="rgb(0,0,0)" />
	<rect x="90" y="16" width="1" height="1" fill="rgb(169,169,169)" stroke-width="0.05" stroke="rgb(0,0,0)" />
	<rect x="90" y="15" width="1" height="1" fill="rgb(169,169,169)" stroke-width="0.05" stroke="rgb(0,0,0)" />
	<rect x="90" y="14" width="1" height="1" fill="rgb(169,169,169)" stroke-width="0.05" stroke="rgb(0,0,0)" />
	<rect x="90" y="13" width="1" height="1" fill="rgb(169,169,169)" stroke-width="0.05" stroke="rgb(0,0,0)" />
	<rect x="90" y="12" width="1" height="1" fill="rgb(169,169,169)" stroke-width="0.05" stroke="rgb(0,0,0)" />
	<rect x="90" y="11" width="1" height="1" fill="rgb(169,169,169)" stroke-width="0.05" stroke="rgb(0,0,0)" />
	<rect x="91" y="16" width="1" height="1" fill="rgb(169,169,169)" stroke-width="0.05" stroke="rgb(0,0,0)" />
	<rect x="91" y="15" width="1" height="1" fill="rgb(169,169,169)" stroke-width="0.05" stroke="rgb(0,0,0)" />
	<rect x="91" y="14" width="1" height="1" fill="rgb(169,169,169)" stroke-width="0.05" stroke="rgb(0,0,0)" />
	<rect x="91" y="13" width="1" height="1" fill="rgb(169,169,169)" stroke-width="0.05" stroke="rgb(0,0,0)" />
	<rect x="91" y="12" width="1" height="1" fill="rgb(169,169,169)" stroke-width="0.05" stroke="rgb(0,0,0)" />
	<rect x="91" y="11" width="1" height="1" fill="rgb(169,169,169)" stroke-width="0.05" stroke="rgb(0,0,0)" />
</svg>
