<?xml version="1.0" standalone="no" ?>
<!DOCTYPE svg PUBLIC "-//W3C//DTD SVG 1.1//EN" "http://www.w3.org/Graphics/SVG/1.1/DTD/svg11.dtd">
<svg width="17px" height="58px" xmlns="http://www.w3.org/2000/svg" version="1.1" >
	<rect x="1" y="48" width="1" height="1" fill="rgb(169,169,169)" stroke-width="0.05" stroke="rgb(0,0,0)" />
	<rect x="1" y="47" width="1" height="1" fill="rgb(169,169,169)" stroke-width="0.05" stroke="rgb(0,0,0)" />
	<rect x="1" y="46" width="1" height="1" fill="rgb(169,169,169)" stroke-width="0.05" stroke="rgb(0,0,0)" />
	<rect x="1" y="45" width="1" height="1" fill="rgb(169,169,169)" stroke-width="0.05" stroke="rgb(0,0,0)" />
	<rect x="1" y="44" width="1" height="1" fill="rgb(169,169,169)" stroke-width="0.05" stroke="rgb(0,0,0)" />
	<rect x="1" y="43" width="1" height="1" fill="rgb(169,169,169)" stroke-width="0.05" stroke="rgb(0,0,0)" />
	<rect x="1" y="42" width="1" height="1" fill="rgb(169,169,169)" stroke-width="0.05" stroke="rgb(0,0,0)" />
	<rect x="1" y="41" width="1" height="1" fill="rgb(169,169,169)" stroke-width="0.05" stroke="rgb(0,0,0)" />
	<rect x="1" y="40" width="1" height="1" fill="rgb(169,169,169)" stroke-width="0.05" stroke="rgb(0,0,0)" />
	<rect x="2" y="48" width="1" height="1" fill="rgb(169,169,169)" stroke-width="0.05" stroke="rgb(0,0,0)" />
	<rect x="2" y="47" width="1" height="1" fill="rgb(169,169,169)" stroke-width="0.05" stroke="rgb(0,0,0)" />
	<rect x="2" y="46" width="1" height="1" fill="rgb(169,169,169)" stroke-width="0.05" stroke="rgb(0,0,0)" />
	<rect x="2" y="45" width="1" height="1" fill="rgb(169,169,169)" stroke-width="0.05" stroke="rgb(0,0,0)" />
	<rect x="2" y="44" width="1" height="1" fill="rgb(169,169,169)" stroke-width="0.05" stroke="rgb(0,0,0)" />
	<rect x="2" y="43" width="1" height="1" fill="rgb(169,169,169)" stroke-width="0.05" stroke="rgb(0,0,0)" />
	<rect x="2" y="42" width="1" height="1" fill="rgb(169,169,169)" stroke-width="0.05" stroke="rgb(0,0,0)" />
	<rect x="2" y="41" width="1" height="1" fill="rgb(169,169,169)" stroke-width="0.05" stroke="rgb(0,0,0)" />
	<rect x="2" y="40" width="1" height="1" fill="rgb(169,169,169)" stroke-width="0.05" stroke="rgb(0,0,0)" />
	<rect x="3" y="48" width="1" height="1" fill="rgb(169,169,169)" stroke-width="0.05" stroke="rgb(0,0,0)" />
	<rect x="3" y="47" width="1" height="1" fill="rgb(169,169,169)" stroke-width="0.05" stroke="rgb(0,0,0)" />
	<rect x="3" y="46" width="1" height="1" fill="rgb(169,169,169)" stroke-width="0.05" stroke="rgb(0,0,0)" />
	<rect x="3" y="45" width="1" height="1" fill="rgb(169,169,169)" stroke-width="0.05" stroke="rgb(0,0,0)" />
	<rect x="3" y="44" width="1" height="1" fill="rgb(169,169,169)" stroke-width="0.05" stroke="rgb(0,0,0)" />
	<rect x="3" y="43" width="1" height="1" fill="rgb(169,169,169)" stroke-width="0.05" stroke="rgb(0,0,0)" />
	<rect x="3" y="42" width="1" height="1" fill="rgb(169,169,169)" stroke-width="0.05" stroke="rgb(0,0,0)" />
	<rect x="3" y="41" width="1" height="1" fill="rgb(169,169,169)" stroke-width="0.05" stroke="rgb(0,0,0)" />
	<rect x="3" y="40" width="1" height="1" fill="rgb(169,169,169)" stroke-width="0.05" stroke="rgb(0,0,0)" />
	<rect x="3" y="34" width="1" height="1" fill="rgb(169,169,169)" stroke-width="0.05" stroke="rgb(0,0,0)" />
	<rect x="3" y="33" width="1" height="1" fill="rgb(169,169,169)" stroke-width="0.05" stroke="rgb(0,0,0)" />
	<rect x="3" y="32" width="1" height="1" fill="rgb(169,169,169)" stroke-width="0.05" stroke="rgb(0,0,0)" />
	<rect x="3" y="31" width="1" height="1" fill="rgb(169,169,169)" stroke-width="0.05" stroke="rgb(0,0,0)" />
	<rect x="3" y="30" width="1" height="1" fill="rgb(169,169,169)" stroke-width="0.05" stroke="rgb(0,0,0)" />
	<rect x="3" y="29" width="1" height="1" fill="rgb(169,169,169)" stroke-width="0.05" stroke="rgb(0,0,0)" />
	<rect x="3" y="28" width="1" height="1" fill="rgb(169,169,169)" stroke-width="0.05" stroke="rgb(0,0,0)" />
	<rect x="3" y="27" width="1" height="1" fill="rgb(169,169,169)" stroke-width="0.05" stroke="rgb(0,0,0)" />
	<rect x="3" y="26" width="1" height="1" fill="rgb(169,169,169)" stroke-width="0.05" stroke="rgb(0,0,0)" />
	<rect x="3" y="25" width="1" height="1" fill="rgb(169,169,169)" stroke-width="0.05" stroke="rgb(0,0,0)" />
	<rect x="3" y="24" width="1" height="1" fill="rgb(169,169,169)" stroke-width="0.05" stroke="rgb(0,0,0)" />
	<rect x="3" y="23" width="1" height="1" fill="rgb(169,169,169)" stroke-width="0.05" stroke="rgb(0,0,0)" />
	<rect x="3" y="22" width="1" height="1" fill="rgb(169,169,169)" stroke-width="0.05" stroke="rgb(0,0,0)" />
	<rect x="3" y="21" width="1" height="1" fill="rgb(169,169,169)" stroke-width="0.05" stroke="rgb(0,0,0)" />
	<rect x="3" y="20" width="1" height="1" fill="rgb(169,169,169)" stroke-width="0.05" stroke="rgb(0,0,0)" />
	<rect x="3" y="19" width="1" height="1" fill="rgb(169,169,169)" stroke-width="0.05" stroke="rgb(0,0,0)" />
	<rect x="3" y="18" width="1" height="1" fill="rgb(169,169,169)" stroke-width="0.05" stroke="rgb(0,0,0)" />
	<rect x="3" y="17" width="1" height="1" fill="rgb(169,169,169)" stroke-width="0.05" stroke="rgb(0,0,0)" />
	<rect x="4" y="57" width="1" height="1" fill="rgb(169,169,169)" stroke-width="0.05" stroke="rgb(0,0,0)" />
	<rect x="4" y="56" width="1" height="1" fill="rgb(169,169,169)" stroke-width="0.05" stroke="rgb(0,0,0)" />
	<rect x="4" y="55" width="1" height="1" fill="rgb(169,169,169)" stroke-width="0.05" stroke="rgb(0,0,0)" />
	<rect x="4" y="54" width="1" height="1" fill="rgb(169,169,169)" stroke-width="0.05" stroke="rgb(0,0,0)" />
	<rect x="4" y="53" width="1" height="1" fill="rgb(169,169,169)" stroke-width="0.05" stroke="rgb(0,0,0)" />
	<rect x="4" y="52" width="1" height="1" fill="rgb(169,169,169)" stroke-width="0.05" stroke="rgb(0,0,0)" />
	<rect x="4" y="51" width="1" height="1" fill="rgb(169,169,169)" stroke-width="0.05" stroke="rgb(0,0,0)" />
	<rect x="4" y="48" width="1" height="1" fill="rgb(169,169,169)" stroke-width="0.05" stroke="rgb(0,0,0)" />
	<rect x="4" y="47" width="1" height="1" fill="rgb(169,169,169)" stroke-width="0.05" stroke="rgb(0,0,0)" />
	<rect x="4" y="46" width="1" height="1" fill="rgb(169,169,169)" stroke-width="0.05" stroke="rgb(0,0,0)" />
	<rect x="4" y="45" width="1" height="1" fill="rgb(169,169,169)" stroke-width="0.05" stroke="rgb(0,0,0)" />
	<rect x="4" y="44" width="1" height="1" fill="rgb(169,169,169)" stroke-width="0.05" stroke="rgb(0,0,0)" />
	<rect x="4" y="43" width="1" height="1" fill="rgb(169,169,169)" stroke-width="0.05" stroke="rgb(0,0,0)" />
	<rect x="4" y="42" width="1" height="1" fill="rgb(169,169,169)" stroke-width="0.05" stroke="rgb(0,0,0)" />
	<rect x="4" y="41" width="1" height="1" fill="rgb(169,169,169)" stroke-width="0.05" stroke="rgb(0,0,0)" />
	<rect x="4" y="40" width="1" height="1" fill="rgb(169,169,169)" stroke-width="0.05" stroke="rgb(0,0,0)" />
	<rect x="4" y="34" width="1" height="1" fill="rgb(169,169,169)" stroke-width="0.05" stroke="rgb(0,0,0)" />
	<rect x="4" y="33" width="1" height="1" fill="rgb(169,169,169)" stroke-width="0.05" stroke="rgb(0,0,0)" />
	<rect x="4" y="32" width="1" height="1" fill="rgb(169,169,169)" stroke-width="0.05" stroke="rgb(0,0,0)" />
	<rect x="4" y="31" width="1" height="1" fill="rgb(169,169,169)" stroke-width="0.05" stroke="rgb(0,0,0)" />
	<rect x="4" y="30" width="1" height="1" fill="rgb(169,169,169)" stroke-width="0.05" stroke="rgb(0,0,0)" />
	<rect x="4" y="29" width="1" height="1" fill="rgb(169,169,169)" stroke-width="0.05" stroke="rgb(0,0,0)" />
	<rect x="4" y="28" width="1" height="1" fill="rgb(169,169,169)" stroke-width="0.05" stroke="rgb(0,0,0)" />
	<rect x="4" y="27" width="1" height="1" fill="rgb(169,169,169)" stroke-width="0.05" stroke="rgb(0,0,0)" />
	<rect x="4" y="26" width="1" height="1" fill="rgb(169,169,169)" stroke-width="0.05" stroke="rgb(0,0,0)" />
	<rect x="4" y="25" width="1" height="1" fill="rgb(169,169,169)" stroke-width="0.05" stroke="rgb(0,0,0)" />
	<rect x="4" y="24" width="1" height="1" fill="rgb(169,169,169)" stroke-width="0.05" stroke="rgb(0,0,0)" />
	<rect x="4" y="23" width="1" height="1" fill="rgb(169,169,169)" stroke-width="0.05" stroke="rgb(0,0,0)" />
	<rect x="4" y="22" width="1" height="1" fill="rgb(169,169,169)" stroke-width="0.05" stroke="rgb(0,0,0)" />
	<rect x="4" y="21" width="1" height="1" fill="rgb(169,169,169)" stroke-width="0.05" stroke="rgb(0,0,0)" />
	<rect x="4" y="20" width="1" height="1" fill="rgb(169,169,169)" stroke-width="0.05" stroke="rgb(0,0,0)" />
	<rect x="4" y="19" width="1" height="1" fill="rgb(169,169,169)" stroke-width="0.05" stroke="rgb(0,0,0)" />
	<rect x="4" y="18" width="1" height="1" fill="rgb(169,169,169)" stroke-width="0.05" stroke="rgb(0,0,0)" />
	<rect x="4" y="17" width="1" height="1" fill="rgb(169,169,169)" stroke-width="0.05" stroke="rgb(0,0,0)" />
	<rect x="5" y="57" width="1" height="1" fill="rgb(169,169,169)" stroke-width="0.05" stroke="rgb(0,0,0)" />
	<rect x="5" y="56" width="1" height="1" fill="rgb(169,169,169)" stroke-width="0.05" stroke="rgb(0,0,0)" />
	<rect x="5" y="55" width="1" height="1" fill="rgb(169,169,169)" stroke-width="0.05" stroke="rgb(0,0,0)" />
	<rect x="5" y="54" width="1" height="1" fill="rgb(169,169,169)" stroke-width="0.05" stroke="rgb(0,0,0)" />
	<rect x="5" y="53" width="1" height="1" fill="rgb(169,169,169)" stroke-width="0.05" stroke="rgb(0,0,0)" />
	<rect x="5" y="52" width="1" height="1" fill="rgb(169,169,169)" stroke-width="0.05" stroke="rgb(0,0,0)" />
	<rect x="5" y="51" width="1" height="1" fill="rgb(169,169,169)" stroke-width="0.05" stroke="rgb(0,0,0)" />
	<rect x="5" y="48" width="1" height="1" fill="rgb(169,169,169)" stroke-width="0.05" stroke="rgb(0,0,0)" />
	<rect x="5" y="47" width="1" height="1" fill="rgb(169,169,169)" stroke-width="0.05" stroke="rgb(0,0,0)" />
	<rect x="5" y="46" width="1" height="1" fill="rgb(169,169,169)" stroke-width="0.05" stroke="rgb(0,0,0)" />
	<rect x="5" y="45" width="1" height="1" fill="rgb(169,169,169)" stroke-width="0.05" stroke="rgb(0,0,0)" />
	<rect x="5" y="44" width="1" height="1" fill="rgb(169,169,169)" stroke-width="0.05" stroke="rgb(0,0,0)" />
	<rect x="5" y="43" width="1" height="1" fill="rgb(169,169,169)" stroke-width="0.05" stroke="rgb(0,0,0)" />
	<rect x="5" y="42" width="1" height="1" fill="rgb(169,169,169)" stroke-width="0.05" stroke="rgb(0,0,0)" />
	<rect x="5" y="41" width="1" height="1" fill="rgb(169,169,169)" stroke-width="0.05" stroke="rgb(0,0,0)" />
	<rect x="5" y="40" width="1" height="1" fill="rgb(169,169,169)" stroke-width="0.05" stroke="rgb(0,0,0)" />
	<rect x="5" y="34" width="1" height="1" fill="rgb(169,169,169)" stroke-width="0.05" stroke="rgb(0,0,0)" />
	<rect x="5" y="33" width="1" height="1" fill="rgb(169,169,169)" stroke-width="0.05" stroke="rgb(0,0,0)" />
	<rect x="5" y="32" width="1" height="1" fill="rgb(169,169,169)" stroke-width="0.05" stroke="rgb(0,0,0)" />
	<rect x="5" y="31" width="1" height="1" fill="rgb(169,169,169)" stroke-width="0.05" stroke="rgb(0,0,0)" />
	<rect x="5" y="30" width="1" height="1" fill="rgb(169,169,169)" stroke-width="0.05" stroke="rgb(0,0,0)" />
	<rect x="5" y="29" width="1" height="1" fill="rgb(169,169,169)" stroke-width="0.05" stroke="rgb(0,0,0)" />
	<rect x="5" y="28" width="1" height="1" fill="rgb(169,169,169)" stroke-width="0.05" stroke="rgb(0,0,0)" />
	<rect x="5" y="27" width="1" height="1" fill="rgb(169,169,169)" stroke-width="0.05" stroke="rgb(0,0,0)" />
	<rect x="5" y="26" width="1" height="1" fill="rgb(169,169,169)" stroke-width="0.05" stroke="rgb(0,0,0)" />
	<rect x="5" y="25" width="1" height="1" fill="rgb(169,169,169)" stroke-width="0.05" stroke="rgb(0,0,0)" />
	<rect x="5" y="24" width="1" height="1" fill="rgb(169,169,169)" stroke-width="0.05" stroke="rgb(0,0,0)" />
	<rect x="5" y="23" width="1" height="1" fill="rgb(169,169,169)" stroke-width="0.05" stroke="rgb(0,0,0)" />
	<rect x="5" y="22" width="1" height="1" fill="rgb(169,169,169)" stroke-width="0.05" stroke="rgb(0,0,0)" />
	<rect x="5" y="21" width="1" height="1" fill="rgb(169,169,169)" stroke-width="0.05" stroke="rgb(0,0,0)" />
	<rect x="5" y="20" width="1" height="1" fill="rgb(169,169,169)" stroke-width="0.05" stroke="rgb(0,0,0)" />
	<rect x="5" y="19" width="1" height="1" fill="rgb(169,169,169)" stroke-width="0.05" stroke="rgb(0,0,0)" />
	<rect x="5" y="18" width="1" height="1" fill="rgb(169,169,169)" stroke-width="0.05" stroke="rgb(0,0,0)" />
	<rect x="5" y="17" width="1" height="1" fill="rgb(169,169,169)" stroke-width="0.05" stroke="rgb(0,0,0)" />
	<rect x="6" y="57" width="1" height="1" fill="rgb(169,169,169)" stroke-width="0.05" stroke="rgb(0,0,0)" />
	<rect x="6" y="56" width="1" height="1" fill="rgb(169,169,169)" stroke-width="0.05" stroke="rgb(0,0,0)" />
	<rect x="6" y="55" width="1" height="1" fill="rgb(169,169,169)" stroke-width="0.05" stroke="rgb(0,0,0)" />
	<rect x="6" y="54" width="1" height="1" fill="rgb(169,169,169)" stroke-width="0.05" stroke="rgb(0,0,0)" />
	<rect x="6" y="53" width="1" height="1" fill="rgb(169,169,169)" stroke-width="0.05" stroke="rgb(0,0,0)" />
	<rect x="6" y="52" width="1" height="1" fill="rgb(169,169,169)" stroke-width="0.05" stroke="rgb(0,0,0)" />
	<rect x="6" y="51" width="1" height="1" fill="rgb(169,169,169)" stroke-width="0.05" stroke="rgb(0,0,0)" />
	<rect x="6" y="48" width="1" height="1" fill="rgb(169,169,169)" stroke-width="0.05" stroke="rgb(0,0,0)" />
	<rect x="6" y="47" width="1" height="1" fill="rgb(169,169,169)" stroke-width="0.05" stroke="rgb(0,0,0)" />
	<rect x="6" y="46" width="1" height="1" fill="rgb(169,169,169)" stroke-width="0.05" stroke="rgb(0,0,0)" />
	<rect x="6" y="45" width="1" height="1" fill="rgb(169,169,169)" stroke-width="0.05" stroke="rgb(0,0,0)" />
	<rect x="6" y="44" width="1" height="1" fill="rgb(169,169,169)" stroke-width="0.05" stroke="rgb(0,0,0)" />
	<rect x="6" y="43" width="1" height="1" fill="rgb(169,169,169)" stroke-width="0.05" stroke="rgb(0,0,0)" />
	<rect x="6" y="42" width="1" height="1" fill="rgb(169,169,169)" stroke-width="0.05" stroke="rgb(0,0,0)" />
	<rect x="6" y="41" width="1" height="1" fill="rgb(169,169,169)" stroke-width="0.05" stroke="rgb(0,0,0)" />
	<rect x="6" y="40" width="1" height="1" fill="rgb(169,169,169)" stroke-width="0.05" stroke="rgb(0,0,0)" />
	<rect x="6" y="34" width="1" height="1" fill="rgb(169,169,169)" stroke-width="0.05" stroke="rgb(0,0,0)" />
	<rect x="6" y="33" width="1" height="1" fill="rgb(169,169,169)" stroke-width="0.05" stroke="rgb(0,0,0)" />
	<rect x="6" y="32" width="1" height="1" fill="rgb(169,169,169)" stroke-width="0.05" stroke="rgb(0,0,0)" />
	<rect x="6" y="31" width="1" height="1" fill="rgb(169,169,169)" stroke-width="0.05" stroke="rgb(0,0,0)" />
	<rect x="6" y="30" width="1" height="1" fill="rgb(169,169,169)" stroke-width="0.05" stroke="rgb(0,0,0)" />
	<rect x="6" y="29" width="1" height="1" fill="rgb(169,169,169)" stroke-width="0.05" stroke="rgb(0,0,0)" />
	<rect x="6" y="28" width="1" height="1" fill="rgb(169,169,169)" stroke-width="0.05" stroke="rgb(0,0,0)" />
	<rect x="6" y="27" width="1" height="1" fill="rgb(169,169,169)" stroke-width="0.05" stroke="rgb(0,0,0)" />
	<rect x="6" y="26" width="1" height="1" fill="rgb(169,169,169)" stroke-width="0.05" stroke="rgb(0,0,0)" />
	<rect x="6" y="25" width="1" height="1" fill="rgb(169,169,169)" stroke-width="0.05" stroke="rgb(0,0,0)" />
	<rect x="6" y="24" width="1" height="1" fill="rgb(169,169,169)" stroke-width="0.05" stroke="rgb(0,0,0)" />
	<rect x="6" y="23" width="1" height="1" fill="rgb(169,169,169)" stroke-width="0.05" stroke="rgb(0,0,0)" />
	<rect x="6" y="22" width="1" height="1" fill="rgb(169,169,169)" stroke-width="0.05" stroke="rgb(0,0,0)" />
	<rect x="6" y="21" width="1" height="1" fill="rgb(169,169,169)" stroke-width="0.05" stroke="rgb(0,0,0)" />
	<rect x="6" y="20" width="1" height="1" fill="rgb(169,169,169)" stroke-width="0.05" stroke="rgb(0,0,0)" />
	<rect x="6" y="19" width="1" height="1" fill="rgb(169,169,169)" stroke-width="0.05" stroke="rgb(0,0,0)" />
	<rect x="6" y="18" width="1" height="1" fill="rgb(169,169,169)" stroke-width="0.05" stroke="rgb(0,0,0)" />
	<rect x="6" y="17" width="1" height="1" fill="rgb(169,169,169)" stroke-width="0.05" stroke="rgb(0,0,0)" />
	<rect x="7" y="57" width="1" height="1" fill="rgb(169,169,169)" stroke-width="0.05" stroke="rgb(0,0,0)" />
	<rect x="7" y="56" width="1" height="1" fill="rgb(169,169,169)" stroke-width="0.05" stroke="rgb(0,0,0)" />
	<rect x="7" y="55" width="1" height="1" fill="rgb(169,169,169)" stroke-width="0.05" stroke="rgb(0,0,0)" />
	<rect x="7" y="54" width="1" height="1" fill="rgb(169,169,169)" stroke-width="0.05" stroke="rgb(0,0,0)" />
	<rect x="7" y="53" width="1" height="1" fill="rgb(169,169,169)" stroke-width="0.05" stroke="rgb(0,0,0)" />
	<rect x="7" y="52" width="1" height="1" fill="rgb(169,169,169)" stroke-width="0.05" stroke="rgb(0,0,0)" />
	<rect x="7" y="51" width="1" height="1" fill="rgb(169,169,169)" stroke-width="0.05" stroke="rgb(0,0,0)" />
	<rect x="7" y="50" width="1" height="1" fill="rgb(169,169,169)" stroke-width="0.05" stroke="rgb(0,0,0)" />
	<rect x="7" y="49" width="1" height="1" fill="rgb(169,169,169)" stroke-width="0.05" stroke="rgb(0,0,0)" />
	<rect x="7" y="48" width="1" height="1" fill="rgb(169,169,169)" stroke-width="0.05" stroke="rgb(0,0,0)" />
	<rect x="7" y="47" width="1" height="1" fill="rgb(169,169,169)" stroke-width="0.05" stroke="rgb(0,0,0)" />
	<rect x="7" y="46" width="1" height="1" fill="rgb(169,169,169)" stroke-width="0.05" stroke="rgb(0,0,0)" />
	<rect x="7" y="45" width="1" height="1" fill="rgb(169,169,169)" stroke-width="0.05" stroke="rgb(0,0,0)" />
	<rect x="7" y="44" width="1" height="1" fill="rgb(169,169,169)" stroke-width="0.05" stroke="rgb(0,0,0)" />
	<rect x="7" y="43" width="1" height="1" fill="rgb(169,169,169)" stroke-width="0.05" stroke="rgb(0,0,0)" />
	<rect x="7" y="42" width="1" height="1" fill="rgb(169,169,169)" stroke-width="0.05" stroke="rgb(0,0,0)" />
	<rect x="7" y="41" width="1" height="1" fill="rgb(169,169,169)" stroke-width="0.05" stroke="rgb(0,0,0)" />
	<rect x="7" y="40" width="1" height="1" fill="rgb(169,169,169)" stroke-width="0.05" stroke="rgb(0,0,0)" />
	<rect x="7" y="39" width="1" height="1" fill="rgb(169,169,169)" stroke-width="0.05" stroke="rgb(0,0,0)" />
	<rect x="7" y="38" width="1" height="1" fill="rgb(169,169,169)" stroke-width="0.05" stroke="rgb(0,0,0)" />
	<rect x="7" y="37" width="1" height="1" fill="rgb(169,169,169)" stroke-width="0.05" stroke="rgb(0,0,0)" />
	<rect x="7" y="36" width="1" height="1" fill="rgb(169,169,169)" stroke-width="0.05" stroke="rgb(0,0,0)" />
	<rect x="7" y="35" width="1" height="1" fill="rgb(169,169,169)" stroke-width="0.05" stroke="rgb(0,0,0)" />
	<rect x="7" y="34" width="1" height="1" fill="rgb(169,169,169)" stroke-width="0.05" stroke="rgb(0,0,0)" />
	<rect x="7" y="33" width="1" height="1" fill="rgb(169,169,169)" stroke-width="0.05" stroke="rgb(0,0,0)" />
	<rect x="7" y="32" width="1" height="1" fill="rgb(169,169,169)" stroke-width="0.05" stroke="rgb(0,0,0)" />
	<rect x="7" y="31" width="1" height="1" fill="rgb(169,169,169)" stroke-width="0.05" stroke="rgb(0,0,0)" />
	<rect x="7" y="30" width="1" height="1" fill="rgb(169,169,169)" stroke-width="0.05" stroke="rgb(0,0,0)" />
	<rect x="7" y="29" width="1" height="1" fill="rgb(169,169,169)" stroke-width="0.05" stroke="rgb(0,0,0)" />
	<rect x="7" y="28" width="1" height="1" fill="rgb(169,169,169)" stroke-width="0.05" stroke="rgb(0,0,0)" />
	<rect x="7" y="27" width="1" height="1" fill="rgb(169,169,169)" stroke-width="0.05" stroke="rgb(0,0,0)" />
	<rect x="7" y="26" width="1" height="1" fill="rgb(169,169,169)" stroke-width="0.05" stroke="rgb(0,0,0)" />
	<rect x="7" y="25" width="1" height="1" fill="rgb(169,169,169)" stroke-width="0.05" stroke="rgb(0,0,0)" />
	<rect x="7" y="24" width="1" height="1" fill="rgb(169,169,169)" stroke-width="0.05" stroke="rgb(0,0,0)" />
	<rect x="7" y="23" width="1" height="1" fill="rgb(169,169,169)" stroke-width="0.05" stroke="rgb(0,0,0)" />
	<rect x="7" y="22" width="1" height="1" fill="rgb(169,169,169)" stroke-width="0.05" stroke="rgb(0,0,0)" />
	<rect x="7" y="21" width="1" height="1" fill="rgb(169,169,169)" stroke-width="0.05" stroke="rgb(0,0,0)" />
	<rect x="7" y="20" width="1" height="1" fill="rgb(169,169,169)" stroke-width="0.05" stroke="rgb(0,0,0)" />
	<rect x="7" y="19" width="1" height="1" fill="rgb(169,169,169)" stroke-width="0.05" stroke="rgb(0,0,0)" />
	<rect x="7" y="18" width="1" height="1" fill="rgb(169,169,169)" stroke-width="0.05" stroke="rgb(0,0,0)" />
	<rect x="7" y="17" width="1" height="1" fill="rgb(169,169,169)" stroke-width="0.05" stroke="rgb(0,0,0)" />
	<rect x="7" y="16" width="1" height="1" fill="rgb(169,169,169)" stroke-width="0.05" stroke="rgb(0,0,0)" />
	<rect x="7" y="15" width="1" height="1" fill="rgb(169,169,169)" stroke-width="0.05" stroke="rgb(0,0,0)" />
	<rect x="7" y="14" width="1" height="1" fill="rgb(169,169,169)" stroke-width="0.05" stroke="rgb(0,0,0)" />
	<rect x="7" y="13" width="1" height="1" fill="rgb(169,169,169)" stroke-width="0.05" stroke="rgb(0,0,0)" />
	<rect x="7" y="12" width="1" height="1" fill="rgb(169,169,169)" stroke-width="0.05" stroke="rgb(0,0,0)" />
	<rect x="7" y="11" width="1" height="1" fill="rgb(169,169,169)" stroke-width="0.05" stroke="rgb(0,0,0)" />
	<rect x="7" y="10" width="1" height="1" fill="rgb(169,169,169)" stroke-width="0.05" stroke="rgb(0,0,0)" />
	<rect x="7" y="9" width="1" height="1" fill="rgb(169,169,169)" stroke-width="0.05" stroke="rgb(0,0,0)" />
	<rect x="7" y="8" width="1" height="1" fill="rgb(169,169,169)" stroke-width="0.05" stroke="rgb(0,0,0)" />
	<rect x="7" y="7" width="1" height="1" fill="rgb(169,169,169)" stroke-width="0.05" stroke="rgb(0,0,0)" />
	<rect x="7" y="6" width="1" height="1" fill="rgb(169,169,169)" stroke-width="0.05" stroke="rgb(0,0,0)" />
	<rect x="7" y="5" width="1" height="1" fill="rgb(169,169,169)" stroke-width="0.05" stroke="rgb(0,0,0)" />
	<rect x="7" y="4" width="1" height="1" fill="rgb(169,169,169)" stroke-width="0.05" stroke="rgb(0,0,0)" />
	<rect x="7" y="3" width="1" height="1" fill="rgb(169,169,169)" stroke-width="0.05" stroke="rgb(0,0,0)" />
	<rect x="7" y="2" width="1" height="1" fill="rgb(169,169,169)" stroke-width="0.05" stroke="rgb(0,0,0)" />
	<rect x="7" y="1" width="1" height="1" fill="rgb(169,169,169)" stroke-width="0.05" stroke="rgb(0,0,0)" />
	<rect x="8" y="57" width="1" height="1" fill="rgb(169,169,169)" stroke-width="0.05" stroke="rgb(0,0,0)" />
	<rect x="8" y="56" width="1" height="1" fill="rgb(169,169,169)" stroke-width="0.05" stroke="rgb(0,0,0)" />
	<rect x="8" y="55" width="1" height="1" fill="rgb(169,169,169)" stroke-width="0.05" stroke="rgb(0,0,0)" />
	<rect x="8" y="54" width="1" height="1" fill="rgb(169,169,169)" stroke-width="0.05" stroke="rgb(0,0,0)" />
	<rect x="8" y="53" width="1" height="1" fill="rgb(169,169,169)" stroke-width="0.05" stroke="rgb(0,0,0)" />
	<rect x="8" y="52" width="1" height="1" fill="rgb(169,169,169)" stroke-width="0.05" stroke="rgb(0,0,0)" />
	<rect x="8" y="51" width="1" height="1" fill="rgb(169,169,169)" stroke-width="0.05" stroke="rgb(0,0,0)" />
	<rect x="8" y="50" width="1" height="1" fill="rgb(169,169,169)" stroke-width="0.05" stroke="rgb(0,0,0)" />
	<rect x="8" y="49" width="1" height="1" fill="rgb(169,169,169)" stroke-width="0.05" stroke="rgb(0,0,0)" />
	<rect x="8" y="48" width="1" height="1" fill="rgb(169,169,169)" stroke-width="0.05" stroke="rgb(0,0,0)" />
	<rect x="8" y="47" width="1" height="1" fill="rgb(169,169,169)" stroke-width="0.05" stroke="rgb(0,0,0)" />
	<rect x="8" y="46" width="1" height="1" fill="rgb(169,169,169)" stroke-width="0.05" stroke="rgb(0,0,0)" />
	<rect x="8" y="45" width="1" height="1" fill="rgb(169,169,169)" stroke-width="0.05" stroke="rgb(0,0,0)" />
	<rect x="8" y="44" width="1" height="1" fill="rgb(169,169,169)" stroke-width="0.05" stroke="rgb(0,0,0)" />
	<rect x="8" y="43" width="1" height="1" fill="rgb(169,169,169)" stroke-width="0.05" stroke="rgb(0,0,0)" />
	<rect x="8" y="42" width="1" height="1" fill="rgb(169,169,169)" stroke-width="0.05" stroke="rgb(0,0,0)" />
	<rect x="8" y="41" width="1" height="1" fill="rgb(169,169,169)" stroke-width="0.05" stroke="rgb(0,0,0)" />
	<rect x="8" y="40" width="1" height="1" fill="rgb(169,169,169)" stroke-width="0.05" stroke="rgb(0,0,0)" />
	<rect x="8" y="39" width="1" height="1" fill="rgb(169,169,169)" stroke-width="0.05" stroke="rgb(0,0,0)" />
	<rect x="8" y="38" width="1" height="1" fill="rgb(169,169,169)" stroke-width="0.05" stroke="rgb(0,0,0)" />
	<rect x="8" y="37" width="1" height="1" fill="rgb(169,169,169)" stroke-width="0.05" stroke="rgb(0,0,0)" />
	<rect x="8" y="36" width="1" height="1" fill="rgb(169,169,169)" stroke-width="0.05" stroke="rgb(0,0,0)" />
	<rect x="8" y="35" width="1" height="1" fill="rgb(169,169,169)" stroke-width="0.05" stroke="rgb(0,0,0)" />
	<rect x="8" y="34" width="1" height="1" fill="rgb(169,169,169)" stroke-width="0.05" stroke="rgb(0,0,0)" />
	<rect x="8" y="33" width="1" height="1" fill="rgb(169,169,169)" stroke-width="0.05" stroke="rgb(0,0,0)" />
	<rect x="8" y="32" width="1" height="1" fill="rgb(169,169,169)" stroke-width="0.05" stroke="rgb(0,0,0)" />
	<rect x="8" y="31" width="1" height="1" fill="rgb(169,169,169)" stroke-width="0.05" stroke="rgb(0,0,0)" />
	<rect x="8" y="30" width="1" height="1" fill="rgb(169,169,169)" stroke-width="0.05" stroke="rgb(0,0,0)" />
	<rect x="8" y="29" width="1" height="1" fill="rgb(169,169,169)" stroke-width="0.05" stroke="rgb(0,0,0)" />
	<rect x="8" y="28" width="1" height="1" fill="rgb(169,169,169)" stroke-width="0.05" stroke="rgb(0,0,0)" />
	<rect x="8" y="27" width="1" height="1" fill="rgb(169,169,169)" stroke-width="0.05" stroke="rgb(0,0,0)" />
	<rect x="8" y="26" width="1" height="1" fill="rgb(169,169,169)" stroke-width="0.05" stroke="rgb(0,0,0)" />
	<rect x="8" y="25" width="1" height="1" fill="rgb(169,169,169)" stroke-width="0.05" stroke="rgb(0,0,0)" />
	<rect x="8" y="24" width="1" height="1" fill="rgb(169,169,169)" stroke-width="0.05" stroke="rgb(0,0,0)" />
	<rect x="8" y="23" width="1" height="1" fill="rgb(169,169,169)" stroke-width="0.05" stroke="rgb(0,0,0)" />
	<rect x="8" y="22" width="1" height="1" fill="rgb(169,169,169)" stroke-width="0.05" stroke="rgb(0,0,0)" />
	<rect x="8" y="21" width="1" height="1" fill="rgb(169,169,169)" stroke-width="0.05" stroke="rgb(0,0,0)" />
	<rect x="8" y="20" width="1" height="1" fill="rgb(169,169,169)" stroke-width="0.05" stroke="rgb(0,0,0)" />
	<rect x="8" y="19" width="1" height="1" fill="rgb(169,169,169)" stroke-width="0.05" stroke="rgb(0,0,0)" />
	<rect x="8" y="18" width="1" height="1" fill="rgb(169,169,169)" stroke-width="0.05" stroke="rgb(0,0,0)" />
	<rect x="8" y="17" width="1" height="1" fill="rgb(169,169,169)" stroke-width="0.05" stroke="rgb(0,0,0)" />
	<rect x="8" y="16" width="1" height="1" fill="rgb(169,169,169)" stroke-width="0.05" stroke="rgb(0,0,0)" />
	<rect x="8" y="15" width="1" height="1" fill="rgb(169,169,169)" stroke-width="0.05" stroke="rgb(0,0,0)" />
	<rect x="8" y="14" width="1" height="1" fill="rgb(169,169,169)" stroke-width="0.05" stroke="rgb(0,0,0)" />
	<rect x="8" y="13" width="1" height="1" fill="rgb(169,169,169)" stroke-width="0.05" stroke="rgb(0,0,0)" />
	<rect x="8" y="12" width="1" height="1" fill="rgb(169,169,169)" stroke-width="0.05" stroke="rgb(0,0,0)" />
	<rect x="8" y="11" width="1" height="1" fill="rgb(169,169,169)" stroke-width="0.05" stroke="rgb(0,0,0)" />
	<rect x="8" y="10" width="1" height="1" fill="rgb(169,169,169)" stroke-width="0.05" stroke="rgb(0,0,0)" />
	<rect x="8" y="9" width="1" height="1" fill="rgb(169,169,169)" stroke-width="0.05" stroke="rgb(0,0,0)" />
	<rect x="8" y="8" width="1" height="1" fill="rgb(169,169,169)" stroke-width="0.05" stroke="rgb(0,0,0)" />
	<rect x="8" y="7" width="1" height="1" fill="rgb(169,169,169)" stroke-width="0.05" stroke="rgb(0,0,0)" />
	<rect x="8" y="6" width="1" height="1" fill="rgb(169,169,169)" stroke-width="0.05" stroke="rgb(0,0,0)" />
	<rect x="8" y="5" width="1" height="1" fill="rgb(169,169,169)" stroke-width="0.05" stroke="rgb(0,0,0)" />
	<rect x="8" y="4" width="1" height="1" fill="rgb(169,169,169)" stroke-width="0.05" stroke="rgb(0,0,0)" />
	<rect x="8" y="3" width="1" height="1" fill="rgb(169,169,169)" stroke-width="0.05" stroke="rgb(0,0,0)" />
	<rect x="8" y="2" width="1" height="1" fill="rgb(169,169,169)" stroke-width="0.05" stroke="rgb(0,0,0)" />
	<rect x="8" y="1" width="1" height="1" fill="rgb(169,169,169)" stroke-width="0.05" stroke="rgb(0,0,0)" />
	<rect x="9" y="57" width="1" height="1" fill="rgb(169,169,169)" stroke-width="0.05" stroke="rgb(0,0,0)" />
	<rect x="9" y="56" width="1" height="1" fill="rgb(169,169,169)" stroke-width="0.05" stroke="rgb(0,0,0)" />
	<rect x="9" y="55" width="1" height="1" fill="rgb(169,169,169)" stroke-width="0.05" stroke="rgb(0,0,0)" />
	<rect x="9" y="54" width="1" height="1" fill="rgb(169,169,169)" stroke-width="0.05" stroke="rgb(0,0,0)" />
	<rect x="9" y="53" width="1" height="1" fill="rgb(169,169,169)" stroke-width="0.05" stroke="rgb(0,0,0)" />
	<rect x="9" y="52" width="1" height="1" fill="rgb(169,169,169)" stroke-width="0.05" stroke="rgb(0,0,0)" />
	<rect x="9" y="51" width="1" height="1" fill="rgb(169,169,169)" stroke-width="0.05" stroke="rgb(0,0,0)" />
	<rect x="9" y="50" width="1" height="1" fill="rgb(169,169,169)" stroke-width="0.05" stroke="rgb(0,0,0)" />
	<rect x="9" y="49" width="1" height="1" fill="rgb(169,169,169)" stroke-width="0.05" stroke="rgb(0,0,0)" />
	<rect x="9" y="48" width="1" height="1" fill="rgb(169,169,169)" stroke-width="0.05" stroke="rgb(0,0,0)" />
	<rect x="9" y="47" width="1" height="1" fill="rgb(169,169,169)" stroke-width="0.05" stroke="rgb(0,0,0)" />
	<rect x="9" y="46" width="1" height="1" fill="rgb(169,169,169)" stroke-width="0.05" stroke="rgb(0,0,0)" />
	<rect x="9" y="45" width="1" height="1" fill="rgb(169,169,169)" stroke-width="0.05" stroke="rgb(0,0,0)" />
	<rect x="9" y="44" width="1" height="1" fill="rgb(169,169,169)" stroke-width="0.05" stroke="rgb(0,0,0)" />
	<rect x="9" y="43" width="1" height="1" fill="rgb(169,169,169)" stroke-width="0.05" stroke="rgb(0,0,0)" />
	<rect x="9" y="42" width="1" height="1" fill="rgb(169,169,169)" stroke-width="0.05" stroke="rgb(0,0,0)" />
	<rect x="9" y="41" width="1" height="1" fill="rgb(169,169,169)" stroke-width="0.05" stroke="rgb(0,0,0)" />
	<rect x="9" y="40" width="1" height="1" fill="rgb(169,169,169)" stroke-width="0.05" stroke="rgb(0,0,0)" />
	<rect x="9" y="34" width="1" height="1" fill="rgb(169,169,169)" stroke-width="0.05" stroke="rgb(0,0,0)" />
	<rect x="9" y="33" width="1" height="1" fill="rgb(169,169,169)" stroke-width="0.05" stroke="rgb(0,0,0)" />
	<rect x="9" y="32" width="1" height="1" fill="rgb(169,169,169)" stroke-width="0.05" stroke="rgb(0,0,0)" />
	<rect x="9" y="31" width="1" height="1" fill="rgb(169,169,169)" stroke-width="0.05" stroke="rgb(0,0,0)" />
	<rect x="9" y="30" width="1" height="1" fill="rgb(169,169,169)" stroke-width="0.05" stroke="rgb(0,0,0)" />
	<rect x="9" y="29" width="1" height="1" fill="rgb(169,169,169)" stroke-width="0.05" stroke="rgb(0,0,0)" />
	<rect x="9" y="28" width="1" height="1" fill="rgb(169,169,169)" stroke-width="0.05" stroke="rgb(0,0,0)" />
	<rect x="9" y="27" width="1" height="1" fill="rgb(169,169,169)" stroke-width="0.05" stroke="rgb(0,0,0)" />
	<rect x="9" y="26" width="1" height="1" fill="rgb(169,169,169)" stroke-width="0.05" stroke="rgb(0,0,0)" />
	<rect x="9" y="25" width="1" height="1" fill="rgb(169,169,169)" stroke-width="0.05" stroke="rgb(0,0,0)" />
	<rect x="9" y="24" width="1" height="1" fill="rgb(169,169,169)" stroke-width="0.05" stroke="rgb(0,0,0)" />
	<rect x="9" y="23" width="1" height="1" fill="rgb(169,169,169)" stroke-width="0.05" stroke="rgb(0,0,0)" />
	<rect x="9" y="22" width="1" height="1" fill="rgb(169,169,169)" stroke-width="0.05" stroke="rgb(0,0,0)" />
	<rect x="9" y="21" width="1" height="1" fill="rgb(169,169,169)" stroke-width="0.05" stroke="rgb(0,0,0)" />
	<rect x="9" y="20" width="1" height="1" fill="rgb(169,169,169)" stroke-width="0.05" stroke="rgb(0,0,0)" />
	<rect x="9" y="19" width="1" height="1" fill="rgb(169,169,169)" stroke-width="0.05" stroke="rgb(0,0,0)" />
	<rect x="9" y="16" width="1" height="1" fill="rgb(169,169,169)" stroke-width="0.05" stroke="rgb(0,0,0)" />
	<rect x="9" y="15" width="1" height="1" fill="rgb(169,169,169)" stroke-width="0.05" stroke="rgb(0,0,0)" />
	<rect x="9" y="14" width="1" height="1" fill="rgb(169,169,169)" stroke-width="0.05" stroke="rgb(0,0,0)" />
	<rect x="9" y="13" width="1" height="1" fill="rgb(169,169,169)" stroke-width="0.05" stroke="rgb(0,0,0)" />
	<rect x="9" y="12" width="1" height="1" fill="rgb(169,169,169)" stroke-width="0.05" stroke="rgb(0,0,0)" />
	<rect x="9" y="11" width="1" height="1" fill="rgb(169,169,169)" stroke-width="0.05" stroke="rgb(0,0,0)" />
	<rect x="9" y="10" width="1" height="1" fill="rgb(169,169,169)" stroke-width="0.05" stroke="rgb(0,0,0)" />
	<rect x="9" y="9" width="1" height="1" fill="rgb(169,169,169)" stroke-width="0.05" stroke="rgb(0,0,0)" />
	<rect x="9" y="8" width="1" height="1" fill="rgb(169,169,169)" stroke-width="0.05" stroke="rgb(0,0,0)" />
	<rect x="10" y="57" width="1" height="1" fill="rgb(169,169,169)" stroke-width="0.05" stroke="rgb(0,0,0)" />
	<rect x="10" y="56" width="1" height="1" fill="rgb(169,169,169)" stroke-width="0.05" stroke="rgb(0,0,0)" />
	<rect x="10" y="55" width="1" height="1" fill="rgb(169,169,169)" stroke-width="0.05" stroke="rgb(0,0,0)" />
	<rect x="10" y="54" width="1" height="1" fill="rgb(169,169,169)" stroke-width="0.05" stroke="rgb(0,0,0)" />
	<rect x="10" y="53" width="1" height="1" fill="rgb(169,169,169)" stroke-width="0.05" stroke="rgb(0,0,0)" />
	<rect x="10" y="52" width="1" height="1" fill="rgb(169,169,169)" stroke-width="0.05" stroke="rgb(0,0,0)" />
	<rect x="10" y="51" width="1" height="1" fill="rgb(169,169,169)" stroke-width="0.05" stroke="rgb(0,0,0)" />
	<rect x="10" y="50" width="1" height="1" fill="rgb(169,169,169)" stroke-width="0.05" stroke="rgb(0,0,0)" />
	<rect x="10" y="49" width="1" height="1" fill="rgb(169,169,169)" stroke-width="0.05" stroke="rgb(0,0,0)" />
	<rect x="10" y="48" width="1" height="1" fill="rgb(169,169,169)" stroke-width="0.05" stroke="rgb(0,0,0)" />
	<rect x="10" y="47" width="1" height="1" fill="rgb(169,169,169)" stroke-width="0.05" stroke="rgb(0,0,0)" />
	<rect x="10" y="46" width="1" height="1" fill="rgb(169,169,169)" stroke-width="0.05" stroke="rgb(0,0,0)" />
	<rect x="10" y="45" width="1" height="1" fill="rgb(169,169,169)" stroke-width="0.05" stroke="rgb(0,0,0)" />
	<rect x="10" y="44" width="1" height="1" fill="rgb(169,169,169)" stroke-width="0.05" stroke="rgb(0,0,0)" />
	<rect x="10" y="43" width="1" height="1" fill="rgb(169,169,169)" stroke-width="0.05" stroke="rgb(0,0,0)" />
	<rect x="10" y="42" width="1" height="1" fill="rgb(169,169,169)" stroke-width="0.05" stroke="rgb(0,0,0)" />
	<rect x="10" y="41" width="1" height="1" fill="rgb(169,169,169)" stroke-width="0.05" stroke="rgb(0,0,0)" />
	<rect x="10" y="40" width="1" height="1" fill="rgb(169,169,169)" stroke-width="0.05" stroke="rgb(0,0,0)" />
	<rect x="10" y="16" width="1" height="1" fill="rgb(169,169,169)" stroke-width="0.05" stroke="rgb(0,0,0)" />
	<rect x="10" y="15" width="1" height="1" fill="rgb(169,169,169)" stroke-width="0.05" stroke="rgb(0,0,0)" />
	<rect x="10" y="14" width="1" height="1" fill="rgb(169,169,169)" stroke-width="0.05" stroke="rgb(0,0,0)" />
	<rect x="10" y="13" width="1" height="1" fill="rgb(169,169,169)" stroke-width="0.05" stroke="rgb(0,0,0)" />
	<rect x="10" y="12" width="1" height="1" fill="rgb(169,169,169)" stroke-width="0.05" stroke="rgb(0,0,0)" />
	<rect x="10" y="11" width="1" height="1" fill="rgb(169,169,169)" stroke-width="0.05" stroke="rgb(0,0,0)" />
	<rect x="10" y="10" width="1" height="1" fill="rgb(169,169,169)" stroke-width="0.05" stroke="rgb(0,0,0)" />
	<rect x="10" y="9" width="1" height="1" fill="rgb(169,169,169)" stroke-width="0.05" stroke="rgb(0,0,0)" />
	<rect x="10" y="8" width="1" height="1" fill="rgb(169,169,169)" stroke-width="0.05" stroke="rgb(0,0,0)" />
	<rect x="11" y="50" width="1" height="1" fill="rgb(169,169,169)" stroke-width="0.05" stroke="rgb(0,0,0)" />
	<rect x="11" y="49" width="1" height="1" fill="rgb(169,169,169)" stroke-width="0.05" stroke="rgb(0,0,0)" />
	<rect x="11" y="48" width="1" height="1" fill="rgb(169,169,169)" stroke-width="0.05" stroke="rgb(0,0,0)" />
	<rect x="11" y="47" width="1" height="1" fill="rgb(169,169,169)" stroke-width="0.05" stroke="rgb(0,0,0)" />
	<rect x="11" y="46" width="1" height="1" fill="rgb(169,169,169)" stroke-width="0.05" stroke="rgb(0,0,0)" />
	<rect x="11" y="45" width="1" height="1" fill="rgb(169,169,169)" stroke-width="0.05" stroke="rgb(0,0,0)" />
	<rect x="11" y="44" width="1" height="1" fill="rgb(169,169,169)" stroke-width="0.05" stroke="rgb(0,0,0)" />
	<rect x="11" y="43" width="1" height="1" fill="rgb(169,169,169)" stroke-width="0.05" stroke="rgb(0,0,0)" />
	<rect x="11" y="42" width="1" height="1" fill="rgb(169,169,169)" stroke-width="0.05" stroke="rgb(0,0,0)" />
	<rect x="11" y="41" width="1" height="1" fill="rgb(169,169,169)" stroke-width="0.05" stroke="rgb(0,0,0)" />
	<rect x="11" y="40" width="1" height="1" fill="rgb(169,169,169)" stroke-width="0.05" stroke="rgb(0,0,0)" />
	<rect x="11" y="16" width="1" height="1" fill="rgb(169,169,169)" stroke-width="0.05" stroke="rgb(0,0,0)" />
	<rect x="11" y="15" width="1" height="1" fill="rgb(169,169,169)" stroke-width="0.05" stroke="rgb(0,0,0)" />
	<rect x="11" y="14" width="1" height="1" fill="rgb(169,169,169)" stroke-width="0.05" stroke="rgb(0,0,0)" />
	<rect x="11" y="13" width="1" height="1" fill="rgb(169,169,169)" stroke-width="0.05" stroke="rgb(0,0,0)" />
	<rect x="11" y="12" width="1" height="1" fill="rgb(169,169,169)" stroke-width="0.05" stroke="rgb(0,0,0)" />
	<rect x="11" y="11" width="1" height="1" fill="rgb(169,169,169)" stroke-width="0.05" stroke="rgb(0,0,0)" />
	<rect x="11" y="10" width="1" height="1" fill="rgb(169,169,169)" stroke-width="0.05" stroke="rgb(0,0,0)" />
	<rect x="11" y="9" width="1" height="1" fill="rgb(169,169,169)" stroke-width="0.05" stroke="rgb(0,0,0)" />
	<rect x="11" y="8" width="1" height="1" fill="rgb(169,169,169)" stroke-width="0.05" stroke="rgb(0,0,0)" />
	<rect x="12" y="50" width="1" height="1" fill="rgb(169,169,169)" stroke-width="0.05" stroke="rgb(0,0,0)" />
	<rect x="12" y="49" width="1" height="1" fill="rgb(169,169,169)" stroke-width="0.05" stroke="rgb(0,0,0)" />
	<rect x="12" y="48" width="1" height="1" fill="rgb(169,169,169)" stroke-width="0.05" stroke="rgb(0,0,0)" />
	<rect x="12" y="47" width="1" height="1" fill="rgb(169,169,169)" stroke-width="0.05" stroke="rgb(0,0,0)" />
	<rect x="12" y="46" width="1" height="1" fill="rgb(169,169,169)" stroke-width="0.05" stroke="rgb(0,0,0)" />
	<rect x="12" y="45" width="1" height="1" fill="rgb(169,169,169)" stroke-width="0.05" stroke="rgb(0,0,0)" />
	<rect x="12" y="44" width="1" height="1" fill="rgb(169,169,169)" stroke-width="0.05" stroke="rgb(0,0,0)" />
	<rect x="12" y="43" width="1" height="1" fill="rgb(169,169,169)" stroke-width="0.05" stroke="rgb(0,0,0)" />
	<rect x="12" y="42" width="1" height="1" fill="rgb(169,169,169)" stroke-width="0.05" stroke="rgb(0,0,0)" />
	<rect x="12" y="41" width="1" height="1" fill="rgb(169,169,169)" stroke-width="0.05" stroke="rgb(0,0,0)" />
	<rect x="12" y="40" width="1" height="1" fill="rgb(169,169,169)" stroke-width="0.05" stroke="rgb(0,0,0)" />
	<rect x="12" y="16" width="1" height="1" fill="rgb(169,169,169)" stroke-width="0.05" stroke="rgb(0,0,0)" />
	<rect x="12" y="15" width="1" height="1" fill="rgb(169,169,169)" stroke-width="0.05" stroke="rgb(0,0,0)" />
	<rect x="12" y="14" width="1" height="1" fill="rgb(169,169,169)" stroke-width="0.05" stroke="rgb(0,0,0)" />
	<rect x="12" y="13" width="1" height="1" fill="rgb(169,169,169)" stroke-width="0.05" stroke="rgb(0,0,0)" />
	<rect x="12" y="12" width="1" height="1" fill="rgb(169,169,169)" stroke-width="0.05" stroke="rgb(0,0,0)" />
	<rect x="12" y="11" width="1" height="1" fill="rgb(169,169,169)" stroke-width="0.05" stroke="rgb(0,0,0)" />
	<rect x="12" y="10" width="1" height="1" fill="rgb(169,169,169)" stroke-width="0.05" stroke="rgb(0,0,0)" />
	<rect x="12" y="9" width="1" height="1" fill="rgb(169,169,169)" stroke-width="0.05" stroke="rgb(0,0,0)" />
	<rect x="12" y="8" width="1" height="1" fill="rgb(169,169,169)" stroke-width="0.05" stroke="rgb(0,0,0)" />
	<rect x="13" y="16" width="1" height="1" fill="rgb(169,169,169)" stroke-width="0.05" stroke="rgb(0,0,0)" />
	<rect x="13" y="15" width="1" height="1" fill="rgb(169,169,169)" stroke-width="0.05" stroke="rgb(0,0,0)" />
	<rect x="13" y="14" width="1" height="1" fill="rgb(169,169,169)" stroke-width="0.05" stroke="rgb(0,0,0)" />
	<rect x="13" y="13" width="1" height="1" fill="rgb(169,169,169)" stroke-width="0.05" stroke="rgb(0,0,0)" />
	<rect x="13" y="12" width="1" height="1" fill="rgb(169,169,169)" stroke-width="0.05" stroke="rgb(0,0,0)" />
	<rect x="13" y="11" width="1" height="1" fill="rgb(169,169,169)" stroke-width="0.05" stroke="rgb(0,0,0)" />
	<rect x="13" y="10" width="1" height="1" fill="rgb(169,169,169)" stroke-width="0.05" stroke="rgb(0,0,0)" />
	<rect x="13" y="9" width="1" height="1" fill="rgb(169,169,169)" stroke-width="0.05" stroke="rgb(0,0,0)" />
	<rect x="13" y="8" width="1" height="1" fill="rgb(169,169,169)" stroke-width="0.05" stroke="rgb(0,0,0)" />
	<rect x="14" y="16" width="1" height="1" fill="rgb(169,169,169)" stroke-width="0.05" stroke="rgb(0,0,0)" />
	<rect x="14" y="15" width="1" height="1" fill="rgb(169,169,169)" stroke-width="0.05" stroke="rgb(0,0,0)" />
	<rect x="14" y="14" width="1" height="1" fill="rgb(169,169,169)" stroke-width="0.05" stroke="rgb(0,0,0)" />
	<rect x="14" y="13" width="1" height="1" fill="rgb(169,169,169)" stroke-width="0.05" stroke="rgb(0,0,0)" />
	<rect x="14" y="12" width="1" height="1" fill="rgb(169,169,169)" stroke-width="0.05" stroke="rgb(0,0,0)" />
	<rect x="14" y="11" width="1" height="1" fill="rgb(169,169,169)" stroke-width="0.05" stroke="rgb(0,0,0)" />
	<rect x="14" y="10" width="1" height="1" fill="rgb(169,169,169)" stroke-width="0.05" stroke="rgb(0,0,0)" />
	<rect x="14" y="9" width="1" height="1" fill="rgb(169,169,169)" stroke-width="0.05" stroke="rgb(0,0,0)" />
	<rect x="14" y="8" width="1" height="1" fill="rgb(169,169,169)" stroke-width="0.05" stroke="rgb(0,0,0)" />
	<rect x="15" y="16" width="1" height="1" fill="rgb(169,169,169)" stroke-width="0.05" stroke="rgb(0,0,0)" />
	<rect x="15" y="15" width="1" height="1" fill="rgb(169,169,169)" stroke-width="0.05" stroke="rgb(0,0,0)" />
	<rect x="15" y="14" width="1" height="1" fill="rgb(169,169,169)" stroke-width="0.05" stroke="rgb(0,0,0)" />
	<rect x="15" y="13" width="1" height="1" fill="rgb(169,169,169)" stroke-width="0.05" stroke="rgb(0,0,0)" />
	<rect x="15" y="12" width="1" height="1" fill="rgb(169,169,169)" stroke-width="0.05" stroke="rgb(0,0,0)" />
	<rect x="15" y="11" width="1" height="1" fill="rgb(169,169,169)" stroke-width="0.05" stroke="rgb(0,0,0)" />
	<rect x="15" y="10" width="1" height="1" fill="rgb(169,169,169)" stroke-width="0.05" stroke="rgb(0,0,0)" />
	<rect x="15" y="9" width="1" height="1" fill="rgb(169,169,169)" stroke-width="0.05" stroke="rgb(0,0,0)" />
	<rect x="15" y="8" width="1" height="1" fill="rgb(169,169,169)" stroke-width="0.05" stroke="rgb(0,0,0)" />
	<rect x="16" y="16" width="1" height="1" fill="rgb(169,169,169)" stroke-width="0.05" stroke="rgb(0,0,0)" />
	<rect x="16" y="15" width="1" height="1" fill="rgb(169,169,169)" stroke-width="0.05" stroke="rgb(0,0,0)" />
	<rect x="16" y="14" width="1" height="1" fill="rgb(169,169,169)" stroke-width="0.05" stroke="rgb(0,0,0)" />
	<rect x="16" y="13" width="1" height="1" fill="rgb(169,169,169)" stroke-width="0.05" stroke="rgb(0,0,0)" />
	<rect x="16" y="12" width="1" height="1" fill="rgb(169,169,169)" stroke-width="0.05" stroke="rgb(0,0,0)" />
	<rect x="16" y="11" width="1" height="1" fill="rgb(169,169,169)" stroke-width="0.05" stroke="rgb(0,0,0)" />
	<rect x="16" y="10" width="1" height="1" fill="rgb(169,169,169)" stroke-width="0.05" stroke="rgb(0,0,0)" />
	<rect x="16" y="9" width="1" height="1" fill="rgb(169,169,169)" stroke-width="0.05" stroke="rgb(0,0,0)" />
	<rect x="16" y="8" width="1" height="1" fill="rgb(169,169,169)" stroke-width="0.05" stroke="rgb(0,0,0)" />
</svg>
