<?xml version="1.0" standalone="no" ?>
<!DOCTYPE svg PUBLIC "-//W3C//DTD SVG 1.1//EN" "http://www.w3.org/Graphics/SVG/1.1/DTD/svg11.dtd">
<svg width="79px" height="29px" xmlns="http://www.w3.org/2000/svg" version="1.1" >
	<rect x="1" y="4" width="1" height="1" fill="rgb(169,169,169)" stroke-width="0.05" stroke="rgb(0,0,0)" />
	<rect x="2" y="4" width="1" height="1" fill="rgb(169,169,169)" stroke-width="0.05" stroke="rgb(0,0,0)" />
	<rect x="3" y="4" width="1" height="1" fill="rgb(169,169,169)" stroke-width="0.05" stroke="rgb(0,0,0)" />
	<rect x="4" y="4" width="1" height="1" fill="rgb(169,169,169)" stroke-width="0.05" stroke="rgb(0,0,0)" />
	<rect x="5" y="4" width="1" height="1" fill="rgb(169,169,169)" stroke-width="0.05" stroke="rgb(0,0,0)" />
	<rect x="6" y="4" width="1" height="1" fill="rgb(169,169,169)" stroke-width="0.05" stroke="rgb(0,0,0)" />
	<rect x="7" y="4" width="1" height="1" fill="rgb(169,169,169)" stroke-width="0.05" stroke="rgb(0,0,0)" />
	<rect x="8" y="4" width="1" height="1" fill="rgb(169,169,169)" stroke-width="0.05" stroke="rgb(0,0,0)" />
	<rect x="9" y="4" width="1" height="1" fill="rgb(169,169,169)" stroke-width="0.05" stroke="rgb(0,0,0)" />
	<rect x="10" y="4" width="1" height="1" fill="rgb(169,169,169)" stroke-width="0.05" stroke="rgb(0,0,0)" />
	<rect x="11" y="4" width="1" height="1" fill="rgb(169,169,169)" stroke-width="0.05" stroke="rgb(0,0,0)" />
	<rect x="12" y="4" width="1" height="1" fill="rgb(169,169,169)" stroke-width="0.05" stroke="rgb(0,0,0)" />
	<rect x="13" y="4" width="1" height="1" fill="rgb(169,169,169)" stroke-width="0.05" stroke="rgb(0,0,0)" />
	<rect x="14" y="4" width="1" height="1" fill="rgb(169,169,169)" stroke-width="0.05" stroke="rgb(0,0,0)" />
	<rect x="15" y="4" width="1" height="1" fill="rgb(169,169,169)" stroke-width="0.05" stroke="rgb(0,0,0)" />
	<rect x="16" y="4" width="1" height="1" fill="rgb(169,169,169)" stroke-width="0.05" stroke="rgb(0,0,0)" />
	<rect x="17" y="4" width="1" height="1" fill="rgb(169,169,169)" stroke-width="0.05" stroke="rgb(0,0,0)" />
	<rect x="18" y="4" width="1" height="1" fill="rgb(169,169,169)" stroke-width="0.05" stroke="rgb(0,0,0)" />
	<rect x="19" y="4" width="1" height="1" fill="rgb(169,169,169)" stroke-width="0.05" stroke="rgb(0,0,0)" />
	<rect x="20" y="4" width="1" height="1" fill="rgb(169,169,169)" stroke-width="0.05" stroke="rgb(0,0,0)" />
	<rect x="21" y="4" width="1" height="1" fill="rgb(169,169,169)" stroke-width="0.05" stroke="rgb(0,0,0)" />
	<rect x="22" y="4" width="1" height="1" fill="rgb(169,169,169)" stroke-width="0.05" stroke="rgb(0,0,0)" />
	<rect x="23" y="4" width="1" height="1" fill="rgb(169,169,169)" stroke-width="0.05" stroke="rgb(0,0,0)" />
	<rect x="24" y="4" width="1" height="1" fill="rgb(169,169,169)" stroke-width="0.05" stroke="rgb(0,0,0)" />
	<rect x="25" y="4" width="1" height="1" fill="rgb(169,169,169)" stroke-width="0.05" stroke="rgb(0,0,0)" />
	<rect x="26" y="4" width="1" height="1" fill="rgb(169,169,169)" stroke-width="0.05" stroke="rgb(0,0,0)" />
	<rect x="27" y="4" width="1" height="1" fill="rgb(169,169,169)" stroke-width="0.05" stroke="rgb(0,0,0)" />
	<rect x="28" y="4" width="1" height="1" fill="rgb(169,169,169)" stroke-width="0.05" stroke="rgb(0,0,0)" />
	<rect x="29" y="4" width="1" height="1" fill="rgb(169,169,169)" stroke-width="0.05" stroke="rgb(0,0,0)" />
	<rect x="30" y="4" width="1" height="1" fill="rgb(169,169,169)" stroke-width="0.05" stroke="rgb(0,0,0)" />
	<rect x="31" y="4" width="1" height="1" fill="rgb(169,169,169)" stroke-width="0.05" stroke="rgb(0,0,0)" />
	<rect x="32" y="4" width="1" height="1" fill="rgb(169,169,169)" stroke-width="0.05" stroke="rgb(0,0,0)" />
	<rect x="33" y="4" width="1" height="1" fill="rgb(169,169,169)" stroke-width="0.05" stroke="rgb(0,0,0)" />
	<rect x="34" y="4" width="1" height="1" fill="rgb(169,169,169)" stroke-width="0.05" stroke="rgb(0,0,0)" />
	<rect x="35" y="4" width="1" height="1" fill="rgb(169,169,169)" stroke-width="0.05" stroke="rgb(0,0,0)" />
	<rect x="36" y="4" width="1" height="1" fill="rgb(169,169,169)" stroke-width="0.05" stroke="rgb(0,0,0)" />
	<rect x="37" y="4" width="1" height="1" fill="rgb(169,169,169)" stroke-width="0.05" stroke="rgb(0,0,0)" />
	<rect x="38" y="4" width="1" height="1" fill="rgb(169,169,169)" stroke-width="0.05" stroke="rgb(0,0,0)" />
	<rect x="39" y="4" width="1" height="1" fill="rgb(169,169,169)" stroke-width="0.05" stroke="rgb(0,0,0)" />
	<rect x="40" y="4" width="1" height="1" fill="rgb(169,169,169)" stroke-width="0.05" stroke="rgb(0,0,0)" />
	<rect x="41" y="4" width="1" height="1" fill="rgb(169,169,169)" stroke-width="0.05" stroke="rgb(0,0,0)" />
	<rect x="42" y="16" width="1" height="1" fill="rgb(169,169,169)" stroke-width="0.05" stroke="rgb(0,0,0)" />
	<rect x="42" y="15" width="1" height="1" fill="rgb(169,169,169)" stroke-width="0.05" stroke="rgb(0,0,0)" />
	<rect x="42" y="14" width="1" height="1" fill="rgb(169,169,169)" stroke-width="0.05" stroke="rgb(0,0,0)" />
	<rect x="42" y="13" width="1" height="1" fill="rgb(169,169,169)" stroke-width="0.05" stroke="rgb(0,0,0)" />
	<rect x="42" y="12" width="1" height="1" fill="rgb(169,169,169)" stroke-width="0.05" stroke="rgb(0,0,0)" />
	<rect x="42" y="11" width="1" height="1" fill="rgb(169,169,169)" stroke-width="0.05" stroke="rgb(0,0,0)" />
	<rect x="42" y="4" width="1" height="1" fill="rgb(169,169,169)" stroke-width="0.05" stroke="rgb(0,0,0)" />
	<rect x="43" y="16" width="1" height="1" fill="rgb(169,169,169)" stroke-width="0.05" stroke="rgb(0,0,0)" />
	<rect x="43" y="15" width="1" height="1" fill="rgb(169,169,169)" stroke-width="0.05" stroke="rgb(0,0,0)" />
	<rect x="43" y="14" width="1" height="1" fill="rgb(169,169,169)" stroke-width="0.05" stroke="rgb(0,0,0)" />
	<rect x="43" y="13" width="1" height="1" fill="rgb(169,169,169)" stroke-width="0.05" stroke="rgb(0,0,0)" />
	<rect x="43" y="12" width="1" height="1" fill="rgb(169,169,169)" stroke-width="0.05" stroke="rgb(0,0,0)" />
	<rect x="43" y="11" width="1" height="1" fill="rgb(169,169,169)" stroke-width="0.05" stroke="rgb(0,0,0)" />
	<rect x="43" y="4" width="1" height="1" fill="rgb(169,169,169)" stroke-width="0.05" stroke="rgb(0,0,0)" />
	<rect x="44" y="21" width="1" height="1" fill="rgb(169,169,169)" stroke-width="0.05" stroke="rgb(0,0,0)" />
	<rect x="44" y="20" width="1" height="1" fill="rgb(169,169,169)" stroke-width="0.05" stroke="rgb(0,0,0)" />
	<rect x="44" y="19" width="1" height="1" fill="rgb(169,169,169)" stroke-width="0.05" stroke="rgb(0,0,0)" />
	<rect x="44" y="18" width="1" height="1" fill="rgb(169,169,169)" stroke-width="0.05" stroke="rgb(0,0,0)" />
	<rect x="44" y="17" width="1" height="1" fill="rgb(169,169,169)" stroke-width="0.05" stroke="rgb(0,0,0)" />
	<rect x="44" y="16" width="1" height="1" fill="rgb(169,169,169)" stroke-width="0.05" stroke="rgb(0,0,0)" />
	<rect x="44" y="15" width="1" height="1" fill="rgb(169,169,169)" stroke-width="0.05" stroke="rgb(0,0,0)" />
	<rect x="44" y="14" width="1" height="1" fill="rgb(169,169,169)" stroke-width="0.05" stroke="rgb(0,0,0)" />
	<rect x="44" y="13" width="1" height="1" fill="rgb(169,169,169)" stroke-width="0.05" stroke="rgb(0,0,0)" />
	<rect x="44" y="12" width="1" height="1" fill="rgb(169,169,169)" stroke-width="0.05" stroke="rgb(0,0,0)" />
	<rect x="44" y="11" width="1" height="1" fill="rgb(169,169,169)" stroke-width="0.05" stroke="rgb(0,0,0)" />
	<rect x="44" y="10" width="1" height="1" fill="rgb(169,169,169)" stroke-width="0.05" stroke="rgb(0,0,0)" />
	<rect x="44" y="9" width="1" height="1" fill="rgb(169,169,169)" stroke-width="0.05" stroke="rgb(0,0,0)" />
	<rect x="44" y="8" width="1" height="1" fill="rgb(169,169,169)" stroke-width="0.05" stroke="rgb(0,0,0)" />
	<rect x="44" y="7" width="1" height="1" fill="rgb(169,169,169)" stroke-width="0.05" stroke="rgb(0,0,0)" />
	<rect x="44" y="6" width="1" height="1" fill="rgb(169,169,169)" stroke-width="0.05" stroke="rgb(0,0,0)" />
	<rect x="44" y="4" width="1" height="1" fill="rgb(169,169,169)" stroke-width="0.05" stroke="rgb(0,0,0)" />
	<rect x="45" y="21" width="1" height="1" fill="rgb(169,169,169)" stroke-width="0.05" stroke="rgb(0,0,0)" />
	<rect x="45" y="20" width="1" height="1" fill="rgb(169,169,169)" stroke-width="0.05" stroke="rgb(0,0,0)" />
	<rect x="45" y="19" width="1" height="1" fill="rgb(169,169,169)" stroke-width="0.05" stroke="rgb(0,0,0)" />
	<rect x="45" y="18" width="1" height="1" fill="rgb(169,169,169)" stroke-width="0.05" stroke="rgb(0,0,0)" />
	<rect x="45" y="17" width="1" height="1" fill="rgb(169,169,169)" stroke-width="0.05" stroke="rgb(0,0,0)" />
	<rect x="45" y="16" width="1" height="1" fill="rgb(169,169,169)" stroke-width="0.05" stroke="rgb(0,0,0)" />
	<rect x="45" y="15" width="1" height="1" fill="rgb(169,169,169)" stroke-width="0.05" stroke="rgb(0,0,0)" />
	<rect x="45" y="14" width="1" height="1" fill="rgb(169,169,169)" stroke-width="0.05" stroke="rgb(0,0,0)" />
	<rect x="45" y="13" width="1" height="1" fill="rgb(169,169,169)" stroke-width="0.05" stroke="rgb(0,0,0)" />
	<rect x="45" y="12" width="1" height="1" fill="rgb(169,169,169)" stroke-width="0.05" stroke="rgb(0,0,0)" />
	<rect x="45" y="11" width="1" height="1" fill="rgb(169,169,169)" stroke-width="0.05" stroke="rgb(0,0,0)" />
	<rect x="45" y="10" width="1" height="1" fill="rgb(169,169,169)" stroke-width="0.05" stroke="rgb(0,0,0)" />
	<rect x="45" y="9" width="1" height="1" fill="rgb(169,169,169)" stroke-width="0.05" stroke="rgb(0,0,0)" />
	<rect x="45" y="8" width="1" height="1" fill="rgb(169,169,169)" stroke-width="0.05" stroke="rgb(0,0,0)" />
	<rect x="45" y="7" width="1" height="1" fill="rgb(169,169,169)" stroke-width="0.05" stroke="rgb(0,0,0)" />
	<rect x="45" y="6" width="1" height="1" fill="rgb(169,169,169)" stroke-width="0.05" stroke="rgb(0,0,0)" />
	<rect x="45" y="4" width="1" height="1" fill="rgb(169,169,169)" stroke-width="0.05" stroke="rgb(0,0,0)" />
	<rect x="46" y="21" width="1" height="1" fill="rgb(169,169,169)" stroke-width="0.05" stroke="rgb(0,0,0)" />
	<rect x="46" y="20" width="1" height="1" fill="rgb(169,169,169)" stroke-width="0.05" stroke="rgb(0,0,0)" />
	<rect x="46" y="19" width="1" height="1" fill="rgb(169,169,169)" stroke-width="0.05" stroke="rgb(0,0,0)" />
	<rect x="46" y="18" width="1" height="1" fill="rgb(169,169,169)" stroke-width="0.05" stroke="rgb(0,0,0)" />
	<rect x="46" y="17" width="1" height="1" fill="rgb(169,169,169)" stroke-width="0.05" stroke="rgb(0,0,0)" />
	<rect x="46" y="16" width="1" height="1" fill="rgb(169,169,169)" stroke-width="0.05" stroke="rgb(0,0,0)" />
	<rect x="46" y="15" width="1" height="1" fill="rgb(169,169,169)" stroke-width="0.05" stroke="rgb(0,0,0)" />
	<rect x="46" y="14" width="1" height="1" fill="rgb(169,169,169)" stroke-width="0.05" stroke="rgb(0,0,0)" />
	<rect x="46" y="13" width="1" height="1" fill="rgb(169,169,169)" stroke-width="0.05" stroke="rgb(0,0,0)" />
	<rect x="46" y="12" width="1" height="1" fill="rgb(169,169,169)" stroke-width="0.05" stroke="rgb(0,0,0)" />
	<rect x="46" y="11" width="1" height="1" fill="rgb(169,169,169)" stroke-width="0.05" stroke="rgb(0,0,0)" />
	<rect x="46" y="10" width="1" height="1" fill="rgb(169,169,169)" stroke-width="0.05" stroke="rgb(0,0,0)" />
	<rect x="46" y="9" width="1" height="1" fill="rgb(169,169,169)" stroke-width="0.05" stroke="rgb(0,0,0)" />
	<rect x="46" y="8" width="1" height="1" fill="rgb(169,169,169)" stroke-width="0.05" stroke="rgb(0,0,0)" />
	<rect x="46" y="7" width="1" height="1" fill="rgb(169,169,169)" stroke-width="0.05" stroke="rgb(0,0,0)" />
	<rect x="46" y="6" width="1" height="1" fill="rgb(169,169,169)" stroke-width="0.05" stroke="rgb(0,0,0)" />
	<rect x="46" y="4" width="1" height="1" fill="rgb(169,169,169)" stroke-width="0.05" stroke="rgb(0,0,0)" />
	<rect x="47" y="25" width="1" height="1" fill="rgb(169,169,169)" stroke-width="0.05" stroke="rgb(0,0,0)" />
	<rect x="47" y="24" width="1" height="1" fill="rgb(169,169,169)" stroke-width="0.05" stroke="rgb(0,0,0)" />
	<rect x="47" y="23" width="1" height="1" fill="rgb(169,169,169)" stroke-width="0.05" stroke="rgb(0,0,0)" />
	<rect x="47" y="22" width="1" height="1" fill="rgb(169,169,169)" stroke-width="0.05" stroke="rgb(0,0,0)" />
	<rect x="47" y="21" width="1" height="1" fill="rgb(169,169,169)" stroke-width="0.05" stroke="rgb(0,0,0)" />
	<rect x="47" y="20" width="1" height="1" fill="rgb(169,169,169)" stroke-width="0.05" stroke="rgb(0,0,0)" />
	<rect x="47" y="19" width="1" height="1" fill="rgb(169,169,169)" stroke-width="0.05" stroke="rgb(0,0,0)" />
	<rect x="47" y="18" width="1" height="1" fill="rgb(169,169,169)" stroke-width="0.05" stroke="rgb(0,0,0)" />
	<rect x="47" y="17" width="1" height="1" fill="rgb(169,169,169)" stroke-width="0.05" stroke="rgb(0,0,0)" />
	<rect x="47" y="16" width="1" height="1" fill="rgb(169,169,169)" stroke-width="0.05" stroke="rgb(0,0,0)" />
	<rect x="47" y="15" width="1" height="1" fill="rgb(169,169,169)" stroke-width="0.05" stroke="rgb(0,0,0)" />
	<rect x="47" y="14" width="1" height="1" fill="rgb(169,169,169)" stroke-width="0.05" stroke="rgb(0,0,0)" />
	<rect x="47" y="13" width="1" height="1" fill="rgb(169,169,169)" stroke-width="0.05" stroke="rgb(0,0,0)" />
	<rect x="47" y="12" width="1" height="1" fill="rgb(169,169,169)" stroke-width="0.05" stroke="rgb(0,0,0)" />
	<rect x="47" y="11" width="1" height="1" fill="rgb(169,169,169)" stroke-width="0.05" stroke="rgb(0,0,0)" />
	<rect x="47" y="10" width="1" height="1" fill="rgb(169,169,169)" stroke-width="0.05" stroke="rgb(0,0,0)" />
	<rect x="47" y="9" width="1" height="1" fill="rgb(169,169,169)" stroke-width="0.05" stroke="rgb(0,0,0)" />
	<rect x="47" y="8" width="1" height="1" fill="rgb(169,169,169)" stroke-width="0.05" stroke="rgb(0,0,0)" />
	<rect x="47" y="7" width="1" height="1" fill="rgb(169,169,169)" stroke-width="0.05" stroke="rgb(0,0,0)" />
	<rect x="47" y="6" width="1" height="1" fill="rgb(169,169,169)" stroke-width="0.05" stroke="rgb(0,0,0)" />
	<rect x="47" y="4" width="1" height="1" fill="rgb(169,169,169)" stroke-width="0.05" stroke="rgb(0,0,0)" />
	<rect x="48" y="27" width="1" height="1" fill="rgb(169,169,169)" stroke-width="0.05" stroke="rgb(0,0,0)" />
	<rect x="48" y="26" width="1" height="1" fill="rgb(169,169,169)" stroke-width="0.05" stroke="rgb(0,0,0)" />
	<rect x="48" y="25" width="1" height="1" fill="rgb(169,169,169)" stroke-width="0.05" stroke="rgb(0,0,0)" />
	<rect x="48" y="24" width="1" height="1" fill="rgb(169,169,169)" stroke-width="0.05" stroke="rgb(0,0,0)" />
	<rect x="48" y="23" width="1" height="1" fill="rgb(169,169,169)" stroke-width="0.05" stroke="rgb(0,0,0)" />
	<rect x="48" y="22" width="1" height="1" fill="rgb(169,169,169)" stroke-width="0.05" stroke="rgb(0,0,0)" />
	<rect x="48" y="21" width="1" height="1" fill="rgb(169,169,169)" stroke-width="0.05" stroke="rgb(0,0,0)" />
	<rect x="48" y="20" width="1" height="1" fill="rgb(169,169,169)" stroke-width="0.05" stroke="rgb(0,0,0)" />
	<rect x="48" y="19" width="1" height="1" fill="rgb(169,169,169)" stroke-width="0.05" stroke="rgb(0,0,0)" />
	<rect x="48" y="18" width="1" height="1" fill="rgb(169,169,169)" stroke-width="0.05" stroke="rgb(0,0,0)" />
	<rect x="48" y="17" width="1" height="1" fill="rgb(169,169,169)" stroke-width="0.05" stroke="rgb(0,0,0)" />
	<rect x="48" y="16" width="1" height="1" fill="rgb(169,169,169)" stroke-width="0.05" stroke="rgb(0,0,0)" />
	<rect x="48" y="15" width="1" height="1" fill="rgb(169,169,169)" stroke-width="0.05" stroke="rgb(0,0,0)" />
	<rect x="48" y="14" width="1" height="1" fill="rgb(169,169,169)" stroke-width="0.05" stroke="rgb(0,0,0)" />
	<rect x="48" y="13" width="1" height="1" fill="rgb(169,169,169)" stroke-width="0.05" stroke="rgb(0,0,0)" />
	<rect x="48" y="12" width="1" height="1" fill="rgb(169,169,169)" stroke-width="0.05" stroke="rgb(0,0,0)" />
	<rect x="48" y="11" width="1" height="1" fill="rgb(169,169,169)" stroke-width="0.05" stroke="rgb(0,0,0)" />
	<rect x="48" y="10" width="1" height="1" fill="rgb(169,169,169)" stroke-width="0.05" stroke="rgb(0,0,0)" />
	<rect x="48" y="9" width="1" height="1" fill="rgb(169,169,169)" stroke-width="0.05" stroke="rgb(0,0,0)" />
	<rect x="48" y="8" width="1" height="1" fill="rgb(169,169,169)" stroke-width="0.05" stroke="rgb(0,0,0)" />
	<rect x="48" y="7" width="1" height="1" fill="rgb(169,169,169)" stroke-width="0.05" stroke="rgb(0,0,0)" />
	<rect x="48" y="6" width="1" height="1" fill="rgb(169,169,169)" stroke-width="0.05" stroke="rgb(0,0,0)" />
	<rect x="48" y="4" width="1" height="1" fill="rgb(169,169,169)" stroke-width="0.05" stroke="rgb(0,0,0)" />
	<rect x="49" y="27" width="1" height="1" fill="rgb(169,169,169)" stroke-width="0.05" stroke="rgb(0,0,0)" />
	<rect x="49" y="26" width="1" height="1" fill="rgb(169,169,169)" stroke-width="0.05" stroke="rgb(0,0,0)" />
	<rect x="49" y="25" width="1" height="1" fill="rgb(169,169,169)" stroke-width="0.05" stroke="rgb(0,0,0)" />
	<rect x="49" y="24" width="1" height="1" fill="rgb(169,169,169)" stroke-width="0.05" stroke="rgb(0,0,0)" />
	<rect x="49" y="23" width="1" height="1" fill="rgb(169,169,169)" stroke-width="0.05" stroke="rgb(0,0,0)" />
	<rect x="49" y="22" width="1" height="1" fill="rgb(169,169,169)" stroke-width="0.05" stroke="rgb(0,0,0)" />
	<rect x="49" y="21" width="1" height="1" fill="rgb(169,169,169)" stroke-width="0.05" stroke="rgb(0,0,0)" />
	<rect x="49" y="20" width="1" height="1" fill="rgb(169,169,169)" stroke-width="0.05" stroke="rgb(0,0,0)" />
	<rect x="49" y="19" width="1" height="1" fill="rgb(169,169,169)" stroke-width="0.05" stroke="rgb(0,0,0)" />
	<rect x="49" y="18" width="1" height="1" fill="rgb(169,169,169)" stroke-width="0.05" stroke="rgb(0,0,0)" />
	<rect x="49" y="17" width="1" height="1" fill="rgb(169,169,169)" stroke-width="0.05" stroke="rgb(0,0,0)" />
	<rect x="49" y="16" width="1" height="1" fill="rgb(169,169,169)" stroke-width="0.05" stroke="rgb(0,0,0)" />
	<rect x="49" y="15" width="1" height="1" fill="rgb(169,169,169)" stroke-width="0.05" stroke="rgb(0,0,0)" />
	<rect x="49" y="14" width="1" height="1" fill="rgb(169,169,169)" stroke-width="0.05" stroke="rgb(0,0,0)" />
	<rect x="49" y="13" width="1" height="1" fill="rgb(169,169,169)" stroke-width="0.05" stroke="rgb(0,0,0)" />
	<rect x="49" y="12" width="1" height="1" fill="rgb(169,169,169)" stroke-width="0.05" stroke="rgb(0,0,0)" />
	<rect x="49" y="4" width="1" height="1" fill="rgb(169,169,169)" stroke-width="0.05" stroke="rgb(0,0,0)" />
	<rect x="50" y="27" width="1" height="1" fill="rgb(169,169,169)" stroke-width="0.05" stroke="rgb(0,0,0)" />
	<rect x="50" y="26" width="1" height="1" fill="rgb(169,169,169)" stroke-width="0.05" stroke="rgb(0,0,0)" />
	<rect x="50" y="25" width="1" height="1" fill="rgb(169,169,169)" stroke-width="0.05" stroke="rgb(0,0,0)" />
	<rect x="50" y="24" width="1" height="1" fill="rgb(169,169,169)" stroke-width="0.05" stroke="rgb(0,0,0)" />
	<rect x="50" y="23" width="1" height="1" fill="rgb(169,169,169)" stroke-width="0.05" stroke="rgb(0,0,0)" />
	<rect x="50" y="22" width="1" height="1" fill="rgb(169,169,169)" stroke-width="0.05" stroke="rgb(0,0,0)" />
	<rect x="50" y="21" width="1" height="1" fill="rgb(169,169,169)" stroke-width="0.05" stroke="rgb(0,0,0)" />
	<rect x="50" y="20" width="1" height="1" fill="rgb(169,169,169)" stroke-width="0.05" stroke="rgb(0,0,0)" />
	<rect x="50" y="19" width="1" height="1" fill="rgb(169,169,169)" stroke-width="0.05" stroke="rgb(0,0,0)" />
	<rect x="50" y="18" width="1" height="1" fill="rgb(169,169,169)" stroke-width="0.05" stroke="rgb(0,0,0)" />
	<rect x="50" y="17" width="1" height="1" fill="rgb(169,169,169)" stroke-width="0.05" stroke="rgb(0,0,0)" />
	<rect x="50" y="16" width="1" height="1" fill="rgb(169,169,169)" stroke-width="0.05" stroke="rgb(0,0,0)" />
	<rect x="50" y="15" width="1" height="1" fill="rgb(169,169,169)" stroke-width="0.05" stroke="rgb(0,0,0)" />
	<rect x="50" y="14" width="1" height="1" fill="rgb(169,169,169)" stroke-width="0.05" stroke="rgb(0,0,0)" />
	<rect x="50" y="13" width="1" height="1" fill="rgb(169,169,169)" stroke-width="0.05" stroke="rgb(0,0,0)" />
	<rect x="50" y="12" width="1" height="1" fill="rgb(169,169,169)" stroke-width="0.05" stroke="rgb(0,0,0)" />
	<rect x="50" y="4" width="1" height="1" fill="rgb(169,169,169)" stroke-width="0.05" stroke="rgb(0,0,0)" />
	<rect x="51" y="27" width="1" height="1" fill="rgb(169,169,169)" stroke-width="0.05" stroke="rgb(0,0,0)" />
	<rect x="51" y="26" width="1" height="1" fill="rgb(169,169,169)" stroke-width="0.05" stroke="rgb(0,0,0)" />
	<rect x="51" y="25" width="1" height="1" fill="rgb(169,169,169)" stroke-width="0.05" stroke="rgb(0,0,0)" />
	<rect x="51" y="24" width="1" height="1" fill="rgb(169,169,169)" stroke-width="0.05" stroke="rgb(0,0,0)" />
	<rect x="51" y="23" width="1" height="1" fill="rgb(169,169,169)" stroke-width="0.05" stroke="rgb(0,0,0)" />
	<rect x="51" y="22" width="1" height="1" fill="rgb(169,169,169)" stroke-width="0.05" stroke="rgb(0,0,0)" />
	<rect x="51" y="21" width="1" height="1" fill="rgb(169,169,169)" stroke-width="0.05" stroke="rgb(0,0,0)" />
	<rect x="51" y="20" width="1" height="1" fill="rgb(169,169,169)" stroke-width="0.05" stroke="rgb(0,0,0)" />
	<rect x="51" y="19" width="1" height="1" fill="rgb(169,169,169)" stroke-width="0.05" stroke="rgb(0,0,0)" />
	<rect x="51" y="18" width="1" height="1" fill="rgb(169,169,169)" stroke-width="0.05" stroke="rgb(0,0,0)" />
	<rect x="51" y="17" width="1" height="1" fill="rgb(169,169,169)" stroke-width="0.05" stroke="rgb(0,0,0)" />
	<rect x="51" y="16" width="1" height="1" fill="rgb(169,169,169)" stroke-width="0.05" stroke="rgb(0,0,0)" />
	<rect x="51" y="15" width="1" height="1" fill="rgb(169,169,169)" stroke-width="0.05" stroke="rgb(0,0,0)" />
	<rect x="51" y="14" width="1" height="1" fill="rgb(169,169,169)" stroke-width="0.05" stroke="rgb(0,0,0)" />
	<rect x="51" y="13" width="1" height="1" fill="rgb(169,169,169)" stroke-width="0.05" stroke="rgb(0,0,0)" />
	<rect x="51" y="12" width="1" height="1" fill="rgb(169,169,169)" stroke-width="0.05" stroke="rgb(0,0,0)" />
	<rect x="51" y="4" width="1" height="1" fill="rgb(169,169,169)" stroke-width="0.05" stroke="rgb(0,0,0)" />
	<rect x="52" y="27" width="1" height="1" fill="rgb(169,169,169)" stroke-width="0.05" stroke="rgb(0,0,0)" />
	<rect x="52" y="26" width="1" height="1" fill="rgb(169,169,169)" stroke-width="0.05" stroke="rgb(0,0,0)" />
	<rect x="52" y="25" width="1" height="1" fill="rgb(169,169,169)" stroke-width="0.05" stroke="rgb(0,0,0)" />
	<rect x="52" y="24" width="1" height="1" fill="rgb(169,169,169)" stroke-width="0.05" stroke="rgb(0,0,0)" />
	<rect x="52" y="23" width="1" height="1" fill="rgb(169,169,169)" stroke-width="0.05" stroke="rgb(0,0,0)" />
	<rect x="52" y="22" width="1" height="1" fill="rgb(169,169,169)" stroke-width="0.05" stroke="rgb(0,0,0)" />
	<rect x="52" y="21" width="1" height="1" fill="rgb(169,169,169)" stroke-width="0.05" stroke="rgb(0,0,0)" />
	<rect x="52" y="20" width="1" height="1" fill="rgb(169,169,169)" stroke-width="0.05" stroke="rgb(0,0,0)" />
	<rect x="52" y="19" width="1" height="1" fill="rgb(169,169,169)" stroke-width="0.05" stroke="rgb(0,0,0)" />
	<rect x="52" y="18" width="1" height="1" fill="rgb(169,169,169)" stroke-width="0.05" stroke="rgb(0,0,0)" />
	<rect x="52" y="17" width="1" height="1" fill="rgb(169,169,169)" stroke-width="0.05" stroke="rgb(0,0,0)" />
	<rect x="52" y="16" width="1" height="1" fill="rgb(169,169,169)" stroke-width="0.05" stroke="rgb(0,0,0)" />
	<rect x="52" y="15" width="1" height="1" fill="rgb(169,169,169)" stroke-width="0.05" stroke="rgb(0,0,0)" />
	<rect x="52" y="14" width="1" height="1" fill="rgb(169,169,169)" stroke-width="0.05" stroke="rgb(0,0,0)" />
	<rect x="52" y="13" width="1" height="1" fill="rgb(169,169,169)" stroke-width="0.05" stroke="rgb(0,0,0)" />
	<rect x="52" y="4" width="1" height="1" fill="rgb(169,169,169)" stroke-width="0.05" stroke="rgb(0,0,0)" />
	<rect x="53" y="28" width="1" height="1" fill="rgb(169,169,169)" stroke-width="0.05" stroke="rgb(0,0,0)" />
	<rect x="53" y="27" width="1" height="1" fill="rgb(169,169,169)" stroke-width="0.05" stroke="rgb(0,0,0)" />
	<rect x="53" y="26" width="1" height="1" fill="rgb(169,169,169)" stroke-width="0.05" stroke="rgb(0,0,0)" />
	<rect x="53" y="25" width="1" height="1" fill="rgb(169,169,169)" stroke-width="0.05" stroke="rgb(0,0,0)" />
	<rect x="53" y="24" width="1" height="1" fill="rgb(169,169,169)" stroke-width="0.05" stroke="rgb(0,0,0)" />
	<rect x="53" y="23" width="1" height="1" fill="rgb(169,169,169)" stroke-width="0.05" stroke="rgb(0,0,0)" />
	<rect x="53" y="22" width="1" height="1" fill="rgb(169,169,169)" stroke-width="0.05" stroke="rgb(0,0,0)" />
	<rect x="53" y="21" width="1" height="1" fill="rgb(169,169,169)" stroke-width="0.05" stroke="rgb(0,0,0)" />
	<rect x="53" y="20" width="1" height="1" fill="rgb(169,169,169)" stroke-width="0.05" stroke="rgb(0,0,0)" />
	<rect x="53" y="19" width="1" height="1" fill="rgb(169,169,169)" stroke-width="0.05" stroke="rgb(0,0,0)" />
	<rect x="53" y="18" width="1" height="1" fill="rgb(169,169,169)" stroke-width="0.05" stroke="rgb(0,0,0)" />
	<rect x="53" y="17" width="1" height="1" fill="rgb(169,169,169)" stroke-width="0.05" stroke="rgb(0,0,0)" />
	<rect x="53" y="16" width="1" height="1" fill="rgb(169,169,169)" stroke-width="0.05" stroke="rgb(0,0,0)" />
	<rect x="53" y="15" width="1" height="1" fill="rgb(169,169,169)" stroke-width="0.05" stroke="rgb(0,0,0)" />
	<rect x="53" y="14" width="1" height="1" fill="rgb(169,169,169)" stroke-width="0.05" stroke="rgb(0,0,0)" />
	<rect x="53" y="13" width="1" height="1" fill="rgb(169,169,169)" stroke-width="0.05" stroke="rgb(0,0,0)" />
	<rect x="53" y="12" width="1" height="1" fill="rgb(169,169,169)" stroke-width="0.05" stroke="rgb(0,0,0)" />
	<rect x="53" y="11" width="1" height="1" fill="rgb(169,169,169)" stroke-width="0.05" stroke="rgb(0,0,0)" />
	<rect x="53" y="10" width="1" height="1" fill="rgb(169,169,169)" stroke-width="0.05" stroke="rgb(0,0,0)" />
	<rect x="53" y="9" width="1" height="1" fill="rgb(169,169,169)" stroke-width="0.05" stroke="rgb(0,0,0)" />
	<rect x="53" y="8" width="1" height="1" fill="rgb(169,169,169)" stroke-width="0.05" stroke="rgb(0,0,0)" />
	<rect x="53" y="7" width="1" height="1" fill="rgb(169,169,169)" stroke-width="0.05" stroke="rgb(0,0,0)" />
	<rect x="53" y="6" width="1" height="1" fill="rgb(169,169,169)" stroke-width="0.05" stroke="rgb(0,0,0)" />
	<rect x="53" y="5" width="1" height="1" fill="rgb(169,169,169)" stroke-width="0.05" stroke="rgb(0,0,0)" />
	<rect x="53" y="4" width="1" height="1" fill="rgb(169,169,169)" stroke-width="0.05" stroke="rgb(0,0,0)" />
	<rect x="53" y="3" width="1" height="1" fill="rgb(169,169,169)" stroke-width="0.05" stroke="rgb(0,0,0)" />
	<rect x="53" y="2" width="1" height="1" fill="rgb(169,169,169)" stroke-width="0.05" stroke="rgb(0,0,0)" />
	<rect x="53" y="1" width="1" height="1" fill="rgb(169,169,169)" stroke-width="0.05" stroke="rgb(0,0,0)" />
	<rect x="54" y="28" width="1" height="1" fill="rgb(169,169,169)" stroke-width="0.05" stroke="rgb(0,0,0)" />
	<rect x="54" y="27" width="1" height="1" fill="rgb(169,169,169)" stroke-width="0.05" stroke="rgb(0,0,0)" />
	<rect x="54" y="26" width="1" height="1" fill="rgb(169,169,169)" stroke-width="0.05" stroke="rgb(0,0,0)" />
	<rect x="54" y="25" width="1" height="1" fill="rgb(169,169,169)" stroke-width="0.05" stroke="rgb(0,0,0)" />
	<rect x="54" y="24" width="1" height="1" fill="rgb(169,169,169)" stroke-width="0.05" stroke="rgb(0,0,0)" />
	<rect x="54" y="23" width="1" height="1" fill="rgb(169,169,169)" stroke-width="0.05" stroke="rgb(0,0,0)" />
	<rect x="54" y="22" width="1" height="1" fill="rgb(169,169,169)" stroke-width="0.05" stroke="rgb(0,0,0)" />
	<rect x="54" y="21" width="1" height="1" fill="rgb(169,169,169)" stroke-width="0.05" stroke="rgb(0,0,0)" />
	<rect x="54" y="20" width="1" height="1" fill="rgb(169,169,169)" stroke-width="0.05" stroke="rgb(0,0,0)" />
	<rect x="54" y="19" width="1" height="1" fill="rgb(169,169,169)" stroke-width="0.05" stroke="rgb(0,0,0)" />
	<rect x="54" y="18" width="1" height="1" fill="rgb(169,169,169)" stroke-width="0.05" stroke="rgb(0,0,0)" />
	<rect x="54" y="17" width="1" height="1" fill="rgb(169,169,169)" stroke-width="0.05" stroke="rgb(0,0,0)" />
	<rect x="54" y="16" width="1" height="1" fill="rgb(169,169,169)" stroke-width="0.05" stroke="rgb(0,0,0)" />
	<rect x="54" y="15" width="1" height="1" fill="rgb(169,169,169)" stroke-width="0.05" stroke="rgb(0,0,0)" />
	<rect x="54" y="14" width="1" height="1" fill="rgb(169,169,169)" stroke-width="0.05" stroke="rgb(0,0,0)" />
	<rect x="54" y="13" width="1" height="1" fill="rgb(169,169,169)" stroke-width="0.05" stroke="rgb(0,0,0)" />
	<rect x="54" y="4" width="1" height="1" fill="rgb(169,169,169)" stroke-width="0.05" stroke="rgb(0,0,0)" />
	<rect x="55" y="28" width="1" height="1" fill="rgb(169,169,169)" stroke-width="0.05" stroke="rgb(0,0,0)" />
	<rect x="55" y="27" width="1" height="1" fill="rgb(169,169,169)" stroke-width="0.05" stroke="rgb(0,0,0)" />
	<rect x="55" y="26" width="1" height="1" fill="rgb(169,169,169)" stroke-width="0.05" stroke="rgb(0,0,0)" />
	<rect x="55" y="25" width="1" height="1" fill="rgb(169,169,169)" stroke-width="0.05" stroke="rgb(0,0,0)" />
	<rect x="55" y="24" width="1" height="1" fill="rgb(169,169,169)" stroke-width="0.05" stroke="rgb(0,0,0)" />
	<rect x="55" y="23" width="1" height="1" fill="rgb(169,169,169)" stroke-width="0.05" stroke="rgb(0,0,0)" />
	<rect x="55" y="22" width="1" height="1" fill="rgb(169,169,169)" stroke-width="0.05" stroke="rgb(0,0,0)" />
	<rect x="55" y="21" width="1" height="1" fill="rgb(169,169,169)" stroke-width="0.05" stroke="rgb(0,0,0)" />
	<rect x="55" y="20" width="1" height="1" fill="rgb(169,169,169)" stroke-width="0.05" stroke="rgb(0,0,0)" />
	<rect x="55" y="19" width="1" height="1" fill="rgb(169,169,169)" stroke-width="0.05" stroke="rgb(0,0,0)" />
	<rect x="55" y="18" width="1" height="1" fill="rgb(169,169,169)" stroke-width="0.05" stroke="rgb(0,0,0)" />
	<rect x="55" y="17" width="1" height="1" fill="rgb(169,169,169)" stroke-width="0.05" stroke="rgb(0,0,0)" />
	<rect x="55" y="16" width="1" height="1" fill="rgb(169,169,169)" stroke-width="0.05" stroke="rgb(0,0,0)" />
	<rect x="55" y="15" width="1" height="1" fill="rgb(169,169,169)" stroke-width="0.05" stroke="rgb(0,0,0)" />
	<rect x="55" y="14" width="1" height="1" fill="rgb(169,169,169)" stroke-width="0.05" stroke="rgb(0,0,0)" />
	<rect x="55" y="13" width="1" height="1" fill="rgb(169,169,169)" stroke-width="0.05" stroke="rgb(0,0,0)" />
	<rect x="55" y="4" width="1" height="1" fill="rgb(169,169,169)" stroke-width="0.05" stroke="rgb(0,0,0)" />
	<rect x="56" y="27" width="1" height="1" fill="rgb(169,169,169)" stroke-width="0.05" stroke="rgb(0,0,0)" />
	<rect x="56" y="26" width="1" height="1" fill="rgb(169,169,169)" stroke-width="0.05" stroke="rgb(0,0,0)" />
	<rect x="56" y="25" width="1" height="1" fill="rgb(169,169,169)" stroke-width="0.05" stroke="rgb(0,0,0)" />
	<rect x="56" y="24" width="1" height="1" fill="rgb(169,169,169)" stroke-width="0.05" stroke="rgb(0,0,0)" />
	<rect x="56" y="23" width="1" height="1" fill="rgb(169,169,169)" stroke-width="0.05" stroke="rgb(0,0,0)" />
	<rect x="56" y="22" width="1" height="1" fill="rgb(169,169,169)" stroke-width="0.05" stroke="rgb(0,0,0)" />
	<rect x="56" y="4" width="1" height="1" fill="rgb(169,169,169)" stroke-width="0.05" stroke="rgb(0,0,0)" />
	<rect x="57" y="27" width="1" height="1" fill="rgb(169,169,169)" stroke-width="0.05" stroke="rgb(0,0,0)" />
	<rect x="57" y="26" width="1" height="1" fill="rgb(169,169,169)" stroke-width="0.05" stroke="rgb(0,0,0)" />
	<rect x="57" y="25" width="1" height="1" fill="rgb(169,169,169)" stroke-width="0.05" stroke="rgb(0,0,0)" />
	<rect x="57" y="24" width="1" height="1" fill="rgb(169,169,169)" stroke-width="0.05" stroke="rgb(0,0,0)" />
	<rect x="57" y="23" width="1" height="1" fill="rgb(169,169,169)" stroke-width="0.05" stroke="rgb(0,0,0)" />
	<rect x="57" y="22" width="1" height="1" fill="rgb(169,169,169)" stroke-width="0.05" stroke="rgb(0,0,0)" />
	<rect x="57" y="4" width="1" height="1" fill="rgb(169,169,169)" stroke-width="0.05" stroke="rgb(0,0,0)" />
	<rect x="58" y="27" width="1" height="1" fill="rgb(169,169,169)" stroke-width="0.05" stroke="rgb(0,0,0)" />
	<rect x="58" y="26" width="1" height="1" fill="rgb(169,169,169)" stroke-width="0.05" stroke="rgb(0,0,0)" />
	<rect x="58" y="25" width="1" height="1" fill="rgb(169,169,169)" stroke-width="0.05" stroke="rgb(0,0,0)" />
	<rect x="58" y="24" width="1" height="1" fill="rgb(169,169,169)" stroke-width="0.05" stroke="rgb(0,0,0)" />
	<rect x="58" y="23" width="1" height="1" fill="rgb(169,169,169)" stroke-width="0.05" stroke="rgb(0,0,0)" />
	<rect x="58" y="22" width="1" height="1" fill="rgb(169,169,169)" stroke-width="0.05" stroke="rgb(0,0,0)" />
	<rect x="58" y="4" width="1" height="1" fill="rgb(169,169,169)" stroke-width="0.05" stroke="rgb(0,0,0)" />
	<rect x="59" y="4" width="1" height="1" fill="rgb(169,169,169)" stroke-width="0.05" stroke="rgb(0,0,0)" />
	<rect x="60" y="4" width="1" height="1" fill="rgb(169,169,169)" stroke-width="0.05" stroke="rgb(0,0,0)" />
	<rect x="61" y="4" width="1" height="1" fill="rgb(169,169,169)" stroke-width="0.05" stroke="rgb(0,0,0)" />
	<rect x="62" y="4" width="1" height="1" fill="rgb(169,169,169)" stroke-width="0.05" stroke="rgb(0,0,0)" />
	<rect x="63" y="4" width="1" height="1" fill="rgb(169,169,169)" stroke-width="0.05" stroke="rgb(0,0,0)" />
	<rect x="64" y="4" width="1" height="1" fill="rgb(169,169,169)" stroke-width="0.05" stroke="rgb(0,0,0)" />
	<rect x="65" y="4" width="1" height="1" fill="rgb(169,169,169)" stroke-width="0.05" stroke="rgb(0,0,0)" />
	<rect x="66" y="4" width="1" height="1" fill="rgb(169,169,169)" stroke-width="0.05" stroke="rgb(0,0,0)" />
	<rect x="67" y="4" width="1" height="1" fill="rgb(169,169,169)" stroke-width="0.05" stroke="rgb(0,0,0)" />
	<rect x="68" y="4" width="1" height="1" fill="rgb(169,169,169)" stroke-width="0.05" stroke="rgb(0,0,0)" />
	<rect x="69" y="4" width="1" height="1" fill="rgb(169,169,169)" stroke-width="0.05" stroke="rgb(0,0,0)" />
	<rect x="70" y="4" width="1" height="1" fill="rgb(169,169,169)" stroke-width="0.05" stroke="rgb(0,0,0)" />
	<rect x="71" y="4" width="1" height="1" fill="rgb(169,169,169)" stroke-width="0.05" stroke="rgb(0,0,0)" />
	<rect x="72" y="4" width="1" height="1" fill="rgb(169,169,169)" stroke-width="0.05" stroke="rgb(0,0,0)" />
	<rect x="73" y="4" width="1" height="1" fill="rgb(169,169,169)" stroke-width="0.05" stroke="rgb(0,0,0)" />
	<rect x="74" y="4" width="1" height="1" fill="rgb(169,169,169)" stroke-width="0.05" stroke="rgb(0,0,0)" />
	<rect x="75" y="4" width="1" height="1" fill="rgb(169,169,169)" stroke-width="0.05" stroke="rgb(0,0,0)" />
	<rect x="76" y="4" width="1" height="1" fill="rgb(169,169,169)" stroke-width="0.05" stroke="rgb(0,0,0)" />
	<rect x="77" y="4" width="1" height="1" fill="rgb(169,169,169)" stroke-width="0.05" stroke="rgb(0,0,0)" />
	<rect x="78" y="4" width="1" height="1" fill="rgb(169,169,169)" stroke-width="0.05" stroke="rgb(0,0,0)" />
</svg>
