<?xml version="1.0" standalone="no" ?>
<!DOCTYPE svg PUBLIC "-//W3C//DTD SVG 1.1//EN" "http://www.w3.org/Graphics/SVG/1.1/DTD/svg11.dtd">
<svg width="21px" height="26px" xmlns="http://www.w3.org/2000/svg" version="1.1" >
	<rect x="1" y="6" width="1" height="1" fill="rgb(169,169,169)" stroke-width="0.05" stroke="rgb(0,0,0)" />
	<rect x="1" y="5" width="1" height="1" fill="rgb(169,169,169)" stroke-width="0.05" stroke="rgb(0,0,0)" />
	<rect x="1" y="4" width="1" height="1" fill="rgb(169,169,169)" stroke-width="0.05" stroke="rgb(0,0,0)" />
	<rect x="1" y="3" width="1" height="1" fill="rgb(169,169,169)" stroke-width="0.05" stroke="rgb(0,0,0)" />
	<rect x="1" y="2" width="1" height="1" fill="rgb(169,169,169)" stroke-width="0.05" stroke="rgb(0,0,0)" />
	<rect x="1" y="1" width="1" height="1" fill="rgb(169,169,169)" stroke-width="0.05" stroke="rgb(0,0,0)" />
	<rect x="2" y="6" width="1" height="1" fill="rgb(169,169,169)" stroke-width="0.05" stroke="rgb(0,0,0)" />
	<rect x="2" y="5" width="1" height="1" fill="rgb(169,169,169)" stroke-width="0.05" stroke="rgb(0,0,0)" />
	<rect x="2" y="4" width="1" height="1" fill="rgb(169,169,169)" stroke-width="0.05" stroke="rgb(0,0,0)" />
	<rect x="2" y="3" width="1" height="1" fill="rgb(169,169,169)" stroke-width="0.05" stroke="rgb(0,0,0)" />
	<rect x="2" y="2" width="1" height="1" fill="rgb(169,169,169)" stroke-width="0.05" stroke="rgb(0,0,0)" />
	<rect x="2" y="1" width="1" height="1" fill="rgb(169,169,169)" stroke-width="0.05" stroke="rgb(0,0,0)" />
	<rect x="3" y="6" width="1" height="1" fill="rgb(169,169,169)" stroke-width="0.05" stroke="rgb(0,0,0)" />
	<rect x="3" y="5" width="1" height="1" fill="rgb(169,169,169)" stroke-width="0.05" stroke="rgb(0,0,0)" />
	<rect x="3" y="4" width="1" height="1" fill="rgb(169,169,169)" stroke-width="0.05" stroke="rgb(0,0,0)" />
	<rect x="3" y="3" width="1" height="1" fill="rgb(169,169,169)" stroke-width="0.05" stroke="rgb(0,0,0)" />
	<rect x="3" y="2" width="1" height="1" fill="rgb(169,169,169)" stroke-width="0.05" stroke="rgb(0,0,0)" />
	<rect x="3" y="1" width="1" height="1" fill="rgb(169,169,169)" stroke-width="0.05" stroke="rgb(0,0,0)" />
	<rect x="4" y="6" width="1" height="1" fill="rgb(169,169,169)" stroke-width="0.05" stroke="rgb(0,0,0)" />
	<rect x="4" y="5" width="1" height="1" fill="rgb(169,169,169)" stroke-width="0.05" stroke="rgb(0,0,0)" />
	<rect x="4" y="4" width="1" height="1" fill="rgb(169,169,169)" stroke-width="0.05" stroke="rgb(0,0,0)" />
	<rect x="4" y="3" width="1" height="1" fill="rgb(169,169,169)" stroke-width="0.05" stroke="rgb(0,0,0)" />
	<rect x="4" y="2" width="1" height="1" fill="rgb(169,169,169)" stroke-width="0.05" stroke="rgb(0,0,0)" />
	<rect x="4" y="1" width="1" height="1" fill="rgb(169,169,169)" stroke-width="0.05" stroke="rgb(0,0,0)" />
	<rect x="5" y="8" width="1" height="1" fill="rgb(169,169,169)" stroke-width="0.05" stroke="rgb(0,0,0)" />
	<rect x="5" y="7" width="1" height="1" fill="rgb(169,169,169)" stroke-width="0.05" stroke="rgb(0,0,0)" />
	<rect x="5" y="6" width="1" height="1" fill="rgb(169,169,169)" stroke-width="0.05" stroke="rgb(0,0,0)" />
	<rect x="5" y="5" width="1" height="1" fill="rgb(169,169,169)" stroke-width="0.05" stroke="rgb(0,0,0)" />
	<rect x="5" y="4" width="1" height="1" fill="rgb(169,169,169)" stroke-width="0.05" stroke="rgb(0,0,0)" />
	<rect x="5" y="3" width="1" height="1" fill="rgb(169,169,169)" stroke-width="0.05" stroke="rgb(0,0,0)" />
	<rect x="5" y="2" width="1" height="1" fill="rgb(169,169,169)" stroke-width="0.05" stroke="rgb(0,0,0)" />
	<rect x="5" y="1" width="1" height="1" fill="rgb(169,169,169)" stroke-width="0.05" stroke="rgb(0,0,0)" />
	<rect x="6" y="8" width="1" height="1" fill="rgb(169,169,169)" stroke-width="0.05" stroke="rgb(0,0,0)" />
	<rect x="6" y="7" width="1" height="1" fill="rgb(169,169,169)" stroke-width="0.05" stroke="rgb(0,0,0)" />
	<rect x="6" y="6" width="1" height="1" fill="rgb(169,169,169)" stroke-width="0.05" stroke="rgb(0,0,0)" />
	<rect x="6" y="5" width="1" height="1" fill="rgb(169,169,169)" stroke-width="0.05" stroke="rgb(0,0,0)" />
	<rect x="6" y="4" width="1" height="1" fill="rgb(169,169,169)" stroke-width="0.05" stroke="rgb(0,0,0)" />
	<rect x="6" y="3" width="1" height="1" fill="rgb(169,169,169)" stroke-width="0.05" stroke="rgb(0,0,0)" />
	<rect x="6" y="2" width="1" height="1" fill="rgb(169,169,169)" stroke-width="0.05" stroke="rgb(0,0,0)" />
	<rect x="6" y="1" width="1" height="1" fill="rgb(169,169,169)" stroke-width="0.05" stroke="rgb(0,0,0)" />
	<rect x="7" y="8" width="1" height="1" fill="rgb(169,169,169)" stroke-width="0.05" stroke="rgb(0,0,0)" />
	<rect x="7" y="7" width="1" height="1" fill="rgb(169,169,169)" stroke-width="0.05" stroke="rgb(0,0,0)" />
	<rect x="7" y="6" width="1" height="1" fill="rgb(169,169,169)" stroke-width="0.05" stroke="rgb(0,0,0)" />
	<rect x="7" y="5" width="1" height="1" fill="rgb(169,169,169)" stroke-width="0.05" stroke="rgb(0,0,0)" />
	<rect x="7" y="4" width="1" height="1" fill="rgb(169,169,169)" stroke-width="0.05" stroke="rgb(0,0,0)" />
	<rect x="7" y="3" width="1" height="1" fill="rgb(169,169,169)" stroke-width="0.05" stroke="rgb(0,0,0)" />
	<rect x="7" y="2" width="1" height="1" fill="rgb(169,169,169)" stroke-width="0.05" stroke="rgb(0,0,0)" />
	<rect x="7" y="1" width="1" height="1" fill="rgb(169,169,169)" stroke-width="0.05" stroke="rgb(0,0,0)" />
	<rect x="8" y="8" width="1" height="1" fill="rgb(169,169,169)" stroke-width="0.05" stroke="rgb(0,0,0)" />
	<rect x="8" y="7" width="1" height="1" fill="rgb(169,169,169)" stroke-width="0.05" stroke="rgb(0,0,0)" />
	<rect x="8" y="6" width="1" height="1" fill="rgb(169,169,169)" stroke-width="0.05" stroke="rgb(0,0,0)" />
	<rect x="8" y="5" width="1" height="1" fill="rgb(169,169,169)" stroke-width="0.05" stroke="rgb(0,0,0)" />
	<rect x="8" y="4" width="1" height="1" fill="rgb(169,169,169)" stroke-width="0.05" stroke="rgb(0,0,0)" />
	<rect x="8" y="3" width="1" height="1" fill="rgb(169,169,169)" stroke-width="0.05" stroke="rgb(0,0,0)" />
	<rect x="8" y="2" width="1" height="1" fill="rgb(169,169,169)" stroke-width="0.05" stroke="rgb(0,0,0)" />
	<rect x="9" y="8" width="1" height="1" fill="rgb(169,169,169)" stroke-width="0.05" stroke="rgb(0,0,0)" />
	<rect x="9" y="7" width="1" height="1" fill="rgb(169,169,169)" stroke-width="0.05" stroke="rgb(0,0,0)" />
	<rect x="9" y="6" width="1" height="1" fill="rgb(169,169,169)" stroke-width="0.05" stroke="rgb(0,0,0)" />
	<rect x="9" y="5" width="1" height="1" fill="rgb(169,169,169)" stroke-width="0.05" stroke="rgb(0,0,0)" />
	<rect x="9" y="4" width="1" height="1" fill="rgb(169,169,169)" stroke-width="0.05" stroke="rgb(0,0,0)" />
	<rect x="9" y="3" width="1" height="1" fill="rgb(169,169,169)" stroke-width="0.05" stroke="rgb(0,0,0)" />
	<rect x="9" y="2" width="1" height="1" fill="rgb(169,169,169)" stroke-width="0.05" stroke="rgb(0,0,0)" />
	<rect x="10" y="8" width="1" height="1" fill="rgb(169,169,169)" stroke-width="0.05" stroke="rgb(0,0,0)" />
	<rect x="10" y="7" width="1" height="1" fill="rgb(169,169,169)" stroke-width="0.05" stroke="rgb(0,0,0)" />
	<rect x="10" y="6" width="1" height="1" fill="rgb(169,169,169)" stroke-width="0.05" stroke="rgb(0,0,0)" />
	<rect x="10" y="5" width="1" height="1" fill="rgb(169,169,169)" stroke-width="0.05" stroke="rgb(0,0,0)" />
	<rect x="10" y="4" width="1" height="1" fill="rgb(169,169,169)" stroke-width="0.05" stroke="rgb(0,0,0)" />
	<rect x="10" y="3" width="1" height="1" fill="rgb(169,169,169)" stroke-width="0.05" stroke="rgb(0,0,0)" />
	<rect x="10" y="2" width="1" height="1" fill="rgb(169,169,169)" stroke-width="0.05" stroke="rgb(0,0,0)" />
	<rect x="11" y="8" width="1" height="1" fill="rgb(169,169,169)" stroke-width="0.05" stroke="rgb(0,0,0)" />
	<rect x="11" y="7" width="1" height="1" fill="rgb(169,169,169)" stroke-width="0.05" stroke="rgb(0,0,0)" />
	<rect x="11" y="6" width="1" height="1" fill="rgb(169,169,169)" stroke-width="0.05" stroke="rgb(0,0,0)" />
	<rect x="11" y="5" width="1" height="1" fill="rgb(169,169,169)" stroke-width="0.05" stroke="rgb(0,0,0)" />
	<rect x="11" y="4" width="1" height="1" fill="rgb(169,169,169)" stroke-width="0.05" stroke="rgb(0,0,0)" />
	<rect x="11" y="3" width="1" height="1" fill="rgb(169,169,169)" stroke-width="0.05" stroke="rgb(0,0,0)" />
	<rect x="11" y="2" width="1" height="1" fill="rgb(169,169,169)" stroke-width="0.05" stroke="rgb(0,0,0)" />
	<rect x="11" y="1" width="1" height="1" fill="rgb(169,169,169)" stroke-width="0.05" stroke="rgb(0,0,0)" />
	<rect x="12" y="8" width="1" height="1" fill="rgb(169,169,169)" stroke-width="0.05" stroke="rgb(0,0,0)" />
	<rect x="12" y="7" width="1" height="1" fill="rgb(169,169,169)" stroke-width="0.05" stroke="rgb(0,0,0)" />
	<rect x="12" y="6" width="1" height="1" fill="rgb(169,169,169)" stroke-width="0.05" stroke="rgb(0,0,0)" />
	<rect x="12" y="5" width="1" height="1" fill="rgb(169,169,169)" stroke-width="0.05" stroke="rgb(0,0,0)" />
	<rect x="12" y="4" width="1" height="1" fill="rgb(169,169,169)" stroke-width="0.05" stroke="rgb(0,0,0)" />
	<rect x="12" y="3" width="1" height="1" fill="rgb(169,169,169)" stroke-width="0.05" stroke="rgb(0,0,0)" />
	<rect x="12" y="2" width="1" height="1" fill="rgb(169,169,169)" stroke-width="0.05" stroke="rgb(0,0,0)" />
	<rect x="12" y="1" width="1" height="1" fill="rgb(169,169,169)" stroke-width="0.05" stroke="rgb(0,0,0)" />
	<rect x="13" y="8" width="1" height="1" fill="rgb(169,169,169)" stroke-width="0.05" stroke="rgb(0,0,0)" />
	<rect x="13" y="7" width="1" height="1" fill="rgb(169,169,169)" stroke-width="0.05" stroke="rgb(0,0,0)" />
	<rect x="13" y="6" width="1" height="1" fill="rgb(169,169,169)" stroke-width="0.05" stroke="rgb(0,0,0)" />
	<rect x="13" y="5" width="1" height="1" fill="rgb(169,169,169)" stroke-width="0.05" stroke="rgb(0,0,0)" />
	<rect x="13" y="4" width="1" height="1" fill="rgb(169,169,169)" stroke-width="0.05" stroke="rgb(0,0,0)" />
	<rect x="13" y="3" width="1" height="1" fill="rgb(169,169,169)" stroke-width="0.05" stroke="rgb(0,0,0)" />
	<rect x="13" y="2" width="1" height="1" fill="rgb(169,169,169)" stroke-width="0.05" stroke="rgb(0,0,0)" />
	<rect x="13" y="1" width="1" height="1" fill="rgb(169,169,169)" stroke-width="0.05" stroke="rgb(0,0,0)" />
	<rect x="14" y="6" width="1" height="1" fill="rgb(169,169,169)" stroke-width="0.05" stroke="rgb(0,0,0)" />
	<rect x="14" y="5" width="1" height="1" fill="rgb(169,169,169)" stroke-width="0.05" stroke="rgb(0,0,0)" />
	<rect x="14" y="4" width="1" height="1" fill="rgb(169,169,169)" stroke-width="0.05" stroke="rgb(0,0,0)" />
	<rect x="14" y="3" width="1" height="1" fill="rgb(169,169,169)" stroke-width="0.05" stroke="rgb(0,0,0)" />
	<rect x="14" y="2" width="1" height="1" fill="rgb(169,169,169)" stroke-width="0.05" stroke="rgb(0,0,0)" />
	<rect x="14" y="1" width="1" height="1" fill="rgb(169,169,169)" stroke-width="0.05" stroke="rgb(0,0,0)" />
	<rect x="15" y="6" width="1" height="1" fill="rgb(169,169,169)" stroke-width="0.05" stroke="rgb(0,0,0)" />
	<rect x="15" y="5" width="1" height="1" fill="rgb(169,169,169)" stroke-width="0.05" stroke="rgb(0,0,0)" />
	<rect x="15" y="4" width="1" height="1" fill="rgb(169,169,169)" stroke-width="0.05" stroke="rgb(0,0,0)" />
	<rect x="15" y="3" width="1" height="1" fill="rgb(169,169,169)" stroke-width="0.05" stroke="rgb(0,0,0)" />
	<rect x="15" y="2" width="1" height="1" fill="rgb(169,169,169)" stroke-width="0.05" stroke="rgb(0,0,0)" />
	<rect x="15" y="1" width="1" height="1" fill="rgb(169,169,169)" stroke-width="0.05" stroke="rgb(0,0,0)" />
	<rect x="16" y="6" width="1" height="1" fill="rgb(169,169,169)" stroke-width="0.05" stroke="rgb(0,0,0)" />
	<rect x="16" y="5" width="1" height="1" fill="rgb(169,169,169)" stroke-width="0.05" stroke="rgb(0,0,0)" />
	<rect x="16" y="4" width="1" height="1" fill="rgb(169,169,169)" stroke-width="0.05" stroke="rgb(0,0,0)" />
	<rect x="16" y="3" width="1" height="1" fill="rgb(169,169,169)" stroke-width="0.05" stroke="rgb(0,0,0)" />
	<rect x="16" y="2" width="1" height="1" fill="rgb(169,169,169)" stroke-width="0.05" stroke="rgb(0,0,0)" />
	<rect x="16" y="1" width="1" height="1" fill="rgb(169,169,169)" stroke-width="0.05" stroke="rgb(0,0,0)" />
	<rect x="17" y="5" width="1" height="1" fill="rgb(169,169,169)" stroke-width="0.05" stroke="rgb(0,0,0)" />
	<rect x="17" y="4" width="1" height="1" fill="rgb(169,169,169)" stroke-width="0.05" stroke="rgb(0,0,0)" />
	<rect x="17" y="3" width="1" height="1" fill="rgb(169,169,169)" stroke-width="0.05" stroke="rgb(0,0,0)" />
	<rect x="17" y="2" width="1" height="1" fill="rgb(169,169,169)" stroke-width="0.05" stroke="rgb(0,0,0)" />
	<rect x="17" y="1" width="1" height="1" fill="rgb(169,169,169)" stroke-width="0.05" stroke="rgb(0,0,0)" />
	<rect x="18" y="5" width="1" height="1" fill="rgb(169,169,169)" stroke-width="0.05" stroke="rgb(0,0,0)" />
	<rect x="18" y="4" width="1" height="1" fill="rgb(169,169,169)" stroke-width="0.05" stroke="rgb(0,0,0)" />
	<rect x="18" y="3" width="1" height="1" fill="rgb(169,169,169)" stroke-width="0.05" stroke="rgb(0,0,0)" />
	<rect x="18" y="2" width="1" height="1" fill="rgb(169,169,169)" stroke-width="0.05" stroke="rgb(0,0,0)" />
	<rect x="18" y="1" width="1" height="1" fill="rgb(169,169,169)" stroke-width="0.05" stroke="rgb(0,0,0)" />
	<rect x="19" y="25" width="1" height="1" fill="rgb(169,169,169)" stroke-width="0.05" stroke="rgb(0,0,0)" />
	<rect x="19" y="24" width="1" height="1" fill="rgb(169,169,169)" stroke-width="0.05" stroke="rgb(0,0,0)" />
	<rect x="19" y="23" width="1" height="1" fill="rgb(169,169,169)" stroke-width="0.05" stroke="rgb(0,0,0)" />
	<rect x="19" y="22" width="1" height="1" fill="rgb(169,169,169)" stroke-width="0.05" stroke="rgb(0,0,0)" />
	<rect x="19" y="21" width="1" height="1" fill="rgb(169,169,169)" stroke-width="0.05" stroke="rgb(0,0,0)" />
	<rect x="19" y="20" width="1" height="1" fill="rgb(169,169,169)" stroke-width="0.05" stroke="rgb(0,0,0)" />
	<rect x="19" y="19" width="1" height="1" fill="rgb(169,169,169)" stroke-width="0.05" stroke="rgb(0,0,0)" />
	<rect x="19" y="18" width="1" height="1" fill="rgb(169,169,169)" stroke-width="0.05" stroke="rgb(0,0,0)" />
	<rect x="19" y="17" width="1" height="1" fill="rgb(169,169,169)" stroke-width="0.05" stroke="rgb(0,0,0)" />
	<rect x="19" y="16" width="1" height="1" fill="rgb(169,169,169)" stroke-width="0.05" stroke="rgb(0,0,0)" />
	<rect x="19" y="15" width="1" height="1" fill="rgb(169,169,169)" stroke-width="0.05" stroke="rgb(0,0,0)" />
	<rect x="19" y="14" width="1" height="1" fill="rgb(169,169,169)" stroke-width="0.05" stroke="rgb(0,0,0)" />
	<rect x="19" y="13" width="1" height="1" fill="rgb(169,169,169)" stroke-width="0.05" stroke="rgb(0,0,0)" />
	<rect x="19" y="12" width="1" height="1" fill="rgb(169,169,169)" stroke-width="0.05" stroke="rgb(0,0,0)" />
	<rect x="19" y="11" width="1" height="1" fill="rgb(169,169,169)" stroke-width="0.05" stroke="rgb(0,0,0)" />
	<rect x="19" y="10" width="1" height="1" fill="rgb(169,169,169)" stroke-width="0.05" stroke="rgb(0,0,0)" />
	<rect x="19" y="9" width="1" height="1" fill="rgb(169,169,169)" stroke-width="0.05" stroke="rgb(0,0,0)" />
	<rect x="19" y="8" width="1" height="1" fill="rgb(169,169,169)" stroke-width="0.05" stroke="rgb(0,0,0)" />
	<rect x="19" y="7" width="1" height="1" fill="rgb(169,169,169)" stroke-width="0.05" stroke="rgb(0,0,0)" />
	<rect x="19" y="6" width="1" height="1" fill="rgb(169,169,169)" stroke-width="0.05" stroke="rgb(0,0,0)" />
	<rect x="19" y="5" width="1" height="1" fill="rgb(169,169,169)" stroke-width="0.05" stroke="rgb(0,0,0)" />
	<rect x="19" y="4" width="1" height="1" fill="rgb(169,169,169)" stroke-width="0.05" stroke="rgb(0,0,0)" />
	<rect x="19" y="3" width="1" height="1" fill="rgb(169,169,169)" stroke-width="0.05" stroke="rgb(0,0,0)" />
	<rect x="19" y="2" width="1" height="1" fill="rgb(169,169,169)" stroke-width="0.05" stroke="rgb(0,0,0)" />
	<rect x="19" y="1" width="1" height="1" fill="rgb(169,169,169)" stroke-width="0.05" stroke="rgb(0,0,0)" />
	<rect x="20" y="25" width="1" height="1" fill="rgb(169,169,169)" stroke-width="0.05" stroke="rgb(0,0,0)" />
	<rect x="20" y="24" width="1" height="1" fill="rgb(169,169,169)" stroke-width="0.05" stroke="rgb(0,0,0)" />
	<rect x="20" y="23" width="1" height="1" fill="rgb(169,169,169)" stroke-width="0.05" stroke="rgb(0,0,0)" />
	<rect x="20" y="22" width="1" height="1" fill="rgb(169,169,169)" stroke-width="0.05" stroke="rgb(0,0,0)" />
	<rect x="20" y="21" width="1" height="1" fill="rgb(169,169,169)" stroke-width="0.05" stroke="rgb(0,0,0)" />
	<rect x="20" y="20" width="1" height="1" fill="rgb(169,169,169)" stroke-width="0.05" stroke="rgb(0,0,0)" />
	<rect x="20" y="19" width="1" height="1" fill="rgb(169,169,169)" stroke-width="0.05" stroke="rgb(0,0,0)" />
	<rect x="20" y="18" width="1" height="1" fill="rgb(169,169,169)" stroke-width="0.05" stroke="rgb(0,0,0)" />
	<rect x="20" y="17" width="1" height="1" fill="rgb(169,169,169)" stroke-width="0.05" stroke="rgb(0,0,0)" />
	<rect x="20" y="16" width="1" height="1" fill="rgb(169,169,169)" stroke-width="0.05" stroke="rgb(0,0,0)" />
	<rect x="20" y="15" width="1" height="1" fill="rgb(169,169,169)" stroke-width="0.05" stroke="rgb(0,0,0)" />
	<rect x="20" y="14" width="1" height="1" fill="rgb(169,169,169)" stroke-width="0.05" stroke="rgb(0,0,0)" />
	<rect x="20" y="13" width="1" height="1" fill="rgb(169,169,169)" stroke-width="0.05" stroke="rgb(0,0,0)" />
	<rect x="20" y="12" width="1" height="1" fill="rgb(169,169,169)" stroke-width="0.05" stroke="rgb(0,0,0)" />
	<rect x="20" y="11" width="1" height="1" fill="rgb(169,169,169)" stroke-width="0.05" stroke="rgb(0,0,0)" />
	<rect x="20" y="10" width="1" height="1" fill="rgb(169,169,169)" stroke-width="0.05" stroke="rgb(0,0,0)" />
	<rect x="20" y="9" width="1" height="1" fill="rgb(169,169,169)" stroke-width="0.05" stroke="rgb(0,0,0)" />
	<rect x="20" y="8" width="1" height="1" fill="rgb(169,169,169)" stroke-width="0.05" stroke="rgb(0,0,0)" />
	<rect x="20" y="7" width="1" height="1" fill="rgb(169,169,169)" stroke-width="0.05" stroke="rgb(0,0,0)" />
	<rect x="20" y="6" width="1" height="1" fill="rgb(169,169,169)" stroke-width="0.05" stroke="rgb(0,0,0)" />
	<rect x="20" y="5" width="1" height="1" fill="rgb(169,169,169)" stroke-width="0.05" stroke="rgb(0,0,0)" />
	<rect x="20" y="4" width="1" height="1" fill="rgb(169,169,169)" stroke-width="0.05" stroke="rgb(0,0,0)" />
	<rect x="20" y="3" width="1" height="1" fill="rgb(169,169,169)" stroke-width="0.05" stroke="rgb(0,0,0)" />
	<rect x="20" y="2" width="1" height="1" fill="rgb(169,169,169)" stroke-width="0.05" stroke="rgb(0,0,0)" />
	<rect x="20" y="1" width="1" height="1" fill="rgb(169,169,169)" stroke-width="0.05" stroke="rgb(0,0,0)" />
</svg>
